SplineFontDB: 3.0
FontName: Monotone-Regular
FullName: Monotone Regular
FamilyName: Monotone
Weight: Regular
Copyright: Copyright 2006 The Inconsolata Project Authors
Version: 1.00
ItalicAngle: 0
UnderlinePosition: -194
UnderlineWidth: 144
Ascent: 760
Descent: 264
sfntRevision: 0x00020000
LayerCount: 2
Layer: 0 1 "+gMyXYgAA"  1
Layer: 1 1 "+Uk2XYgAA"  0
XUID: [1021 550 170945871 15816076]
FSType: 0
OS2Version: 4
OS2_WeightWidthSlopeOnly: 0
OS2_UseTypoMetrics: 1
CreationTime: 1472710287
ModificationTime: 1486739592
PfmFamily: 81
TTFWeight: 400
TTFWidth: 5
LineGap: 0
VLineGap: 0
Panose: 0 0 5 9 0 0 0 0 0 0
OS2TypoAscent: 880
OS2TypoAOffset: 0
OS2TypoDescent: -195
OS2TypoDOffset: 0
OS2TypoLinegap: 0
OS2WinAscent: 1028
OS2WinAOffset: 0
OS2WinDescent: 313
OS2WinDOffset: 0
HheadAscent: 880
HheadAOffset: 0
HheadDescent: -195
HheadDOffset: 0
OS2SubXSize: 666
OS2SubYSize: 614
OS2SubXOff: 0
OS2SubYOff: 77
OS2SupXSize: 666
OS2SupYSize: 614
OS2SupXOff: 0
OS2SupYOff: 358
OS2StrikeYSize: 51
OS2StrikeYPos: 281
OS2Vendor: 'CYRE'
OS2CodePages: 20000193.00000000
OS2UnicodeRanges: 20000007.00000001.00000000.00000000
Lookup: 1 0 0 "'aalt' +MFkweTBmMG51cE9TW1cweDBuMKIwrzC7MLkA in +MOkwxjDzZYdbVwAA lookup 0"  {"'aalt' +MFkweTBmMG51cE9TW1cweDBuMKIwrzC7MLkA in +MOkwxjDzZYdbVwAA lookup 0 subtable"  } ['aalt' ('DFLT' <'dflt' > 'latn' <'AZE ' 'CAT ' 'CRT ' 'KAZ ' 'MOL ' 'ROM ' 'TAT ' 'TRK ' 'dflt' > ) ]
Lookup: 3 0 0 "'aalt' +MFkweTBmMG51cE9TW1cweDBuMKIwrzC7MLkA in +MOkwxjDzZYdbVwAA lookup 1"  {"'aalt' +MFkweTBmMG51cE9TW1cweDBuMKIwrzC7MLkA in +MOkwxjDzZYdbVwAA lookup 1 subtable"  } ['aalt' ('DFLT' <'dflt' > 'latn' <'AZE ' 'CAT ' 'CRT ' 'KAZ ' 'MOL ' 'ROM ' 'TAT ' 'TRK ' 'dflt' > ) ]

StartChar: A
Encoding: 65 65 4
Width: 512
GlyphClass: 2
Flags: W
AnchorPoint: "Anchor-8" 0 0 basechar 0
AnchorPoint: "Anchor-7" 0 0 basechar 0
AnchorPoint: "Anchor-6" 256 638 basechar 0
AnchorPoint: "Anchor-5" 424 0 basechar 0
AnchorPoint: "Anchor-4" 256 0 basechar 0
LayerCount: 2
Fore
SplineSet
417.944 -5.79199 m 1,0,-1
 352.944 180.208 l 1,1,-1
 157.186 180.207 l 1,2,-1
 92.793 -4.05566 l 1,3,-1
 82.9443 -5.79199 l 1,4,-1
 11.9443 -5.79199 l 1,5,-1
 10.208 4.05566 l 1,6,-1
 246.208 653.056 l 1,7,-1
 256.056 654.792 l 1,8,-1
 264.056 654.793 l 1,9,-1
 500.056 5.79199 l 1,10,-1
 501.793 -4.05566 l 1,11,-1
 491.944 -5.79297 l 1,12,-1
 417.944 -5.79199 l 1,0,-1
180.196 247.793 m 1,13,-1
 330.94 247.793 l 1,14,-1
 255.568 465.832 l 1,15,-1
 180.196 247.793 l 1,13,-1
EndSplineSet
Validated: 1
Substitution2: "Single Substitution lookup 28 subtable" ordfeminine
Substitution2: "'aalt' +MFkweTBmMG51cE9TW1cweDBuMKIwrzC7MLkA in +MOkwxjDzZYdbVwAA lookup 0 subtable" ordfeminine
EndChar

StartChar: Aogonek
Encoding: 260 260 25
Width: 512
GlyphClass: 2
Flags: W
AnchorPoint: "Anchor-8" 0 0 basechar 0
AnchorPoint: "Anchor-7" 0 0 basechar 0
AnchorPoint: "Anchor-6" 256 638 basechar 0
AnchorPoint: "Anchor-5" 424 0 basechar 0
AnchorPoint: "Anchor-4" 256 0 basechar 0
LayerCount: 2
Fore
SplineSet
413.5 -64.5 m 128,-1,1
 391 -98 391 -98 391 -126 c 0,2,3
 391 -149 391 -149 407 -164 c 128,-1,4
 423 -179 423 -179 455 -183 c 1,5,-1
 438 -232 l 1,6,7
 386 -225 386 -225 355 -201.5 c 128,-1,8
 324 -178 324 -178 324 -140 c 0,9,10
 324 -104 324 -104 349 -68 c 128,-1,11
 374 -32 374 -32 422 1 c 1,12,-1
 357 186 l 1,13,-1
 152 186 l 1,14,-1
 87 0 l 1,15,-1
 16 0 l 1,16,-1
 252 649 l 1,17,-1
 260 649 l 1,18,-1
 496 0 l 1,19,-1
 475 0 l 1,20,0
 436 -31 436 -31 413.5 -64.5 c 128,-1,1
171 242 m 1,21,-1
 339 242 l 1,22,-1
 255 485 l 1,23,-1
 171 242 l 1,21,-1
EndSplineSet
Validated: 1
EndChar

StartChar: Aring
Encoding: 197 197 26
Width: 512
GlyphClass: 2
Flags: W
AnchorPoint: "Anchor-8" 0 0 basechar 0
AnchorPoint: "Anchor-7" 0 0 basechar 0
AnchorPoint: "Anchor-6" 256 814 basechar 0
AnchorPoint: "Anchor-5" 424 0 basechar 0
AnchorPoint: "Anchor-4" 256 0 basechar 0
LayerCount: 2
Fore
SplineSet
357 186 m 1,0,-1
 152 186 l 1,1,-1
 87 0 l 1,2,-1
 16 0 l 1,3,-1
 247 634 l 1,4,5
 211 638 211 638 186.5 663.5 c 128,-1,6
 162 689 162 689 162 724 c 0,7,8
 162 761 162 761 190 787.5 c 128,-1,9
 218 814 218 814 256 814 c 256,10,11
 294 814 294 814 321.5 787.5 c 128,-1,12
 349 761 349 761 349 723 c 0,13,14
 349 689 349 689 325 663.5 c 128,-1,15
 301 638 301 638 265 634 c 1,16,-1
 496 0 l 1,17,-1
 422 0 l 1,18,-1
 357 186 l 1,0,-1
227 691.5 m 128,-1,20
 240 678 240 678 257 678 c 256,21,22
 274 678 274 678 286.5 691.5 c 128,-1,23
 299 705 299 705 299 724 c 0,24,25
 299 744 299 744 286.5 757.5 c 128,-1,26
 274 771 274 771 257 771 c 0,27,28
 239 771 239 771 226.5 757.5 c 128,-1,29
 214 744 214 744 214 724 c 0,30,19
 214 705 214 705 227 691.5 c 128,-1,20
171 242 m 1,31,-1
 339 242 l 1,32,-1
 255 485 l 1,33,-1
 171 242 l 1,31,-1
EndSplineSet
Validated: 1
EndChar

StartChar: Aringacute
Encoding: 506 506 27
Width: 512
GlyphClass: 2
Flags: W
AnchorPoint: "Anchor-8" 0 0 basechar 0
AnchorPoint: "Anchor-7" 0 0 basechar 0
AnchorPoint: "Anchor-6" 256 935 basechar 0
AnchorPoint: "Anchor-5" 424 0 basechar 0
AnchorPoint: "Anchor-4" 256 0 basechar 0
LayerCount: 2
Fore
SplineSet
354 914 m 1,0,-1
 181 852 l 1,1,-1
 158 895 l 1,2,-1
 313 986 l 1,3,-1
 354 914 l 1,0,-1
357 186 m 1,4,-1
 152 186 l 1,5,-1
 87 0 l 1,6,-1
 16 0 l 1,7,-1
 247 634 l 1,8,9
 211 638 211 638 186.5 663.5 c 128,-1,10
 162 689 162 689 162 724 c 0,11,12
 162 761 162 761 190 787.5 c 128,-1,13
 218 814 218 814 256 814 c 256,14,15
 294 814 294 814 321.5 787.5 c 128,-1,16
 349 761 349 761 349 723 c 0,17,18
 349 689 349 689 325 663.5 c 128,-1,19
 301 638 301 638 265 634 c 1,20,-1
 496 0 l 1,21,-1
 422 0 l 1,22,-1
 357 186 l 1,4,-1
227 691.5 m 128,-1,24
 240 678 240 678 257 678 c 256,25,26
 274 678 274 678 286.5 691.5 c 128,-1,27
 299 705 299 705 299 724 c 0,28,29
 299 744 299 744 286.5 757.5 c 128,-1,30
 274 771 274 771 257 771 c 0,31,32
 239 771 239 771 226.5 757.5 c 128,-1,33
 214 744 214 744 214 724 c 0,34,23
 214 705 214 705 227 691.5 c 128,-1,24
171 242 m 1,35,-1
 339 242 l 1,36,-1
 255 485 l 1,37,-1
 171 242 l 1,35,-1
EndSplineSet
Validated: 1
EndChar

StartChar: AE
Encoding: 198 198 29
Width: 512
GlyphClass: 2
Flags: W
LayerCount: 2
Fore
SplineSet
15 0 m 1,0,-1
 216 639 l 1,1,-1
 507 639 l 1,2,-1
 507 575 l 1,3,-1
 332 575 l 1,4,-1
 332 366 l 1,5,-1
 480 366 l 1,6,-1
 480 300 l 1,7,-1
 332 300 l 1,8,-1
 332 63 l 1,9,-1
 505 63 l 1,10,-1
 505 0 l 1,11,-1
 269 0 l 1,12,-1
 269 173 l 1,13,-1
 136 173 l 1,14,-1
 81 0 l 1,15,-1
 15 0 l 1,0,-1
151 232 m 1,16,-1
 269 232 l 1,17,-1
 269 575 l 1,18,-1
 258 575 l 1,19,-1
 151 232 l 1,16,-1
EndSplineSet
Validated: 1
EndChar

StartChar: B
Encoding: 66 66 31
Width: 512
GlyphClass: 2
Flags: W
AnchorPoint: "Anchor-8" 0 0 basechar 0
AnchorPoint: "Anchor-7" 0 0 basechar 0
AnchorPoint: "Anchor-6" 256 638 basechar 0
AnchorPoint: "Anchor-5" 0 0 basechar 0
AnchorPoint: "Anchor-4" 256 0 basechar 0
LayerCount: 2
Fore
SplineSet
53.0557 643.793 m 1,0,-1
 234.056 643.792 l 2,1,2
 340.055 643.792 340.055 643.792 393.056 602.292 c 0,3,4
 434.449 569.881 434.449 569.881 443.515 518.862 c 2,5,-1
 445.251 509.014 l 1,6,-1
 445.499 507.582 l 2,7,8
 447.792 493.665 447.792 493.665 447.793 478.943 c 0,9,10
 447.793 431.944 447.793 431.944 422.792 392.444 c 0,11,12
 401.325 358.525 401.325 358.525 365.643 342.581 c 1,13,14
 409.542 323.632 409.542 323.632 438.556 283.792 c 0,15,16
 463.143 250.03 463.143 250.03 469.685 212.499 c 2,17,-1
 471.421 202.65 l 2,18,19
 473.792 189.045 473.792 189.045 473.792 174.944 c 0,20,21
 473.792 90.9443 473.792 90.9443 414.292 43.4434 c 0,22,23
 376.568 13.3276 376.568 13.3276 314.523 2.30566 c 2,24,-1
 304.676 0.569336 l 1,25,-1
 303.724 0.402346 l 2,26,27
 303.637 0.389738 303.637 0.389738 302.651 0.21582 c 0,28,29
 267.624 -5.79297 267.624 -5.79297 224.943 -5.79297 c 2,30,-1
 44.9443 -5.79199 l 1,31,-1
 43.208 4.05566 l 1,32,-1
 43.208 642.056 l 1,33,-1
 53.0557 643.793 l 1,0,-1
224.057 379.792 m 2,34,35
 252.129 379.792 252.129 379.792 275.498 383.361 c 1,36,37
 365.208 401.01 365.208 401.01 365.208 479.056 c 0,38,39
 365.208 486.288 365.208 486.288 364.334 493.357 c 0,40,41
 357.393 523.213 357.393 523.213 332.944 543.708 c 0,42,43
 298.944 572.208 298.944 572.208 226.944 572.208 c 2,44,-1
 125.793 572.208 l 1,45,-1
 125.792 379.792 l 1,46,-1
 224.057 379.792 l 2,34,35
246.056 67.792 m 2,47,48
 270.258 67.792 270.258 67.792 290.557 70.9014 c 1,49,50
 387.006 90.5331 387.006 90.5331 386.208 187.056 c 0,51,52
 386.208 199.745 386.208 199.745 384.576 211.415 c 0,53,54
 363.944 307.208 363.944 307.208 219.944 307.208 c 2,55,-1
 125.793 307.208 l 1,56,-1
 125.792 67.793 l 1,57,-1
 246.056 67.792 l 2,47,48
EndSplineSet
Validated: 33
EndChar

StartChar: C
Encoding: 67 67 32
Width: 512
GlyphClass: 2
Flags: W
AnchorPoint: "Anchor-8" 0 0 basechar 0
AnchorPoint: "Anchor-7" 0 0 basechar 0
AnchorPoint: "Anchor-6" 276 638 basechar 0
AnchorPoint: "Anchor-5" 0 0 basechar 0
AnchorPoint: "Anchor-4" 287 0 basechar 0
LayerCount: 2
Fore
SplineSet
355.708 76.0566 m 0,0,1
 390.208 97.0552 390.208 97.0552 412.207 133.056 c 1,2,-1
 422.056 134.792 l 1,3,-1
 475.056 99.792 l 1,4,-1
 476.792 89.9434 l 1,5,6
 444.792 37.9443 444.792 37.9443 401.793 11.9443 c 0,7,8
 374.819 -4.36523 374.819 -4.36523 340.765 -10.4434 c 2,9,-1
 330.916 -12.1807 l 1,10,-1
 329.987 -12.3433 l 2,11,12
 329.428 -12.4336 329.428 -12.4336 329.428 -12.4346 c 128,-1,13
 329.428 -12.4355 329.428 -12.4355 328.936 -12.5244 c 0,14,15
 309.572 -15.7925 309.572 -15.7925 287.944 -15.793 c 0,16,17
 215.944 -15.7915 215.944 -15.7915 160.444 19.207 c 128,-1,18
 104.943 54.208 104.943 54.208 71.4443 127.208 c 0,19,20
 54.1592 164.872 54.1592 164.872 45.793 212.121 c 2,21,-1
 43.7998 223.433 l 2,22,23
 36.208 267.452 36.208 267.452 36.208 319.056 c 0,24,25
 36.208 437.056 36.208 437.056 72.207 510.556 c 128,-1,26
 108.207 584.056 108.207 584.056 163.207 615.556 c 0,27,28
 199.438 636.305 199.438 636.305 239.573 643.387 c 2,29,-1
 249.422 645.123 l 1,30,-1
 250.875 645.376 l 2,31,32
 271.226 648.792 271.226 648.792 292.056 648.792 c 0,33,34
 360.057 648.792 360.057 648.792 409.556 614.793 c 128,-1,35
 459.056 580.792 459.056 580.792 484.056 522.793 c 1,36,-1
 485.792 512.944 l 1,37,-1
 424.793 483.943 l 1,38,-1
 414.944 482.207 l 2,39,40
 413.944 482.207 413.944 482.207 413.944 482.708 c 1,41,-1
 413.771 483.551 l 1,42,43
 386.612 536.43 386.612 536.43 354.444 558.208 c 0,44,45
 321.942 580.207 321.942 580.207 281.944 580.207 c 0,46,47
 269.439 580.207 269.439 580.207 257.887 578.546 c 0,48,49
 200.459 566.276 200.459 566.276 164.292 511.444 c 0,50,51
 117.792 440.944 117.792 440.944 117.792 316.944 c 0,52,53
 117.792 278.537 117.792 278.537 123.405 243.906 c 0,54,55
 129.275 213.199 129.275 213.199 139.556 186.292 c 0,56,57
 163.056 124.792 163.056 124.792 203.556 90.792 c 128,-1,58
 244.056 56.793 244.056 56.793 293.056 56.792 c 0,59,60
 301.938 56.792 301.938 56.792 311.313 58.0303 c 0,61,62
 334.201 62.9647 334.201 62.9647 355.708 76.0566 c 0,0,1
413.056 499.792 m 2,63,64
 415.055 499.792 415.055 499.792 421.056 492.793 c 1,65,-1
 422.792 482.944 l 1,66,-1
 415.792 479.944 l 1,67,-1
 405.943 478.208 l 1,68,-1
 402.944 486.208 l 1,69,-1
 401.208 496.056 l 1,70,-1
 403.208 498.056 l 1,71,-1
 413.056 499.792 l 2,63,64
411.208 491.056 m 1,72,-1
 413.208 492.056 l 1,73,-1
 423.056 493.792 l 1,74,75
 424.51 490.52 424.51 490.52 424.643 489.494 c 2,76,-1
 426.379 479.646 l 1,77,-1
 426.291 479.194 l 1,78,-1
 416.444 477.458 l 2,79,80
 415.4 477.934 415.4 477.934 412.944 481.208 c 1,81,-1
 411.208 491.056 l 1,72,-1
EndSplineSet
Validated: 5
EndChar

StartChar: Ccedilla
Encoding: 199 199 35
Width: 512
GlyphClass: 2
Flags: W
AnchorPoint: "Anchor-8" 0 0 basechar 0
AnchorPoint: "Anchor-7" 0 0 basechar 0
AnchorPoint: "Anchor-6" 276 638 basechar 0
AnchorPoint: "Anchor-5" 0 0 basechar 0
AnchorPoint: "Anchor-4" 287 -181 basechar 0
LayerCount: 2
Fore
SplineSet
361.5 72 m 128,-1,1
 396 93 396 93 418 129 c 1,2,-1
 471 94 l 1,3,4
 443 48 443 48 407 22.5 c 128,-1,5
 371 -3 371 -3 321 -9 c 1,6,-1
 315 -48 l 1,7,8
 358 -52 358 -52 380 -71 c 128,-1,9
 402 -90 402 -90 402 -115 c 0,10,11
 402 -152 402 -152 371.5 -177 c 128,-1,12
 341 -202 341 -202 284 -202 c 0,13,14
 230 -202 230 -202 182 -170 c 1,15,-1
 208 -127 l 1,16,17
 247 -158 247 -158 297 -158 c 0,18,19
 348 -158 348 -158 348 -121 c 0,20,21
 348 -105 348 -105 334.5 -96 c 128,-1,22
 321 -87 321 -87 296 -87 c 2,23,-1
 265 -87 l 1,24,-1
 275 -10 l 1,25,26
 171 -4 171 -4 107 78 c 128,-1,27
 43 160 43 160 42 315 c 0,28,29
 42 433 42 433 78 506.5 c 128,-1,30
 114 580 114 580 169 611.5 c 128,-1,31
 224 643 224 643 288 643 c 0,32,33
 356 643 356 643 405.5 609 c 128,-1,34
 455 575 455 575 480 517 c 1,35,-1
 419 488 l 2,36,37
 418 488 418 488 418 488.5 c 0,38,-1
 418 489 l 1,39,40
 391 542 391 542 358.5 564 c 128,-1,41
 326 586 326 586 286 586 c 0,42,43
 205 586 205 586 158.5 515.5 c 128,-1,44
 112 445 112 445 112 321 c 0,45,46
 112 242 112 242 135.5 180.5 c 128,-1,47
 159 119 159 119 199.5 85 c 128,-1,48
 240 51 240 51 289 51 c 0,49,0
 327 51 327 51 361.5 72 c 128,-1,1
409 494 m 1,50,51
 411 494 411 494 417 487 c 1,52,-1
 410 484 l 1,53,-1
 407 492 l 1,54,-1
 409 494 l 1,50,51
417 487 m 1,55,-1
 419 488 l 1,56,57
 423 479 423 479 417 487 c 1,55,-1
EndSplineSet
Validated: 5
EndChar

StartChar: uni1E08
Encoding: 7688 7688 36
Width: 512
GlyphClass: 2
Flags: W
AnchorPoint: "Anchor-8" 0 0 basechar 0
AnchorPoint: "Anchor-7" 0 0 basechar 0
AnchorPoint: "Anchor-6" 276 759 basechar 0
AnchorPoint: "Anchor-5" 0 0 basechar 0
AnchorPoint: "Anchor-4" 287 -181 basechar 0
LayerCount: 2
Fore
SplineSet
375 738 m 1,0,-1
 202 676 l 1,1,-1
 178 719 l 1,2,-1
 334 810 l 1,3,-1
 375 738 l 1,0,-1
361.5 72 m 128,-1,5
 396 93 396 93 418 129 c 1,6,-1
 471 94 l 1,7,8
 443 48 443 48 407 22.5 c 128,-1,9
 371 -3 371 -3 321 -9 c 1,10,-1
 315 -48 l 1,11,12
 358 -52 358 -52 380 -71 c 128,-1,13
 402 -90 402 -90 402 -115 c 0,14,15
 402 -152 402 -152 371.5 -177 c 128,-1,16
 341 -202 341 -202 284 -202 c 0,17,18
 230 -202 230 -202 182 -170 c 1,19,-1
 208 -127 l 1,20,21
 247 -158 247 -158 297 -158 c 0,22,23
 348 -158 348 -158 348 -121 c 0,24,25
 348 -105 348 -105 334.5 -96 c 128,-1,26
 321 -87 321 -87 296 -87 c 2,27,-1
 265 -87 l 1,28,-1
 275 -10 l 1,29,30
 171 -4 171 -4 107 78 c 128,-1,31
 43 160 43 160 42 315 c 0,32,33
 42 433 42 433 78 506.5 c 128,-1,34
 114 580 114 580 169 611.5 c 128,-1,35
 224 643 224 643 288 643 c 0,36,37
 356 643 356 643 405.5 609 c 128,-1,38
 455 575 455 575 480 517 c 1,39,-1
 419 488 l 2,40,41
 418 488 418 488 418 488.5 c 0,42,-1
 418 489 l 1,43,44
 391 542 391 542 358.5 564 c 128,-1,45
 326 586 326 586 286 586 c 0,46,47
 205 586 205 586 158.5 515.5 c 128,-1,48
 112 445 112 445 112 321 c 0,49,50
 112 242 112 242 135.5 180.5 c 128,-1,51
 159 119 159 119 199.5 85 c 128,-1,52
 240 51 240 51 289 51 c 0,53,4
 327 51 327 51 361.5 72 c 128,-1,5
409 494 m 1,54,55
 411 494 411 494 417 487 c 1,56,-1
 410 484 l 1,57,-1
 407 492 l 1,58,-1
 409 494 l 1,54,55
417 487 m 1,59,-1
 419 488 l 1,60,61
 423 479 423 479 417 487 c 1,59,-1
EndSplineSet
Validated: 5
EndChar

StartChar: D
Encoding: 68 68 39
Width: 512
GlyphClass: 2
Flags: W
AnchorPoint: "Anchor-8" 0 0 basechar 0
AnchorPoint: "Anchor-7" 256 319 basechar 0
AnchorPoint: "Anchor-6" 225 638 basechar 0
AnchorPoint: "Anchor-5" 0 0 basechar 0
AnchorPoint: "Anchor-4" 256 0 basechar 0
LayerCount: 2
Fore
SplineSet
59.0557 643.793 m 1,0,-1
 208.056 643.792 l 2,1,2
 287.056 643.792 287.056 643.792 333.056 622.792 c 128,-1,3
 379.056 601.792 379.056 601.792 413.056 556.793 c 0,4,5
 452.601 503.218 452.601 503.218 466.922 421.981 c 2,6,-1
 468.658 412.134 l 2,7,8
 476.794 366 476.794 366 476.793 310.944 c 1,9,10
 470.793 155.945 470.793 155.945 405.292 74.9443 c 0,11,12
 357.852 16.2773 357.852 16.2773 269.757 0.626953 c 2,13,-1
 259.908 -1.10938 l 1,14,-1
 258.962 -1.27558 l 2,15,16
 258.886 -1.28606 258.886 -1.28606 257.901 -1.45996 c 0,17,18
 225.194 -7.06006 225.194 -7.06006 186.944 -6.79199 c 2,19,-1
 50.9443 -6.79199 l 1,20,-1
 49.208 3.05664 l 1,21,-1
 49.208 642.056 l 1,22,-1
 59.0557 643.793 l 1,0,-1
192.056 60.792 m 2,23,24
 215.913 60.792 215.913 60.792 237.261 64.0938 c 0,25,26
 393.209 95.3839 393.209 95.3839 393.208 315.056 c 0,27,28
 392.848 361.878 392.848 361.878 386.44 401.215 c 0,29,30
 374.788 463.127 374.788 463.127 346.944 503.707 c 0,31,32
 299.943 572.208 299.943 572.208 195.944 572.208 c 2,33,-1
 128.792 572.208 l 1,34,-1
 128.792 60.792 l 1,35,-1
 192.056 60.792 l 2,23,24
EndSplineSet
Validated: 33
EndChar

StartChar: Eth
Encoding: 208 208 40
Width: 512
GlyphClass: 2
Flags: W
LayerCount: 2
Fore
SplineSet
81 308 m 1,0,-1
 31 308 l 1,1,-1
 31 368 l 1,2,-1
 81 368 l 1,3,-1
 81 638 l 1,4,-1
 223 638 l 2,5,6
 354 638 354 638 415.5 552 c 128,-1,7
 477 466 477 466 477 313 c 0,8,9
 477 218 477 218 436.5 134 c 128,-1,10
 396 50 396 50 327 18 c 1,11,12
 288 -1 288 -1 211 -1 c 2,13,-1
 81 -1 l 1,14,-1
 81 308 l 1,0,-1
208 58 m 2,15,16
 305 58 305 58 357 124.5 c 128,-1,17
 409 191 409 191 409 313 c 0,18,19
 409 440 409 440 362 509 c 128,-1,20
 315 578 315 578 219 578 c 2,21,-1
 146 578 l 1,22,-1
 146 368 l 1,23,-1
 254 368 l 1,24,-1
 254 308 l 1,25,-1
 146 308 l 1,26,-1
 146 58 l 1,27,-1
 208 58 l 2,15,16
EndSplineSet
Validated: 1
EndChar

StartChar: E
Encoding: 69 69 45
Width: 512
GlyphClass: 2
Flags: W
AnchorPoint: "Anchor-8" 0 0 basechar 0
AnchorPoint: "Anchor-7" 0 0 basechar 0
AnchorPoint: "Anchor-6" 276 638 basechar 0
AnchorPoint: "Anchor-5" 461 10 basechar 0
AnchorPoint: "Anchor-4" 256 0 basechar 0
LayerCount: 2
Fore
SplineSet
54.208 4.05566 m 1,0,-1
 54.208 643.056 l 1,1,-1
 64.0557 644.792 l 1,2,-1
 456.057 644.792 l 1,3,-1
 457.793 634.943 l 1,4,-1
 457.792 570.944 l 1,5,-1
 447.943 569.208 l 1,6,-1
 133.793 569.207 l 1,7,-1
 133.792 371.792 l 1,8,-1
 399.057 371.792 l 1,9,-1
 400.793 361.944 l 1,10,-1
 400.792 295.944 l 1,11,-1
 390.944 294.208 l 1,12,-1
 133.792 294.208 l 1,13,-1
 133.792 68.793 l 1,14,-1
 453.056 68.793 l 1,15,-1
 454.792 58.9443 l 1,16,-1
 454.792 -4.05566 l 1,17,-1
 444.944 -5.79199 l 1,18,-1
 55.9443 -5.79199 l 1,19,-1
 54.208 4.05566 l 1,0,-1
EndSplineSet
Validated: 1
EndChar

StartChar: uni01B8
Encoding: 440 440 68
Width: 512
GlyphClass: 2
Flags: W
LayerCount: 2
Fore
SplineSet
439 61 m 1,0,1
 372 -12 372 -12 274 -11 c 0,2,3
 209 -11 209 -11 164 14.5 c 128,-1,4
 119 40 119 40 96 82.5 c 128,-1,5
 73 125 73 125 73 176 c 0,6,7
 73 230 73 230 98 276.5 c 128,-1,8
 123 323 123 323 168 351 c 128,-1,9
 213 379 213 379 270 381 c 1,10,-1
 90 573 l 1,11,-1
 90 638 l 1,12,-1
 402 638 l 1,13,-1
 402 573 l 1,14,-1
 170 573 l 1,15,-1
 346 381 l 1,16,-1
 346 328 l 1,17,18
 252 333 252 333 199 297 c 128,-1,19
 146 261 146 261 146 181 c 0,20,21
 146 122 146 122 182 86 c 128,-1,22
 218 50 218 50 282 50 c 0,23,24
 340 50 340 50 368 82 c 0,25,26
 393 112 393 112 392 115 c 0,27,28
 392 116 392 116 388.5 115 c 128,-1,29
 385 114 385 114 384 118 c 1,30,-1
 388 123 l 1,31,-1
 396 117 l 1,32,-1
 439 61 l 1,0,1
EndSplineSet
Validated: 33
EndChar

StartChar: F
Encoding: 70 70 69
Width: 512
GlyphClass: 2
Flags: W
AnchorPoint: "Anchor-8" 0 0 basechar 0
AnchorPoint: "Anchor-7" 0 0 basechar 0
AnchorPoint: "Anchor-6" 256 638 basechar 0
AnchorPoint: "Anchor-5" 0 0 basechar 0
AnchorPoint: "Anchor-4" 256 0 basechar 0
LayerCount: 2
Fore
SplineSet
74.207 4.05566 m 1,0,-1
 74.208 643.056 l 1,1,-1
 84.0557 644.792 l 1,2,-1
 451.056 644.793 l 1,3,-1
 452.792 634.944 l 1,4,-1
 452.793 572.944 l 1,5,-1
 442.944 571.208 l 1,6,-1
 157.792 571.208 l 1,7,-1
 157.792 381.793 l 1,8,-1
 394.057 381.792 l 1,9,-1
 395.793 371.943 l 1,10,-1
 395.792 308.944 l 1,11,-1
 385.944 307.208 l 1,12,-1
 157.793 307.208 l 1,13,-1
 157.792 -4.05566 l 1,14,-1
 147.943 -5.79199 l 1,15,-1
 75.9434 -5.79199 l 1,16,-1
 74.207 4.05566 l 1,0,-1
EndSplineSet
Validated: 1
EndChar

StartChar: G
Encoding: 71 71 70
Width: 512
GlyphClass: 2
Flags: W
AnchorPoint: "Anchor-8" 0 0 basechar 0
AnchorPoint: "Anchor-7" 0 0 basechar 0
AnchorPoint: "Anchor-6" 281 638 basechar 0
AnchorPoint: "Anchor-5" 0 0 basechar 0
AnchorPoint: "Anchor-4" 272 0 basechar 0
LayerCount: 2
Fore
SplineSet
476.792 301.943 m 1,0,-1
 476.792 51.9443 l 1,1,2
 409.531 2.42236 409.531 2.42236 339.539 -9.9502 c 2,3,-1
 329.69 -11.6865 l 1,4,-1
 328.317 -11.9258 l 2,5,6
 304.063 -16.0437 304.063 -16.0437 279.944 -15.792 c 0,7,8
 203.944 -15.792 203.944 -15.792 147.944 24.207 c 128,-1,9
 91.9448 64.2075 91.9448 64.2075 62.4443 136.707 c 0,10,11
 47.7798 172.748 47.7798 172.748 40.4043 214.596 c 2,12,-1
 38.668 224.444 l 2,13,14
 31.2075 266.778 31.2075 266.778 31.208 315.056 c 0,15,16
 30.2075 442.056 30.2075 442.056 68.207 516.556 c 128,-1,17
 106.208 591.056 106.208 591.056 161.207 620.056 c 0,18,19
 197.559 639.223 197.559 639.223 234.794 645.724 c 2,20,-1
 244.642 647.46 l 2,21,22
 263.734 650.792 263.734 650.792 283.056 650.792 c 0,23,24
 340.056 650.792 340.056 650.792 393.056 621.292 c 128,-1,25
 446.057 591.792 446.057 591.792 473.056 543.793 c 1,26,-1
 474.793 533.944 l 1,27,-1
 424.792 493.944 l 1,28,-1
 423.793 492.944 l 1,29,-1
 413.944 491.207 l 1,30,31
 378.945 537.208 378.945 537.208 349.444 556.707 c 128,-1,32
 319.944 576.208 319.944 576.208 275.944 576.208 c 0,33,34
 262.607 576.208 262.607 576.208 249.887 574.385 c 0,35,36
 197.075 563.266 197.075 563.266 161.293 518.444 c 0,37,38
 113.792 458.945 113.792 458.945 113.793 322.944 c 0,39,40
 113.793 272.746 113.793 272.746 120.588 231.481 c 1,41,42
 132.047 171.054 132.047 171.054 158.557 130.293 c 0,43,44
 205.055 58.7925 205.055 58.7925 288.056 58.792 c 0,45,46
 303.326 58.7935 303.326 58.7935 319.416 61.252 c 0,47,48
 330.856 63.5174 330.856 63.5174 342.708 67.0557 c 0,49,50
 376.208 77.0562 376.208 77.0562 398.208 96.0557 c 1,51,-1
 398.208 238.208 l 1,52,-1
 284.944 238.207 l 1,53,-1
 283.208 248.056 l 1,54,-1
 283.208 310.056 l 1,55,-1
 293.056 311.793 l 1,56,-1
 475.056 311.792 l 1,57,-1
 476.792 301.943 l 1,0,-1
421.792 491.943 m 1,58,-1
 416.792 485.944 l 1,59,-1
 406.944 484.208 l 1,60,-1
 402.944 491.207 l 1,61,-1
 401.208 501.056 l 2,62,63
 401.208 503.681 401.208 503.681 402.931 503.817 c 2,64,-1
 412.778 505.554 l 2,65,66
 414.993 505.729 414.993 505.729 420.056 501.792 c 1,67,-1
 421.792 491.943 l 1,58,-1
410.208 500.056 m 1,68,-1
 412.208 501.056 l 1,69,-1
 422.057 502.792 l 1,70,71
 423.898 500.214 423.898 500.214 424.11 499.398 c 2,72,-1
 425.848 489.551 l 1,73,-1
 425.873 489.273 l 1,74,-1
 415.883 487.44 l 2,75,76
 415.26 487.366 415.26 487.366 411.944 490.207 c 1,77,-1
 410.208 500.056 l 1,68,-1
EndSplineSet
Validated: 37
EndChar

StartChar: H
Encoding: 72 72 77
Width: 512
GlyphClass: 2
Flags: W
AnchorPoint: "Anchor-8" 0 0 basechar 0
AnchorPoint: "Anchor-7" 256 319 basechar 0
AnchorPoint: "Anchor-6" 256 638 basechar 0
AnchorPoint: "Anchor-5" 0 0 basechar 0
AnchorPoint: "Anchor-4" 256 0 basechar 0
LayerCount: 2
Fore
SplineSet
55.0557 643.792 m 1,0,-1
 139.056 643.793 l 1,1,-1
 140.792 633.944 l 1,2,-1
 140.793 626.943 l 1,3,4
 134.792 620.945 134.792 620.945 133.293 613.444 c 128,-1,5
 131.792 605.944 131.792 605.944 131.793 588.944 c 2,6,-1
 131.792 371.792 l 1,7,-1
 370.208 371.792 l 1,8,-1
 370.208 642.056 l 1,9,-1
 380.056 643.792 l 1,10,-1
 464.056 643.792 l 1,11,-1
 465.792 633.943 l 1,12,-1
 465.793 626.944 l 1,13,14
 459.792 620.944 459.792 620.944 458.293 613.444 c 128,-1,15
 456.792 605.944 456.792 605.944 456.793 588.944 c 2,16,-1
 456.792 -4.05566 l 1,17,-1
 446.944 -5.79199 l 1,18,-1
 370.944 -5.79199 l 1,19,-1
 369.208 4.05566 l 1,20,-1
 369.207 298.208 l 1,21,-1
 131.792 298.208 l 1,22,-1
 131.793 -4.05566 l 1,23,-1
 121.944 -5.79199 l 1,24,-1
 46.9443 -5.79297 l 1,25,-1
 45.208 4.05566 l 1,26,-1
 45.208 642.056 l 1,27,-1
 55.0557 643.792 l 1,0,-1
EndSplineSet
Validated: 1
EndChar

StartChar: Hbar
Encoding: 294 294 78
Width: 512
GlyphClass: 2
Flags: W
AnchorPoint: "Anchor-8" 0 0 basechar 0
AnchorPoint: "Anchor-7" 256 319 basechar 0
AnchorPoint: "Anchor-6" 256 638 basechar 0
AnchorPoint: "Anchor-5" 0 0 basechar 0
AnchorPoint: "Anchor-4" 256 0 basechar 0
LayerCount: 2
Fore
SplineSet
460 631 m 1,0,1
 454 625 454 625 452.5 617.5 c 128,-1,2
 451 610 451 610 451 593 c 2,3,-1
 451 0 l 1,4,-1
 375 0 l 1,5,-1
 375 285 l 1,6,-1
 126 285 l 1,7,-1
 126 0 l 1,8,-1
 51 0 l 1,9,-1
 51 638 l 1,10,-1
 135 638 l 1,11,-1
 135 631 l 1,12,13
 129 625 129 625 127.5 617.5 c 128,-1,14
 126 610 126 610 126 593 c 2,15,-1
 126 366 l 1,16,-1
 376 366 l 1,17,-1
 376 638 l 1,18,-1
 460 638 l 1,19,-1
 460 631 l 1,0,1
EndSplineSet
Validated: 1
EndChar

StartChar: I
Encoding: 73 73 82
Width: 512
GlyphClass: 2
Flags: W
AnchorPoint: "Anchor-8" 0 0 basechar 0
AnchorPoint: "Anchor-7" 0 0 basechar 0
AnchorPoint: "Anchor-6" 245 638 basechar 0
AnchorPoint: "Anchor-5" 361 0 basechar 0
AnchorPoint: "Anchor-4" 256 0 basechar 0
LayerCount: 2
Fore
SplineSet
77.208 4.05566 m 1,0,-1
 77.208 64.0557 l 1,1,-1
 87.0557 65.792 l 1,2,-1
 203.208 65.792 l 1,3,-1
 203.208 572.208 l 1,4,-1
 85.9434 572.208 l 1,5,-1
 84.207 582.056 l 1,6,-1
 84.207 642.056 l 1,7,-1
 94.0557 643.792 l 1,8,-1
 411.056 643.793 l 1,9,-1
 412.792 633.944 l 1,10,-1
 412.792 573.944 l 1,11,-1
 402.944 572.208 l 1,12,-1
 286.792 572.208 l 1,13,-1
 286.793 64.792 l 1,14,-1
 417.056 64.792 l 1,15,-1
 418.792 54.9443 l 1,16,-1
 418.792 -4.05566 l 1,17,-1
 408.944 -5.79199 l 1,18,-1
 78.9443 -5.79297 l 1,19,-1
 77.208 4.05566 l 1,0,-1
EndSplineSet
Validated: 1
EndChar

StartChar: Iogonek
Encoding: 302 302 95
Width: 512
GlyphClass: 2
Flags: W
AnchorPoint: "Anchor-8" 0 0 basechar 0
AnchorPoint: "Anchor-7" 0 0 basechar 0
AnchorPoint: "Anchor-6" 245 638 basechar 0
AnchorPoint: "Anchor-5" 361 0 basechar 0
AnchorPoint: "Anchor-4" 256 0 basechar 0
LayerCount: 2
Fore
SplineSet
351.5 -64.5 m 128,-1,1
 329 -98 329 -98 329 -126 c 0,2,3
 329 -149 329 -149 344.5 -164 c 128,-1,4
 360 -179 360 -179 392 -183 c 1,5,-1
 376 -232 l 1,6,7
 324 -225 324 -225 292.5 -201.5 c 128,-1,8
 261 -178 261 -178 261 -140 c 0,9,10
 261 -104 261 -104 285.5 -68.5 c 128,-1,11
 310 -33 310 -33 357 0 c 1,12,-1
 83 0 l 1,13,-1
 83 60 l 1,14,-1
 209 60 l 1,15,-1
 209 578 l 1,16,-1
 90 578 l 1,17,-1
 90 638 l 1,18,-1
 407 638 l 1,19,-1
 407 578 l 1,20,-1
 281 578 l 1,21,-1
 281 59 l 1,22,-1
 413 59 l 1,23,-1
 413 0 l 1,24,0
 374 -31 374 -31 351.5 -64.5 c 128,-1,1
EndSplineSet
Validated: 1
EndChar

StartChar: J
Encoding: 74 74 97
Width: 512
GlyphClass: 2
Flags: W
AnchorPoint: "Anchor-8" 0 0 basechar 0
AnchorPoint: "Anchor-7" 0 0 basechar 0
AnchorPoint: "Anchor-6" 338 638 basechar 0
AnchorPoint: "Anchor-5" 0 0 basechar 0
AnchorPoint: "Anchor-4" 256 0 basechar 0
LayerCount: 2
Fore
SplineSet
375.792 572.207 m 1,0,-1
 375.792 209.944 l 1,1,2
 377.792 131.944 377.792 131.944 355.292 81.9443 c 128,-1,3
 332.792 31.9448 332.792 31.9448 294.293 8.44434 c 0,4,5
 268.485 -7.30859 268.485 -7.30859 238.857 -12.502 c 2,6,-1
 229.01 -14.2383 l 2,7,8
 214.436 -16.792 214.436 -16.792 198.944 -16.792 c 0,9,10
 104.944 -16.792 104.944 -16.792 45.9443 53.207 c 1,11,-1
 44.207 63.0557 l 1,12,-1
 85.208 115.056 l 1,13,-1
 86.207 116.057 l 1,14,-1
 96.0557 117.793 l 1,15,-1
 97.0557 116.792 l 1,16,17
 126.055 85.793 126.055 85.793 150.057 71.792 c 128,-1,18
 174.057 57.7925 174.057 57.7925 205.056 57.792 c 0,19,20
 213.447 57.792 213.447 57.792 221.556 58.8018 c 0,21,22
 253.636 66.2591 253.636 66.2591 270.208 92.5557 c 0,23,24
 293.208 129.055 293.208 129.055 293.208 217.056 c 2,25,-1
 293.208 572.207 l 1,26,-1
 171.943 572.208 l 1,27,-1
 170.207 582.056 l 1,28,-1
 170.207 642.056 l 1,29,-1
 180.056 643.792 l 1,30,-1
 472.056 643.792 l 1,31,-1
 473.792 633.944 l 1,32,-1
 473.792 573.943 l 1,33,-1
 463.944 572.207 l 1,34,-1
 375.792 572.207 l 1,0,-1
95.9443 105.708 m 0,35,36
 92.9463 106.207 92.9463 106.207 89.9443 108.208 c 1,37,-1
 88.208 118.056 l 1,38,-1
 92.207 123.056 l 1,39,-1
 102.056 124.792 l 1,40,-1
 107.056 120.792 l 1,41,-1
 108.792 110.944 l 2,42,43
 108.792 107.61 108.792 107.61 106.709 107.402 c 2,44,-1
 96.8613 105.666 l 2,45,46
 96.4446 105.624 96.4446 105.624 95.9443 105.708 c 0,35,36
94.0566 121.792 m 0,47,48
 97.0559 120.793 97.0559 120.793 98.0557 119.793 c 2,49,-1
 99.793 109.944 l 1,50,-1
 97.792 107.944 l 1,51,-1
 87.9443 106.208 l 1,52,53
 85.1655 108.985 85.1655 108.985 84.8574 109.911 c 2,54,-1
 83.1211 119.76 l 1,55,-1
 93.1182 121.94 l 2,56,57
 93.1202 121.941 93.1202 121.941 94.0566 121.792 c 0,47,48
EndSplineSet
Validated: 37
EndChar

StartChar: K
Encoding: 75 75 99
Width: 512
GlyphClass: 2
Flags: W
LayerCount: 2
Fore
SplineSet
169.486 308.008 m 1,0,-1
 125.793 259.944 l 1,1,-1
 125.792 -4.05566 l 1,2,-1
 115.944 -5.79199 l 1,3,-1
 38.9443 -5.79199 l 1,4,-1
 37.208 4.05566 l 1,5,-1
 37.208 642.057 l 1,6,-1
 47.0566 643.793 l 1,7,-1
 133.057 643.792 l 1,8,-1
 134.793 633.943 l 1,9,-1
 134.792 626.943 l 1,10,11
 128.792 620.945 128.792 620.945 127.292 613.444 c 128,-1,12
 125.793 605.952 125.793 605.952 125.792 588.943 c 2,13,-1
 125.792 361.078 l 1,14,-1
 380.208 647.056 l 1,15,-1
 390.057 648.792 l 1,16,17
 416.055 643.793 416.055 643.793 443.056 643.794 c 2,18,-1
 470.056 643.793 l 1,19,-1
 471.792 633.944 l 1,20,-1
 232.706 361.268 l 1,21,-1
 486.057 5.79297 l 1,22,-1
 487.793 -4.05566 l 1,23,-1
 477.944 -5.79199 l 1,24,-1
 385.944 -9.79199 l 1,25,-1
 169.486 308.008 l 1,0,-1
EndSplineSet
Validated: 33
EndChar

StartChar: uni0198
Encoding: 408 408 101
Width: 512
GlyphClass: 2
Flags: W
LayerCount: 2
Fore
SplineSet
476 564 m 1,0,-1
 476 563 l 1,1,2
 465 566 465 566 455 567.5 c 128,-1,3
 445 569 445 569 428 569 c 0,4,5
 397 569 397 569 348.5 532.5 c 128,-1,6
 300 496 300 496 213 379 c 1,7,-1
 482 0 l 1,8,-1
 390 -4 l 1,9,-1
 170 318 l 1,10,-1
 120 244 l 1,11,-1
 120 0 l 1,12,-1
 43 0 l 1,13,-1
 43 638 l 1,14,-1
 129 638 l 1,15,-1
 129 631 l 1,16,17
 123 625 123 625 121.5 617.5 c 128,-1,18
 120 610 120 610 120 593 c 2,19,-1
 120 334 l 1,20,21
 214 499 214 499 293 570.5 c 128,-1,22
 372 642 372 642 441 642 c 0,23,24
 461 642 461 642 477 638 c 1,25,-1
 476 564 l 1,0,-1
481 561 m 128,-1,27
 481 560 481 560 479 559.5 c 128,-1,28
 477 559 477 559 476 559 c 1,29,-1
 476 563 l 1,30,26
 481 562 481 562 481 561 c 128,-1,27
468 556 m 1,31,32
 468 559 468 559 476 559 c 1,33,-1
 476 554 l 1,34,-1
 469 554 l 1,35,-1
 468 556 l 1,31,32
EndSplineSet
Validated: 5
EndChar

StartChar: L
Encoding: 76 76 102
Width: 512
GlyphClass: 2
Flags: W
AnchorPoint: "Anchor-8" 184 468 basechar 0
AnchorPoint: "Anchor-7" 110 319 basechar 0
AnchorPoint: "Anchor-6" 205 638 basechar 0
AnchorPoint: "Anchor-5" 0 0 basechar 0
AnchorPoint: "Anchor-4" 256 0 basechar 0
LayerCount: 2
Fore
SplineSet
72.0566 643.792 m 1,0,-1
 156.056 643.793 l 1,1,-1
 157.792 633.944 l 1,2,-1
 157.792 626.944 l 1,3,4
 151.793 620.944 151.793 620.944 149.792 613.444 c 128,-1,5
 147.792 605.943 147.792 605.943 147.793 588.944 c 2,6,-1
 147.793 66.792 l 1,7,-1
 454.056 66.792 l 1,8,-1
 455.792 56.9443 l 1,9,-1
 455.792 -4.05566 l 1,10,-1
 445.943 -5.79199 l 1,11,-1
 63.9443 -5.79199 l 1,12,-1
 62.207 4.05664 l 1,13,-1
 62.208 642.056 l 1,14,-1
 72.0566 643.792 l 1,0,-1
EndSplineSet
Validated: 1
EndChar

StartChar: uni01C7
Encoding: 455 455 103
Width: 512
GlyphClass: 2
Flags: W
LayerCount: 2
Fore
SplineSet
68 638 m 1,0,-1
 152 638 l 1,1,2
 152 631 152 631 147 620 c 128,-1,3
 142 609 142 609 142 603 c 2,4,-1
 142 62 l 1,5,-1
 316 62 l 1,6,-1
 316 0 l 1,7,-1
 68 0 l 1,8,-1
 68 638 l 1,0,-1
142 -84 m 1,10,-1
 190 -26 l 1,11,12
 196 -31 196 -31 200 -41.5 c 128,-1,13
 204 -52 204 -52 210 -58 c 1,14,15
 219 -70 219 -70 241.5 -80.5 c 128,-1,16
 264 -91 264 -91 292 -91 c 0,17,18
 342 -91 342 -91 366.5 -53.5 c 128,-1,19
 391 -16 391 -16 391 70 c 2,20,-1
 391 578 l 1,21,-1
 258 578 l 1,22,-1
 258 638 l 1,23,-1
 462 638 l 1,24,-1
 462 71 l 1,25,26
 465 -44 465 -44 416.5 -99.5 c 128,-1,27
 368 -155 368 -155 293 -155 c 0,28,9
 202 -155 202 -155 142 -84 c 1,10,-1
EndSplineSet
Validated: 33
EndChar

StartChar: Lcaron
Encoding: 317 317 105
Width: 512
GlyphClass: 2
Flags: W
AnchorPoint: "Anchor-8" 184 468 basechar 0
AnchorPoint: "Anchor-7" 110 319 basechar 0
AnchorPoint: "Anchor-6" 205 638 basechar 0
AnchorPoint: "Anchor-5" 0 0 basechar 0
AnchorPoint: "Anchor-4" 256 0 basechar 0
LayerCount: 2
Fore
SplineSet
318 445 m 1,0,1
 342 465 342 465 357 490.5 c 128,-1,2
 372 516 372 516 372 531 c 0,3,4
 372 542 372 542 352 560 c 1,5,6
 329 578 329 578 330 595 c 0,7,8
 330 615 330 615 343.5 629 c 128,-1,9
 357 643 357 643 379 643 c 0,10,11
 402 643 402 643 418 623.5 c 128,-1,12
 434 604 434 604 434 575 c 0,13,14
 434 507 434 507 347 421 c 1,15,-1
 318 445 l 1,0,1
68 638 m 1,16,-1
 152 638 l 1,17,-1
 152 631 l 1,18,19
 146 625 146 625 144 617.5 c 128,-1,20
 142 610 142 610 142 593 c 2,21,-1
 142 61 l 1,22,-1
 450 61 l 1,23,-1
 450 0 l 1,24,-1
 68 0 l 1,25,-1
 68 638 l 1,16,-1
EndSplineSet
Validated: 33
EndChar

StartChar: uni01C8
Encoding: 456 456 109
Width: 512
GlyphClass: 2
Flags: W
LayerCount: 2
Fore
SplineSet
355.5 580.5 m 128,-1,1
 340 596 340 596 340 617 c 0,2,3
 340 640 340 640 355 655.5 c 128,-1,4
 370 671 370 671 392 671 c 256,5,6
 414 671 414 671 429.5 655 c 128,-1,7
 445 639 445 639 445 617 c 256,8,9
 445 595 445 595 429.5 580 c 128,-1,10
 414 565 414 565 392 565 c 256,11,0
 371 565 371 565 355.5 580.5 c 128,-1,1
68 638 m 1,12,-1
 152 638 l 1,13,14
 152 631 152 631 147 620 c 128,-1,15
 142 609 142 609 142 603 c 2,16,-1
 142 62 l 1,17,-1
 306 62 l 1,18,-1
 306 0 l 1,19,-1
 68 0 l 1,20,-1
 68 638 l 1,12,-1
111 -113 m 1,22,-1
 159 -49 l 1,23,24
 163 -53 163 -53 167 -64.5 c 128,-1,25
 171 -76 171 -76 179.5 -84.5 c 128,-1,26
 188 -93 188 -93 211 -103 c 0,27,28
 236 -114 236 -114 259 -115 c 0,29,30
 307 -115 307 -115 336 -82 c 128,-1,31
 365 -49 365 -49 365 18 c 2,32,-1
 365 408 l 1,33,-1
 221 408 l 1,34,-1
 221 468 l 1,35,-1
 439 468 l 1,36,-1
 439 23 l 2,37,38
 439 -77 439 -77 388.5 -125.5 c 128,-1,39
 338 -174 338 -174 254 -178 c 1,40,21
 164 -179 164 -179 111 -113 c 1,22,-1
EndSplineSet
Validated: 33
EndChar

StartChar: Lslash
Encoding: 321 321 111
Width: 512
GlyphClass: 2
Flags: W
LayerCount: 2
Fore
SplineSet
75 249 m 1,0,-1
 20 231 l 1,1,-1
 20 294 l 1,2,-1
 75 312 l 1,3,-1
 75 638 l 1,4,-1
 158 638 l 2,5,6
 160 638 160 638 160 636 c 256,7,8
 160 634 160 634 156 622.5 c 128,-1,9
 152 611 152 611 150 603 c 1,10,-1
 150 336 l 1,11,-1
 319 391 l 1,12,13
 341 399 341 399 345 401 c 1,14,-1
 345 336 l 1,15,-1
 150 273 l 1,16,-1
 150 61 l 1,17,-1
 457 61 l 1,18,-1
 457 -1 l 1,19,-1
 75 -1 l 1,20,-1
 75 249 l 1,0,-1
EndSplineSet
Validated: 1
EndChar

StartChar: M
Encoding: 77 77 112
Width: 512
GlyphClass: 2
Flags: W
AnchorPoint: "Anchor-8" 0 0 basechar 0
AnchorPoint: "Anchor-7" 0 0 basechar 0
AnchorPoint: "Anchor-6" 256 638 basechar 0
AnchorPoint: "Anchor-5" 0 0 basechar 0
AnchorPoint: "Anchor-4" 256 0 basechar 0
LayerCount: 2
Fore
SplineSet
36.208 4.05566 m 1,0,-1
 36.208 642.056 l 1,1,-1
 46.0557 643.792 l 1,2,-1
 102.056 643.793 l 1,3,-1
 255.613 340.565 l 1,4,-1
 411.208 643.056 l 1,5,-1
 421.056 644.792 l 1,6,-1
 475.056 644.792 l 1,7,-1
 476.792 634.944 l 1,8,-1
 476.793 -4.05566 l 1,9,-1
 466.944 -5.79199 l 1,10,-1
 398.944 -5.79199 l 1,11,-1
 397.208 4.05566 l 1,12,-1
 397.208 455.37 l 1,13,-1
 270.792 219.944 l 1,14,-1
 260.944 218.208 l 1,15,-1
 233.944 218.208 l 1,16,-1
 114.792 452.817 l 1,17,-1
 114.792 -4.05566 l 1,18,-1
 104.944 -5.79199 l 1,19,-1
 37.9443 -5.79199 l 1,20,-1
 36.208 4.05566 l 1,0,-1
EndSplineSet
Validated: 1
EndChar

StartChar: N
Encoding: 78 78 114
Width: 512
GlyphClass: 2
Flags: W
AnchorPoint: "Anchor-8" 0 0 basechar 0
AnchorPoint: "Anchor-7" 0 0 basechar 0
AnchorPoint: "Anchor-6" 256 638 basechar 0
AnchorPoint: "Anchor-5" 0 0 basechar 0
AnchorPoint: "Anchor-4" 256 0 basechar 0
LayerCount: 2
Fore
SplineSet
55.0557 643.792 m 1,0,-1
 125.056 643.792 l 1,1,-1
 383.208 188.174 l 1,2,-1
 383.208 642.056 l 1,3,-1
 393.056 643.792 l 1,4,-1
 471.056 643.792 l 1,5,-1
 472.792 633.944 l 1,6,-1
 472.793 626.944 l 1,7,8
 466.792 620.944 466.792 620.944 465.293 613.444 c 128,-1,9
 463.793 605.944 463.793 605.944 463.793 588.944 c 2,10,-1
 463.792 -4.05664 l 1,11,-1
 453.944 -5.79297 l 1,12,-1
 396.944 -5.79199 l 1,13,-1
 125.793 478.615 l 1,14,-1
 125.792 -4.05566 l 1,15,-1
 115.944 -5.79199 l 1,16,-1
 46.9443 -5.79297 l 1,17,-1
 45.208 4.05566 l 1,18,-1
 45.208 642.056 l 1,19,-1
 55.0557 643.792 l 1,0,-1
EndSplineSet
Validated: 1
EndChar

StartChar: Eng
Encoding: 330 330 120
Width: 512
GlyphClass: 2
Flags: W
AnchorPoint: "Anchor-8" 0 0 basechar 0
AnchorPoint: "Anchor-7" 0 0 basechar 0
AnchorPoint: "Anchor-6" 256 638 basechar 0
AnchorPoint: "Anchor-5" 0 0 basechar 0
AnchorPoint: "Anchor-4" 256 0 basechar 0
LayerCount: 2
Fore
SplineSet
465 638 m 1,0,1
 465 635 465 635 461.5 626.5 c 128,-1,2
 458 618 458 618 458 610 c 2,3,-1
 458 0 l 2,4,5
 458 -93 458 -93 416.5 -141 c 128,-1,6
 375 -189 375 -189 302 -189 c 0,7,8
 254 -189 254 -189 213 -164 c 1,9,-1
 249 -100 l 1,10,11
 255 -102 255 -102 262 -109.5 c 128,-1,12
 269 -117 269 -117 277.5 -121 c 128,-1,13
 286 -125 286 -125 305 -125 c 0,14,15
 351 -125 351 -125 369 -90.5 c 128,-1,16
 387 -56 387 -56 389 23 c 1,17,-1
 120 502 l 1,18,-1
 120 0 l 1,19,-1
 51 0 l 1,20,-1
 51 638 l 1,21,-1
 121 638 l 1,22,-1
 389 165 l 1,23,-1
 389 638 l 1,24,-1
 465 638 l 1,0,1
EndSplineSet
Validated: 1
EndChar

StartChar: O
Encoding: 79 79 123
Width: 512
GlyphClass: 2
Flags: W
AnchorPoint: "Anchor-8" 388 598 basechar 0
AnchorPoint: "Anchor-7" 256 319 basechar 0
AnchorPoint: "Anchor-6" 256 638 basechar 0
AnchorPoint: "Anchor-5" 294 10 basechar 0
AnchorPoint: "Anchor-4" 256 0 basechar 0
LayerCount: 2
Fore
SplineSet
82.9443 68.208 m 0,0,1
 46.6719 120.465 46.6719 120.465 32.6992 199.557 c 2,2,-1
 30.9629 209.405 l 1,3,-1
 30.7881 210.397 l 1,4,-1
 30.7007 210.919 l 2,5,6
 22.207 260.177 22.207 260.177 22.207 319.056 c 0,7,8
 22.2085 472.057 22.2085 472.057 81.707 559.056 c 0,9,10
 129.307 628.656 129.307 628.656 208.588 642.576 c 2,11,-1
 218.436 644.312 l 2,12,13
 238.256 647.793 238.256 647.793 260.056 647.793 c 0,14,15
 369.055 647.793 369.055 647.793 428.556 560.792 c 0,16,17
 465.511 506.757 465.511 506.757 479.513 427.262 c 2,18,-1
 481.25 417.414 l 2,19,20
 489.792 368.917 489.792 368.917 489.792 310.944 c 0,21,22
 489.792 153.945 489.792 153.945 430.792 69.4443 c 0,23,24
 383.93 2.32959 383.93 2.32959 304.896 -11.4795 c 2,25,-1
 295.048 -13.2158 l 2,26,27
 274.575 -16.793 274.575 -16.793 251.943 -16.793 c 0,28,29
 141.945 -16.7915 141.945 -16.7915 82.9443 68.208 c 0,0,1
364.708 123.556 m 0,30,31
 405.208 192.056 405.208 192.056 405.208 319.056 c 0,32,33
 405.208 368.929 405.208 368.929 398.434 409.897 c 0,34,35
 388.162 463.963 388.162 463.963 365.943 502.708 c 0,36,37
 324.945 574.208 324.945 574.208 251.944 574.208 c 0,38,39
 242.821 574.208 242.821 574.208 233.464 572.996 c 0,40,41
 180.431 561.363 180.431 561.363 147.792 504.443 c 0,42,43
 106.792 432.944 106.792 432.944 106.793 310.944 c 0,44,45
 106.793 258.278 106.793 258.278 113.813 215.33 c 1,46,47
 123.823 162.052 123.823 162.052 145.556 125.292 c 0,48,49
 186.056 56.793 186.056 56.793 260.056 56.793 c 0,50,51
 270.407 56.7914 270.407 56.7914 280.015 58.1201 c 0,52,53
 332.847 69.6684 332.847 69.6684 364.708 123.556 c 0,30,31
EndSplineSet
Validated: 33
Substitution2: "Single Substitution lookup 28 subtable" ordmasculine
Substitution2: "'aalt' +MFkweTBmMG51cE9TW1cweDBuMKIwrzC7MLkA in +MOkwxjDzZYdbVwAA lookup 0 subtable" ordmasculine
EndChar

StartChar: Ohorn
Encoding: 416 416 139
Width: 512
GlyphClass: 2
Flags: W
AnchorPoint: "Anchor-8" 388 598 basechar 0
AnchorPoint: "Anchor-7" 256 319 basechar 0
AnchorPoint: "Anchor-6" 256 638 basechar 0
AnchorPoint: "Anchor-5" 294 10 basechar 0
AnchorPoint: "Anchor-4" 256 0 basechar 0
LayerCount: 2
Fore
SplineSet
484 315 m 0,1,2
 484 158 484 158 425 73.5 c 128,-1,3
 366 -11 366 -11 256 -11 c 256,4,5
 146 -11 146 -11 87 74 c 128,-1,6
 28 159 28 159 28 315 c 0,7,8
 28 468 28 468 87.5 555 c 128,-1,9
 147 642 147 642 256 642 c 0,10,11
 332 642 332 642 385 598 c 1,12,13
 401 600 401 600 408.5 608 c 128,-1,14
 416 616 416 616 418 634.5 c 128,-1,15
 420 653 420 653 420 694 c 1,16,-1
 479 694 l 1,17,18
 479 623 479 623 469 592 c 128,-1,19
 459 561 459 561 427 552 c 1,20,0
 484 467 484 467 484 315 c 0,1,2
370.5 119.5 m 128,-1,22
 411 188 411 188 411 315 c 0,23,24
 411 437 411 437 370 508.5 c 128,-1,25
 329 580 329 580 256 580 c 256,26,27
 183 580 183 580 142 508.5 c 128,-1,28
 101 437 101 437 101 315 c 0,29,30
 101 188 101 188 141.5 119.5 c 128,-1,31
 182 51 182 51 256 51 c 256,32,21
 330 51 330 51 370.5 119.5 c 128,-1,22
EndSplineSet
Validated: 1
EndChar

StartChar: uni01EA
Encoding: 490 490 150
Width: 512
GlyphClass: 2
Flags: W
AnchorPoint: "Anchor-8" 388 598 basechar 0
AnchorPoint: "Anchor-7" 256 319 basechar 0
AnchorPoint: "Anchor-6" 256 638 basechar 0
AnchorPoint: "Anchor-5" 294 10 basechar 0
AnchorPoint: "Anchor-4" 256 0 basechar 0
LayerCount: 2
Fore
SplineSet
281 -58 m 128,-1,1
 261 -89 261 -89 261 -116 c 0,2,3
 261 -139 261 -139 277 -154 c 128,-1,4
 293 -169 293 -169 325 -173 c 1,5,-1
 308 -222 l 1,6,7
 256 -215 256 -215 225 -191.5 c 128,-1,8
 194 -168 194 -168 194 -130 c 0,9,10
 194 -69 194 -69 262 -11 c 1,11,-1
 256 -11 l 2,12,13
 146 -11 146 -11 87 74 c 128,-1,14
 28 159 28 159 28 315 c 0,15,16
 28 468 28 468 87.5 555 c 128,-1,17
 147 642 147 642 256 642 c 256,18,19
 365 642 365 642 424.5 555 c 128,-1,20
 484 468 484 468 484 315 c 0,21,22
 484 190 484 190 446.5 110 c 128,-1,23
 409 30 409 30 336 2 c 1,24,0
 301 -27 301 -27 281 -58 c 128,-1,1
141.5 119.5 m 128,-1,26
 182 51 182 51 256 51 c 256,27,28
 330 51 330 51 370.5 119.5 c 128,-1,29
 411 188 411 188 411 315 c 0,30,31
 411 437 411 437 370 508.5 c 128,-1,32
 329 580 329 580 256 580 c 256,33,34
 183 580 183 580 142 508.5 c 128,-1,35
 101 437 101 437 101 315 c 0,36,25
 101 188 101 188 141.5 119.5 c 128,-1,26
EndSplineSet
Validated: 1
EndChar

StartChar: Oslash
Encoding: 216 216 151
Width: 512
GlyphClass: 2
Flags: W
AnchorPoint: "Anchor-8" 388 598 basechar 0
AnchorPoint: "Anchor-7" 256 319 basechar 0
AnchorPoint: "Anchor-6" 256 638 basechar 0
AnchorPoint: "Anchor-5" 294 10 basechar 0
AnchorPoint: "Anchor-4" 256 0 basechar 0
LayerCount: 2
Fore
SplineSet
465.5 463 m 128,-1,1
 484 398 484 398 484 315 c 0,2,3
 484 158 484 158 425 73.5 c 128,-1,4
 366 -11 366 -11 256 -11 c 0,5,6
 179 -11 179 -11 126 31 c 1,7,-1
 87 -43 l 1,8,-1
 42 -23 l 1,9,-1
 90 69 l 1,10,11
 28 153 28 153 28 315 c 0,12,13
 28 468 28 468 87.5 555 c 128,-1,14
 147 642 147 642 256 642 c 0,15,16
 324 642 324 642 377 605 c 1,17,-1
 426 698 l 1,18,-1
 469 676 l 1,19,-1
 413 570 l 1,20,0
 447 528 447 528 465.5 463 c 128,-1,1
130 143 m 1,22,-1
 343 543 l 1,23,24
 306 580 306 580 256 580 c 0,25,26
 183 580 183 580 142 508.5 c 128,-1,27
 101 437 101 437 101 315 c 0,28,21
 101 210 101 210 130 143 c 1,22,-1
370.5 119.5 m 128,-1,30
 411 188 411 188 411 315 c 0,31,32
 411 430 411 430 375 499 c 1,33,-1
 160 94 l 1,34,35
 199 51 199 51 256 51 c 0,36,29
 330 51 330 51 370.5 119.5 c 128,-1,30
EndSplineSet
Validated: 1
EndChar

StartChar: OE
Encoding: 338 338 157
Width: 512
GlyphClass: 2
Flags: W
LayerCount: 2
Fore
SplineSet
53 74.5 m 128,-1,1
 9 156 9 156 9 319 c 0,2,3
 9 480 9 480 52.5 563.5 c 128,-1,4
 96 647 96 647 177 647 c 0,5,6
 225 647 225 647 259 609 c 1,7,-1
 259 639 l 1,8,-1
 496 639 l 1,9,-1
 496 575 l 1,10,-1
 323 575 l 1,11,-1
 323 366 l 1,12,-1
 469 366 l 1,13,-1
 469 300 l 1,14,-1
 323 300 l 1,15,-1
 323 63 l 1,16,-1
 494 63 l 1,17,-1
 494 0 l 1,18,-1
 258 0 l 1,19,-1
 258 32 l 1,20,21
 225 -7 225 -7 176 -7 c 0,22,0
 97 -7 97 -7 53 74.5 c 128,-1,1
230.5 76.5 m 128,-1,24
 251 98 251 98 258 132 c 1,25,-1
 258 497 l 1,26,27
 225 588 225 588 175 588 c 0,28,29
 130 588 130 588 102.5 526.5 c 128,-1,30
 75 465 75 465 75 321 c 0,31,32
 75 195 75 195 103 125 c 128,-1,33
 131 55 131 55 183 55 c 0,34,23
 210 55 210 55 230.5 76.5 c 128,-1,24
EndSplineSet
Validated: 1
EndChar

StartChar: P
Encoding: 80 80 158
Width: 512
GlyphClass: 2
Flags: W
AnchorPoint: "Anchor-8" 0 0 basechar 0
AnchorPoint: "Anchor-7" 0 0 basechar 0
AnchorPoint: "Anchor-6" 256 638 basechar 0
AnchorPoint: "Anchor-5" 0 0 basechar 0
AnchorPoint: "Anchor-4" 95 0 basechar 0
LayerCount: 2
Fore
SplineSet
64.0557 643.793 m 1,0,-1
 269.056 643.793 l 2,1,2
 370.057 643.793 370.057 643.793 420.556 593.792 c 0,3,4
 458.177 556.542 458.177 556.542 467.771 502.646 c 2,5,-1
 469.508 492.798 l 1,6,-1
 469.763 491.337 l 2,7,8
 472.793 473.272 472.793 473.272 472.793 453.944 c 0,9,10
 472.793 374.945 472.793 374.945 423.792 326.443 c 0,11,12
 389.641 292.642 389.641 292.642 331.201 282.398 c 2,13,-1
 321.354 280.661 l 2,14,15
 295.944 276.208 295.944 276.208 265.944 276.208 c 2,16,-1
 139.792 276.208 l 1,17,-1
 139.792 -4.05566 l 1,18,-1
 129.943 -5.79199 l 1,19,-1
 55.9443 -5.79199 l 1,20,-1
 54.208 4.05566 l 1,21,-1
 54.208 642.056 l 1,22,-1
 64.0557 643.793 l 1,0,-1
266.057 350.792 m 2,23,24
 286.016 350.792 286.016 350.792 302.903 353.302 c 0,25,26
 336.346 360.23 336.346 360.23 355.707 378.056 c 0,27,28
 387.208 407.057 387.208 407.057 387.208 460.056 c 0,29,30
 387.208 469.633 387.208 469.633 385.993 478.714 c 0,31,32
 378.918 510.078 378.918 510.078 356.444 532.208 c 0,33,34
 323.944 564.208 323.944 564.208 258.944 564.208 c 2,35,-1
 139.792 564.207 l 1,36,-1
 139.792 350.793 l 1,37,-1
 266.057 350.792 l 2,23,24
EndSplineSet
Validated: 33
EndChar

StartChar: Thorn
Encoding: 222 222 159
Width: 512
GlyphClass: 2
Flags: W
LayerCount: 2
Fore
SplineSet
60 638 m 1,0,-1
 140 638 l 1,1,2
 142 636 142 636 142 635 c 0,3,4
 142 633 142 633 138 624.5 c 128,-1,5
 134 616 134 616 132 609 c 1,6,-1
 132 518 l 1,7,-1
 265 518 l 2,8,9
 365 518 365 518 414 468.5 c 128,-1,10
 463 419 463 419 467 338 c 1,11,12
 463 258 463 258 416 210 c 128,-1,13
 369 162 369 162 270 162 c 2,14,-1
 132 162 l 1,15,-1
 132 0 l 1,16,-1
 60 0 l 1,17,-1
 60 638 l 1,0,-1
270 224 m 2,18,19
 384 224 384 224 393 336 c 1,20,21
 389 387 389 387 358 419 c 128,-1,22
 327 451 327 451 263 451 c 2,23,-1
 132 451 l 1,24,-1
 132 224 l 1,25,-1
 270 224 l 2,18,19
EndSplineSet
Validated: 1
EndChar

StartChar: Q
Encoding: 81 81 160
Width: 512
GlyphClass: 2
Flags: W
AnchorPoint: "Anchor-8" 0 0 basechar 0
AnchorPoint: "Anchor-7" 0 0 basechar 0
AnchorPoint: "Anchor-6" 256 638 basechar 0
AnchorPoint: "Anchor-5" 0 0 basechar 0
AnchorPoint: "Anchor-4" 256 0 basechar 0
LayerCount: 2
Fore
SplineSet
266.943 -126.292 m 0,0,1
 238.637 -103.292 238.637 -103.292 230.362 -56.002 c 2,2,-1
 228.626 -46.1543 l 2,3,4
 225.928 -30.7319 225.928 -30.7319 225.354 -12.5752 c 1,5,6
 173.124 -5.10542 173.124 -5.10542 127.944 32.707 c 0,7,8
 81.9438 71.2075 81.9438 71.2075 53.9443 141.208 c 0,9,10
 40.5952 174.58 40.5952 174.58 33.6104 214.316 c 2,11,-1
 31.874 224.164 l 2,12,13
 24.207 267.777 24.207 267.777 24.207 319.056 c 0,14,15
 24.207 438.055 24.207 438.055 58.708 512.056 c 128,-1,16
 93.208 586.057 93.208 586.057 145.208 617.557 c 0,17,18
 181.699 639.66 181.699 639.66 219.175 646.254 c 2,19,-1
 229.023 647.99 l 2,20,21
 244.951 650.791 244.951 650.791 261.056 650.794 c 0,22,23
 322.056 650.792 322.056 650.792 374.556 615.793 c 128,-1,24
 427.056 580.793 427.056 580.793 457.557 507.293 c 0,25,26
 471.345 474.06 471.345 474.06 478.492 433.368 c 2,27,-1
 480.229 423.521 l 2,28,29
 488.889 374.211 488.889 374.211 487.792 313.944 c 1,30,31
 487.792 172.944 487.792 172.944 440.292 90.9443 c 128,-1,32
 392.793 8.94385 392.793 8.94385 299.793 -11.0557 c 1,33,34
 300.142 -17.6809 300.142 -17.6809 301.026 -24.3525 c 0,35,36
 305.723 -45.7088 305.723 -45.7088 317.057 -58.708 c 0,37,38
 334.056 -78.2065 334.056 -78.2065 374.056 -78.208 c 1,39,-1
 457.056 -73.208 l 1,40,-1
 458.792 -83.0566 l 1,41,-1
 456.792 -152.056 l 1,42,-1
 446.944 -153.792 l 1,43,-1
 406.943 -153.793 l 1,44,45
 306.944 -158.792 306.944 -158.792 266.943 -126.292 c 0,0,1
328.707 85.0566 m 0,46,47
 363.207 110.056 363.207 110.056 385.708 165.056 c 128,-1,48
 408.208 220.056 408.208 220.056 408.208 305.056 c 0,49,50
 408.208 364.212 408.208 364.212 400.694 410.055 c 0,51,52
 395.013 440.088 395.013 440.088 385.944 463.708 c 0,53,54
 361.944 526.207 361.944 526.207 326.444 551.708 c 128,-1,55
 290.944 577.208 290.944 577.208 252.943 577.208 c 0,56,57
 243.257 577.208 243.257 577.208 233.364 575.912 c 0,58,59
 178.435 563.963 178.435 563.963 145.792 505.444 c 0,60,61
 104.792 431.944 104.792 431.944 104.792 326.944 c 0,62,63
 104.792 278.104 104.792 278.104 111.578 237.113 c 0,64,65
 122.413 179.972 122.413 179.972 146.556 137.793 c 0,66,67
 190.056 61.7925 190.056 61.7925 266.056 61.792 c 0,68,69
 273.268 61.792 273.268 61.792 280.748 62.7432 c 0,70,71
 305.563 68.2838 305.563 68.2838 328.707 85.0566 c 0,46,47
EndSplineSet
Validated: 33
EndChar

StartChar: R
Encoding: 82 82 161
Width: 512
GlyphClass: 2
Flags: W
AnchorPoint: "Anchor-8" 0 0 basechar 0
AnchorPoint: "Anchor-7" 0 0 basechar 0
AnchorPoint: "Anchor-6" 256 638 basechar 0
AnchorPoint: "Anchor-5" 0 0 basechar 0
AnchorPoint: "Anchor-4" 256 0 basechar 0
LayerCount: 2
Fore
SplineSet
61.0557 643.792 m 1,0,-1
 250.056 643.792 l 2,1,2
 359.058 643.792 359.058 643.792 410.556 595.792 c 0,3,4
 448.678 560.261 448.678 560.261 458.581 503.904 c 2,5,-1
 460.317 494.056 l 2,6,7
 463.792 474.282 463.792 474.282 463.792 451.943 c 0,8,9
 463.793 395.945 463.793 395.945 427.292 345.444 c 0,10,11
 392.018 296.641 392.018 296.641 336.748 281.696 c 1,12,-1
 479.056 5.79297 l 1,13,-1
 480.792 -4.05566 l 1,14,-1
 470.943 -5.79199 l 1,15,-1
 390.944 -5.79199 l 1,16,-1
 249.944 276.208 l 1,17,-1
 135.793 276.208 l 1,18,-1
 135.793 -4.05566 l 1,19,-1
 125.944 -5.79199 l 1,20,-1
 52.9443 -5.79199 l 1,21,-1
 51.207 4.05664 l 1,22,-1
 51.208 642.056 l 1,23,-1
 61.0557 643.792 l 1,0,-1
258.056 350.793 m 2,24,25
 277.29 350.793 277.29 350.793 293.967 353.236 c 0,26,27
 327.166 360.065 327.166 360.065 346.707 378.056 c 0,28,29
 378.208 407.055 378.208 407.055 378.208 460.056 c 0,30,31
 378.207 469.721 378.207 469.721 376.953 479.359 c 0,32,33
 370.023 510.825 370.023 510.825 347.444 532.707 c 0,34,35
 314.945 564.207 314.945 564.207 249.944 564.207 c 2,36,-1
 135.793 564.207 l 1,37,-1
 135.792 350.792 l 1,38,-1
 258.056 350.793 l 2,24,25
EndSplineSet
Validated: 33
EndChar

StartChar: S
Encoding: 83 83 169
Width: 512
GlyphClass: 2
Flags: W
AnchorPoint: "Anchor-8" 0 0 basechar 0
AnchorPoint: "Anchor-7" 0 0 basechar 0
AnchorPoint: "Anchor-6" 267 638 basechar 0
AnchorPoint: "Anchor-5" 0 0 basechar 0
AnchorPoint: "Anchor-4" 253 0 basechar 0
LayerCount: 2
Fore
SplineSet
435.056 279.792 m 0,0,1
 460.368 250.864 460.368 250.864 467.374 211.475 c 2,2,-1
 469.11 201.626 l 1,3,-1
 469.364 200.165 l 2,4,5
 471.792 185.477 471.792 185.477 471.792 169.944 c 0,6,7
 471.792 122.943 471.792 122.943 448.793 80.9443 c 128,-1,8
 425.792 38.9443 425.792 38.9443 377.792 12.4443 c 0,9,10
 349.377 -3.24414 349.377 -3.24414 312.899 -9.64453 c 2,11,-1
 303.052 -11.3809 l 2,12,13
 277.912 -15.793 277.912 -15.793 248.944 -15.792 c 0,14,15
 124.944 -15.792 124.944 -15.792 48.9443 65.207 c 1,16,-1
 47.207 75.0557 l 1,17,-1
 84.208 139.056 l 1,18,-1
 84.208 140.056 l 1,19,-1
 94.0557 141.792 l 2,20,21
 95.0557 141.792 95.0557 141.792 95.0557 141.292 c 0,22,23
 123.521 103.556 123.521 103.556 166.556 81.793 c 0,24,25
 210.056 59.7925 210.056 59.7925 267.057 59.792 c 0,26,27
 279.987 59.792 279.987 59.792 292.138 61.5244 c 0,28,29
 325.996 68.8256 325.996 68.8256 351.207 90.0557 c 0,30,31
 389.207 122.055 389.207 122.055 389.208 168.056 c 0,32,33
 389.208 177.282 389.208 177.282 388.166 185.164 c 0,34,35
 385.196 197.955 385.196 197.955 379.444 207.707 c 0,36,37
 367.944 227.209 367.944 227.209 336.944 246.708 c 128,-1,38
 305.944 266.208 305.944 266.208 244.944 293.207 c 1,39,40
 150.944 330.206 150.944 330.206 110.444 377.208 c 0,41,42
 79.5552 413.056 79.5552 413.056 72.2246 455.302 c 2,43,-1
 70.4883 465.149 l 2,44,45
 68.2075 478.293 68.2075 478.293 68.208 492.056 c 0,46,47
 68.208 564.057 68.208 564.057 120.208 607.056 c 0,48,49
 155.769 636.462 155.769 636.462 209.103 645.759 c 2,50,-1
 218.95 647.495 l 2,51,52
 243.605 651.793 243.605 651.793 272.056 651.793 c 0,53,54
 324.056 651.793 324.056 651.793 370.056 630.792 c 128,-1,55
 416.056 609.792 416.056 609.792 449.056 571.793 c 1,56,-1
 450.792 561.944 l 1,57,-1
 411.792 508.944 l 1,58,-1
 409.793 507.944 l 1,59,-1
 399.944 506.207 l 1,60,61
 368.944 548.207 368.944 548.207 335.944 564.707 c 128,-1,62
 302.944 581.208 302.944 581.208 252.944 581.208 c 0,63,64
 242.485 581.208 242.485 581.208 231.906 579.829 c 0,65,66
 203.508 573.673 203.508 573.673 183.293 555.444 c 0,67,68
 152.792 527.943 152.792 527.943 152.792 489.944 c 0,69,70
 152.792 481.756 152.792 481.756 153.783 473.987 c 0,71,72
 156.965 459.793 156.965 459.793 164.056 447.792 c 0,73,74
 177.055 425.794 177.055 425.794 211.056 404.792 c 128,-1,75
 245.055 383.792 245.055 383.792 309.056 357.792 c 0,76,77
 400.052 319.796 400.052 319.796 435.056 279.792 c 0,0,1
387.208 514.056 m 0,78,79
 387.208 515.77 387.208 515.77 388.514 515.852 c 2,80,-1
 398.362 517.588 l 2,81,82
 399.342 517.649 399.342 517.649 401.056 516.793 c 0,83,84
 405.056 514.792 405.056 514.792 406.056 514.793 c 2,85,-1
 407.792 504.944 l 1,86,-1
 404.793 500.944 l 1,87,-1
 394.944 499.207 l 1,88,-1
 388.943 503.208 l 1,89,90
 388.599 506.16 388.599 506.16 387.208 514.056 c 0,78,79
402.944 500.707 m 0,91,92
 398.944 503.208 398.944 503.208 397.943 503.208 c 2,93,-1
 396.207 513.056 l 1,94,-1
 398.208 516.056 l 1,95,-1
 408.057 517.792 l 1,96,97
 412.363 512.869 412.363 512.869 412.506 511.922 c 2,98,-1
 414.242 502.074 l 1,99,-1
 404.204 500.112 l 2,100,101
 403.865 500.132 403.865 500.132 402.944 500.707 c 0,91,92
106.792 134.944 m 2,102,103
 106.792 133.23 106.792 133.23 105.486 133.148 c 2,104,-1
 95.6387 131.412 l 2,105,106
 94.6604 131.351 94.6604 131.351 92.9443 132.208 c 0,107,108
 88.9438 134.208 88.9438 134.208 87.9443 134.208 c 2,109,-1
 86.208 144.056 l 1,110,-1
 88.208 148.056 l 1,111,-1
 98.0557 149.792 l 1,112,-1
 105.056 145.793 l 1,113,-1
 106.792 135.944 l 1,114,-1
 106.792 134.944 l 2,102,103
97.792 135.944 m 1,115,-1
 95.792 131.944 l 1,116,-1
 85.9443 130.208 l 1,117,118
 83.7339 133.155 83.7339 133.155 83.4238 134.474 c 2,119,-1
 81.6875 144.321 l 1,120,-1
 81.6318 144.82 l 1,121,-1
 92.0615 147.11 l 2,122,123
 93.1089 147.266 93.1089 147.266 96.0557 145.792 c 1,124,-1
 97.792 135.944 l 1,115,-1
EndSplineSet
Validated: 37
EndChar

StartChar: Scedilla
Encoding: 350 350 174
Width: 512
GlyphClass: 2
Flags: W
AnchorPoint: "Anchor-8" 0 0 basechar 0
AnchorPoint: "Anchor-7" 0 0 basechar 0
AnchorPoint: "Anchor-6" 267 638 basechar 0
AnchorPoint: "Anchor-5" 0 0 basechar 0
AnchorPoint: "Anchor-4" 253 -181 basechar 0
LayerCount: 2
Fore
SplineSet
446.5 92 m 128,-1,1
 427 53 427 53 386.5 25.5 c 128,-1,2
 346 -2 346 -2 287 -8 c 1,3,-1
 282 -48 l 1,4,5
 325 -52 325 -52 347 -71 c 128,-1,6
 369 -90 369 -90 369 -115 c 0,7,8
 369 -152 369 -152 338 -177 c 128,-1,9
 307 -202 307 -202 250 -202 c 0,10,11
 196 -202 196 -202 148 -170 c 1,12,-1
 174 -127 l 1,13,14
 213 -158 213 -158 263 -158 c 0,15,16
 314 -158 314 -158 314 -121 c 0,17,18
 314 -105 314 -105 300.5 -96 c 128,-1,19
 287 -87 287 -87 262 -87 c 2,20,-1
 231 -87 l 1,21,-1
 242 -10 l 1,22,23
 125 -6 125 -6 53 71 c 1,24,-1
 90 135 l 1,25,-1
 90 136 l 1,26,27
 91 136 91 136 91 135.5 c 0,28,-1
 91 135 l 1,29,30
 119 98 119 98 162.5 76 c 128,-1,31
 206 54 206 54 263 54 c 0,32,33
 319 54 319 54 357 86 c 128,-1,34
 395 118 395 118 395 164 c 0,35,36
 395 194 395 194 383.5 213.5 c 128,-1,37
 372 233 372 233 341 252.5 c 128,-1,38
 310 272 310 272 249 299 c 1,39,40
 155 336 155 336 114.5 383 c 128,-1,41
 74 430 74 430 74 488 c 0,42,43
 74 560 74 560 126 603 c 128,-1,44
 178 646 178 646 268 646 c 0,45,46
 320 646 320 646 366 625 c 128,-1,47
 412 604 412 604 445 566 c 1,48,-1
 406 513 l 1,49,-1
 404 512 l 1,50,51
 373 554 373 554 340 570.5 c 128,-1,52
 307 587 307 587 257 587 c 0,53,54
 208 587 208 587 177.5 559.5 c 128,-1,55
 147 532 147 532 147 494 c 0,56,57
 147 464 147 464 160 442 c 128,-1,58
 173 420 173 420 207 399 c 128,-1,59
 241 378 241 378 305 352 c 1,60,61
 396 314 396 314 431 274 c 128,-1,62
 466 234 466 234 466 174 c 0,63,0
 466 131 466 131 446.5 92 c 128,-1,1
393 510 m 2,64,65
 393 513 393 513 397 511 c 128,-1,66
 401 509 401 509 402 509 c 2,67,-1
 399 505 l 1,68,-1
 393 509 l 1,69,-1
 393 510 l 2,64,65
407 506.5 m 128,-1,71
 403 509 403 509 402 509 c 2,72,-1
 404 512 l 1,73,70
 411 504 411 504 407 506.5 c 128,-1,71
101 139 m 2,74,75
 101 136 101 136 97 138 c 128,-1,76
 93 140 93 140 92 140 c 2,77,-1
 94 144 l 1,78,-1
 101 140 l 1,79,-1
 101 139 l 2,74,75
92 140 m 1,81,-1
 90 136 l 1,82,80
 84 144 84 144 92 140 c 1,81,-1
EndSplineSet
Validated: 5
Substitution2: "'locl' +Vv0w+1cwV99W+mcJMG5bV19i in +MOkwxjDzZYdbVwAA lookup 7 subtable" Scommaaccent
Substitution2: "'locl' +Vv0w+1cwV99W+mcJMG5bV19i in +MOkwxjDzZYdbVwAA lookup 6 subtable" Scommaaccent
Substitution2: "'aalt' +MFkweTBmMG51cE9TW1cweDBuMKIwrzC7MLkA in +MOkwxjDzZYdbVwAA lookup 0 subtable" Scommaaccent
EndChar

StartChar: uni1E9E
Encoding: 7838 7838 180
Width: 512
GlyphClass: 2
Flags: W
LayerCount: 2
Fore
SplineSet
427.5 326 m 128,-1,1
 475 275 475 275 475 185 c 0,2,3
 475 87 475 87 423 38.5 c 128,-1,4
 371 -10 371 -10 290 -10 c 0,5,6
 229 -10 229 -10 181 22 c 1,7,-1
 204 79 l 1,8,9
 221 67 221 67 242 60.5 c 128,-1,10
 263 54 263 54 283 54 c 0,11,12
 336 54 336 54 372 92 c 128,-1,13
 408 130 408 130 408 195 c 0,14,15
 408 252 408 252 373 291.5 c 128,-1,16
 338 331 338 331 250 331 c 2,17,-1
 219 331 l 1,18,-1
 219 389 l 1,19,-1
 360 513 l 1,20,21
 360 561 360 561 334 593.5 c 128,-1,22
 308 626 308 626 253 626 c 0,23,24
 200 626 200 626 163 592 c 128,-1,25
 126 558 126 558 126 486 c 2,26,-1
 126 0 l 1,27,-1
 56 0 l 1,28,-1
 56 473 l 2,29,30
 56 583 56 583 113 634 c 128,-1,31
 170 685 170 685 252 685 c 0,32,33
 338 685 338 685 384 633.5 c 128,-1,34
 430 582 430 582 430 505 c 1,35,-1
 291 387 l 1,36,0
 380 377 380 377 427.5 326 c 128,-1,1
EndSplineSet
Validated: 1
EndChar

StartChar: T
Encoding: 84 84 182
Width: 512
GlyphClass: 2
Flags: W
AnchorPoint: "Anchor-8" 0 0 basechar 0
AnchorPoint: "Anchor-7" 250 319 basechar 0
AnchorPoint: "Anchor-6" 256 638 basechar 0
AnchorPoint: "Anchor-5" 0 0 basechar 0
AnchorPoint: "Anchor-4" 256 0 basechar 0
LayerCount: 2
Fore
SplineSet
207.207 4.05566 m 1,0,-1
 207.208 568.208 l 1,1,-1
 27.9434 568.207 l 1,2,-1
 26.207 578.056 l 1,3,-1
 26.207 643.056 l 1,4,-1
 36.0557 644.792 l 1,5,-1
 478.056 644.792 l 1,6,-1
 479.792 634.943 l 1,7,-1
 479.792 569.944 l 1,8,-1
 469.944 568.208 l 1,9,-1
 291.792 568.208 l 1,10,-1
 291.793 -4.05566 l 1,11,-1
 281.944 -5.79199 l 1,12,-1
 208.944 -5.79297 l 1,13,-1
 207.207 4.05566 l 1,0,-1
EndSplineSet
Validated: 1
EndChar

StartChar: Tbar
Encoding: 358 358 183
Width: 512
GlyphClass: 2
Flags: W
AnchorPoint: "Anchor-8" 0 0 basechar 0
AnchorPoint: "Anchor-7" 250 319 basechar 0
AnchorPoint: "Anchor-6" 256 638 basechar 0
AnchorPoint: "Anchor-5" 0 0 basechar 0
AnchorPoint: "Anchor-4" 256 0 basechar 0
LayerCount: 2
Fore
SplineSet
474 574 m 1,0,-1
 286 574 l 1,1,-1
 286 348 l 1,2,-1
 422 348 l 1,3,-1
 422 290 l 1,4,-1
 286 290 l 1,5,-1
 286 0 l 1,6,-1
 213 0 l 1,7,-1
 213 290 l 1,8,-1
 90 290 l 1,9,-1
 90 348 l 1,10,-1
 213 348 l 1,11,-1
 213 574 l 1,12,-1
 32 574 l 1,13,-1
 32 639 l 1,14,-1
 474 639 l 1,15,-1
 474 574 l 1,0,-1
EndSplineSet
Validated: 1
EndChar

StartChar: U
Encoding: 85 85 189
Width: 512
GlyphClass: 2
Flags: W
AnchorPoint: "Anchor-8" 465 638 basechar 0
AnchorPoint: "Anchor-7" 0 0 basechar 0
AnchorPoint: "Anchor-6" 256 638 basechar 0
AnchorPoint: "Anchor-5" 309 10 basechar 0
AnchorPoint: "Anchor-4" 256 0 basechar 0
LayerCount: 2
Fore
SplineSet
99.4443 43.708 m 0,0,1
 63.6992 84.8994 63.6992 84.8994 52.291 149.037 c 2,2,-1
 50.5547 158.885 l 1,3,-1
 50.3908 159.822 l 2,4,5
 50.2939 160.403 50.2939 160.403 50.2932 160.403 c 128,-1,6
 50.2925 160.403 50.2925 160.403 50.2041 160.895 c 0,7,8
 45.2075 190.12 45.2075 190.12 45.208 224.056 c 2,9,-1
 45.208 642.056 l 1,10,-1
 55.0557 643.792 l 1,11,-1
 135.056 643.792 l 1,12,-1
 136.792 633.944 l 1,13,-1
 136.792 626.944 l 1,14,15
 130.792 620.944 130.792 620.944 129.292 613.443 c 128,-1,16
 127.793 605.945 127.793 605.945 127.793 588.944 c 2,17,-1
 127.793 214.944 l 2,18,19
 127.793 187.003 127.793 187.003 131.479 163.29 c 0,20,21
 139.123 124.54 139.123 124.54 157.556 98.792 c 0,22,23
 189.056 54.7925 189.056 54.7925 262.056 54.792 c 0,24,25
 277.906 54.792 277.906 54.792 291.929 56.8252 c 0,26,27
 335.603 65.9759 335.603 65.9759 358.208 97.0557 c 0,28,29
 390.208 141.055 390.208 141.055 390.208 226.056 c 2,30,-1
 390.208 642.057 l 1,31,-1
 400.056 643.793 l 1,32,-1
 469.056 643.792 l 1,33,-1
 470.792 633.943 l 1,34,-1
 470.792 218.943 l 2,35,36
 470.793 100.944 470.793 100.944 415.792 42.9434 c 0,37,38
 375.25 0.19043 375.25 0.19043 311.341 -11.0488 c 2,39,-1
 301.493 -12.7852 l 2,40,41
 278.705 -16.793 278.705 -16.793 252.944 -16.793 c 0,42,43
 151.945 -16.7915 151.945 -16.7915 99.4443 43.708 c 0,0,1
EndSplineSet
Validated: 33
EndChar

StartChar: Uhorn
Encoding: 431 431 198
Width: 512
GlyphClass: 2
Flags: W
AnchorPoint: "Anchor-8" 418 638 basechar 0
AnchorPoint: "Anchor-7" 0 0 basechar 0
AnchorPoint: "Anchor-6" 228 638 basechar 0
AnchorPoint: "Anchor-5" 461 10 basechar 0
AnchorPoint: "Anchor-4" 227 0 basechar 0
LayerCount: 2
Fore
SplineSet
503 645.5 m 128,-1,1
 497 615 497 615 478 601.5 c 128,-1,2
 459 588 459 588 419 588 c 1,3,-1
 419 223 l 2,4,5
 419 105 419 105 369 47 c 128,-1,6
 319 -11 319 -11 231 -11 c 0,7,8
 140 -11 140 -11 93 49 c 128,-1,9
 46 109 46 109 46 220 c 2,10,-1
 46 638 l 1,11,-1
 119 638 l 1,12,-1
 119 631 l 1,13,14
 113 625 113 625 111.5 617.5 c 128,-1,15
 110 610 110 610 110 593 c 2,16,-1
 110 219 l 2,17,18
 110 137 110 137 138.5 93 c 128,-1,19
 167 49 167 49 232 49 c 0,20,21
 299 49 299 49 327.5 93 c 128,-1,22
 356 137 356 137 356 222 c 2,23,-1
 356 638 l 1,24,-1
 408 638 l 2,25,26
 427 638 427 638 435.5 645.5 c 128,-1,27
 444 653 444 653 447 672 c 128,-1,28
 450 691 450 691 450 734 c 1,29,-1
 509 734 l 1,30,0
 509 676 509 676 503 645.5 c 128,-1,1
EndSplineSet
Validated: 1
EndChar

StartChar: Uogonek
Encoding: 370 370 208
Width: 512
GlyphClass: 2
Flags: W
AnchorPoint: "Anchor-8" 465 638 basechar 0
AnchorPoint: "Anchor-7" 0 0 basechar 0
AnchorPoint: "Anchor-6" 256 638 basechar 0
AnchorPoint: "Anchor-5" 309 10 basechar 0
AnchorPoint: "Anchor-4" 256 0 basechar 0
LayerCount: 2
Fore
SplineSet
465 638 m 1,0,-1
 465 223 l 2,1,2
 465 141 465 141 438 88 c 128,-1,3
 411 35 411 35 360 10 c 1,4,5
 321 -21 321 -21 298.5 -54.5 c 128,-1,6
 276 -88 276 -88 276 -116 c 0,7,8
 276 -139 276 -139 292 -154 c 128,-1,9
 308 -169 308 -169 340 -173 c 1,10,-1
 324 -222 l 1,11,12
 272 -215 272 -215 240.5 -191.5 c 128,-1,13
 209 -168 209 -168 209 -130 c 0,14,15
 209 -100 209 -100 227 -69.5 c 128,-1,16
 245 -39 245 -39 279 -10 c 1,17,18
 272 -11 272 -11 257 -11 c 0,19,20
 156 -11 156 -11 103.5 49.5 c 128,-1,21
 51 110 51 110 51 220 c 2,22,-1
 51 638 l 1,23,-1
 131 638 l 1,24,-1
 131 631 l 1,25,26
 125 625 125 625 123.5 617.5 c 128,-1,27
 122 610 122 610 122 593 c 2,28,-1
 122 219 l 2,29,30
 122 137 122 137 153.5 93 c 128,-1,31
 185 49 185 49 258 49 c 0,32,33
 332 49 332 49 364 93 c 128,-1,34
 396 137 396 137 396 222 c 2,35,-1
 396 638 l 1,36,-1
 465 638 l 1,0,-1
EndSplineSet
Validated: 1
EndChar

StartChar: V
Encoding: 86 86 212
Width: 512
GlyphClass: 2
Flags: W
AnchorPoint: "Anchor-8" 0 0 basechar 0
AnchorPoint: "Anchor-7" 0 0 basechar 0
AnchorPoint: "Anchor-6" 256 638 basechar 0
AnchorPoint: "Anchor-5" 0 0 basechar 0
AnchorPoint: "Anchor-4" 256 0 basechar 0
LayerCount: 2
Fore
SplineSet
238.943 -9.79199 m 1,0,-1
 21.9443 633.208 l 1,1,-1
 20.208 643.056 l 1,2,-1
 30.0557 644.792 l 1,3,-1
 104.056 644.793 l 1,4,-1
 263.28 168.091 l 1,5,-1
 413.208 642.056 l 1,6,-1
 423.056 643.792 l 1,7,-1
 493.056 643.792 l 1,8,-1
 494.792 633.944 l 1,9,-1
 280.793 -8.05566 l 1,10,-1
 270.944 -9.79199 l 1,11,-1
 238.943 -9.79199 l 1,0,-1
EndSplineSet
Validated: 1
EndChar

StartChar: W
Encoding: 87 87 213
Width: 512
GlyphClass: 2
Flags: W
AnchorPoint: "Anchor-8" 0 0 basechar 0
AnchorPoint: "Anchor-7" 0 0 basechar 0
AnchorPoint: "Anchor-6" 266 638 basechar 0
AnchorPoint: "Anchor-5" 0 0 basechar 0
AnchorPoint: "Anchor-4" 260 0 basechar 0
LayerCount: 2
Fore
SplineSet
114.208 4.05566 m 1,0,-1
 11.208 642.056 l 1,1,-1
 21.0557 643.792 l 1,2,-1
 88.0566 643.792 l 1,3,-1
 89.793 633.944 l 1,4,-1
 153.626 235.218 l 1,5,-1
 249.208 595.056 l 1,6,-1
 259.056 596.792 l 1,7,-1
 282.056 596.792 l 1,8,-1
 378.654 234.783 l 1,9,-1
 433.208 642.057 l 1,10,-1
 443.056 643.793 l 1,11,-1
 504.056 643.792 l 1,12,-1
 505.792 633.944 l 1,13,-1
 403.792 -4.05664 l 1,14,-1
 393.944 -5.79297 l 1,15,-1
 366.944 -5.79297 l 1,16,-1
 261.616 393.498 l 1,17,-1
 155.792 -4.05566 l 1,18,-1
 145.943 -5.79199 l 1,19,-1
 115.944 -5.79199 l 1,20,-1
 114.208 4.05566 l 1,0,-1
EndSplineSet
Validated: 1
EndChar

StartChar: X
Encoding: 88 88 218
Width: 512
GlyphClass: 2
Flags: W
AnchorPoint: "Anchor-8" 0 0 basechar 0
AnchorPoint: "Anchor-7" 0 0 basechar 0
AnchorPoint: "Anchor-6" 256 638 basechar 0
AnchorPoint: "Anchor-5" 0 0 basechar 0
AnchorPoint: "Anchor-4" 256 0 basechar 0
LayerCount: 2
Fore
SplineSet
36.208 4.05566 m 1,0,-1
 208.407 326.682 l 1,1,-1
 40.9443 633.207 l 1,2,-1
 39.208 643.056 l 1,3,-1
 49.0557 644.792 l 1,4,-1
 126.056 644.793 l 1,5,-1
 255.569 409.928 l 1,6,-1
 382.207 643.056 l 1,7,-1
 392.056 644.793 l 1,8,-1
 464.056 644.792 l 1,9,-1
 465.792 634.944 l 1,10,-1
 305.591 326.407 l 1,11,-1
 483.056 5.79199 l 1,12,-1
 484.792 -4.05566 l 1,13,-1
 474.944 -5.79297 l 1,14,-1
 393.944 -5.79297 l 1,15,-1
 257.462 239.101 l 1,16,-1
 125.792 -4.05566 l 1,17,-1
 115.944 -5.79199 l 1,18,-1
 37.9443 -5.79199 l 1,19,-1
 36.208 4.05566 l 1,0,-1
EndSplineSet
Validated: 1
EndChar

StartChar: Y
Encoding: 89 89 219
Width: 512
GlyphClass: 2
Flags: W
AnchorPoint: "Anchor-8" 0 0 basechar 0
AnchorPoint: "Anchor-7" 0 0 basechar 0
AnchorPoint: "Anchor-6" 256 638 basechar 0
AnchorPoint: "Anchor-5" 0 0 basechar 0
AnchorPoint: "Anchor-4" 264 0 basechar 0
LayerCount: 2
Fore
SplineSet
219.208 4.05566 m 1,0,-1
 219.207 249.627 l 1,1,-1
 24.9443 632.208 l 1,2,-1
 23.207 642.056 l 1,3,-1
 33.0557 643.792 l 1,4,-1
 115.057 643.792 l 1,5,-1
 266.318 344.177 l 1,6,-1
 403.208 642.056 l 1,7,-1
 413.056 643.792 l 1,8,-1
 488.056 643.792 l 1,9,-1
 489.792 633.944 l 1,10,-1
 308.792 247.944 l 1,11,-1
 308.792 -4.05566 l 1,12,-1
 298.944 -5.79199 l 1,13,-1
 220.944 -5.79297 l 1,14,-1
 219.208 4.05566 l 1,0,-1
EndSplineSet
Validated: 1
EndChar

StartChar: Z
Encoding: 90 90 229
Width: 512
GlyphClass: 2
Flags: W
AnchorPoint: "Anchor-8" 0 0 basechar 0
AnchorPoint: "Anchor-7" 0 0 basechar 0
AnchorPoint: "Anchor-6" 266 638 basechar 0
AnchorPoint: "Anchor-5" 0 0 basechar 0
AnchorPoint: "Anchor-4" 276 0 basechar 0
LayerCount: 2
Fore
SplineSet
45.207 54.0566 m 1,0,-1
 361.145 567.208 l 1,1,-1
 58.9434 567.208 l 1,2,-1
 57.207 577.057 l 1,3,-1
 57.207 642.056 l 1,4,-1
 67.0557 643.792 l 1,5,-1
 462.056 643.792 l 1,6,-1
 463.792 633.944 l 1,7,-1
 463.793 583.944 l 1,8,-1
 152.738 68.792 l 1,9,-1
 433.056 68.792 l 2,10,11
 440.381 68.792 440.381 68.792 446.585 69.3682 c 0,12,13
 446.884 69.454 446.884 69.454 447.208 69.5557 c 0,14,15
 455.208 72.0562 455.208 72.0562 461.207 78.0557 c 1,16,-1
 471.056 79.792 l 1,17,-1
 478.056 79.792 l 1,18,-1
 479.792 69.9443 l 1,19,-1
 479.792 -4.05566 l 1,20,-1
 469.944 -5.79297 l 1,21,-1
 46.9443 -5.79297 l 1,22,-1
 45.208 4.05566 l 1,23,-1
 45.207 54.0566 l 1,0,-1
EndSplineSet
Validated: 1
EndChar

StartChar: U.i
Encoding: 65537 -1 234
Width: 512
GlyphClass: 2
Flags: W
AnchorPoint: "Anchor-8" 418 638 basechar 0
AnchorPoint: "Anchor-7" 0 0 basechar 0
AnchorPoint: "Anchor-6" 256 638 basechar 0
AnchorPoint: "Anchor-5" 461 10 basechar 0
AnchorPoint: "Anchor-4" 256 0 basechar 0
LayerCount: 2
Fore
SplineSet
93 49 m 128,-1,1
 46 109 46 109 46 220 c 2,2,-1
 46 638 l 1,3,-1
 119 638 l 1,4,-1
 119 631 l 1,5,6
 113 625 113 625 111.5 617.5 c 128,-1,7
 110 610 110 610 110 593 c 2,8,-1
 110 219 l 2,9,10
 110 137 110 137 138.5 93 c 128,-1,11
 167 49 167 49 232 49 c 0,12,13
 299 49 299 49 327.5 93 c 128,-1,14
 356 137 356 137 356 222 c 2,15,-1
 356 638 l 1,16,-1
 419 638 l 1,17,-1
 419 223 l 2,18,19
 419 105 419 105 369 47 c 128,-1,20
 319 -11 319 -11 231 -11 c 0,21,0
 140 -11 140 -11 93 49 c 128,-1,1
EndSplineSet
Validated: 1
EndChar

StartChar: a
Encoding: 97 97 235
Width: 512
GlyphClass: 2
Flags: W
AnchorPoint: "Anchor-8" 0 0 basechar 0
AnchorPoint: "Anchor-7" 0 0 basechar 0
AnchorPoint: "Anchor-6" 256 468 basechar 0
AnchorPoint: "Anchor-5" 394 0 basechar 0
AnchorPoint: "Anchor-4" 256 0 basechar 0
LayerCount: 2
Fore
SplineSet
407.056 431.792 m 0,0,1
 442.209 397.304 442.209 397.304 454.046 330.698 c 2,2,-1
 455.782 320.851 l 1,3,-1
 456.141 318.793 l 2,4,5
 461.792 285.761 461.792 285.761 461.792 244.943 c 2,6,-1
 461.792 -4.05566 l 1,7,-1
 451.944 -5.79199 l 1,8,-1
 371.944 -5.79297 l 1,9,-1
 370.208 4.05566 l 1,10,-1
 370.208 48.9395 l 1,11,12
 335.696 0.521276 335.696 0.521276 268.397 -11.2695 c 2,13,-1
 258.549 -13.0059 l 2,14,15
 236.935 -16.7925 236.935 -16.7925 211.944 -16.792 c 0,16,17
 133.944 -16.792 133.944 -16.792 89.9443 18.208 c 0,18,19
 55.2891 45.7734 55.2891 45.7734 47.9287 88.2285 c 2,20,-1
 46.1924 98.0762 l 2,21,22
 44.2075 109.525 44.2075 109.525 44.207 122.057 c 0,23,24
 44.207 171.056 44.207 171.056 76.208 208.057 c 128,-1,25
 108.208 245.056 108.208 245.056 161.707 265.057 c 0,26,27
 187.352 274.643 187.352 274.643 215.64 279.634 c 2,28,-1
 225.487 281.37 l 1,29,-1
 226.954 281.626 l 2,30,31
 257.288 286.792 257.288 286.792 290.056 286.792 c 0,32,33
 341.428 286.792 341.428 286.792 384.957 281.199 c 1,34,35
 383.884 293.651 383.884 293.651 382.209 304.253 c 0,36,37
 372.14 355.269 372.14 355.269 345.444 379.707 c 0,38,39
 309.944 412.208 309.944 412.208 240.944 412.207 c 0,40,41
 228.261 412.207 228.261 412.207 215.386 410.36 c 0,42,43
 198.837 406.901 198.837 406.901 183.292 400.444 c 0,44,45
 150.792 386.944 150.792 386.944 124.792 361.944 c 1,46,-1
 114.944 360.208 l 1,47,-1
 78.9443 407.207 l 1,48,-1
 77.208 417.056 l 1,49,50
 126.364 466.211 126.364 466.211 194.936 478.202 c 2,51,-1
 204.783 479.939 l 2,52,53
 228.281 484.047 228.281 484.047 254.056 483.792 c 0,54,55
 354.056 483.793 354.056 483.793 407.056 431.792 c 0,0,1
337.207 93.5557 m 0,56,57
 378.478 135.296 378.478 135.296 384.618 212.557 c 1,58,59
 339.338 219.208 339.338 219.208 287.944 219.208 c 0,60,61
 257.105 219.208 257.105 219.208 230.788 215.123 c 1,62,63
 198.162 208.688 198.162 208.688 174.792 195.444 c 0,64,65
 129.792 169.944 129.792 169.944 129.792 117.944 c 0,66,67
 129.792 111.599 129.792 111.599 130.494 105.518 c 0,68,69
 143.779 50.7935 143.779 50.7935 227.057 50.792 c 0,70,71
 244.381 50.792 244.381 50.792 260.424 53.1611 c 0,72,73
 306.47 62.4702 306.47 62.4702 337.207 93.5557 c 0,56,57
EndSplineSet
Validated: 33
Substitution2: "Single Substitution lookup 28 subtable" ordfeminine
Substitution2: "'aalt' +MFkweTBmMG51cE9TW1cweDBuMKIwrzC7MLkA in +MOkwxjDzZYdbVwAA lookup 0 subtable" ordfeminine
EndChar

StartChar: aogonek
Encoding: 261 261 256
Width: 512
GlyphClass: 2
Flags: W
AnchorPoint: "Anchor-8" 0 0 basechar 0
AnchorPoint: "Anchor-7" 0 0 basechar 0
AnchorPoint: "Anchor-6" 256 468 basechar 0
AnchorPoint: "Anchor-5" 394 0 basechar 0
AnchorPoint: "Anchor-4" 256 0 basechar 0
LayerCount: 2
Fore
SplineSet
346 -104 m 0,1,2
 346 -116 346 -116 354 -124.5 c 128,-1,3
 362 -133 362 -133 375 -133 c 0,4,5
 405 -133 405 -133 434 -110 c 1,6,-1
 434 -157 l 1,7,8
 404 -181 404 -181 366 -180 c 0,9,10
 326 -180 326 -180 304.5 -162.5 c 128,-1,11
 283 -145 283 -145 283 -118 c 0,12,13
 283 -67 283 -67 365 0 c 1,14,-1
 376 0 l 1,15,-1
 376 72 l 1,16,17
 333 -11 333 -11 216 -11 c 0,18,19
 138 -11 138 -11 94 24 c 128,-1,20
 50 59 50 59 50 118 c 0,21,22
 50 167 50 167 82 204 c 128,-1,23
 114 241 114 241 167.5 261 c 128,-1,24
 221 281 221 281 286 281 c 0,25,26
 344 281 344 281 391 274 c 1,27,28
 385 353 385 353 349.5 385.5 c 128,-1,29
 314 418 314 418 245 418 c 0,30,31
 210 418 210 418 177.5 404.5 c 128,-1,32
 145 391 145 391 119 366 c 1,33,-1
 83 413 l 1,34,35
 149 479 149 479 250 478 c 0,36,37
 350 478 350 478 403 426 c 128,-1,38
 456 374 456 374 456 249 c 2,39,-1
 456 0 l 1,40,-1
 432 0 l 1,41,0
 346 -76 346 -76 346 -104 c 0,1,2
343 89.5 m 128,-1,43
 387 134 387 134 391 218 c 1,44,45
 345 225 345 225 292 225 c 0,46,47
 214 225 214 225 169 199.5 c 128,-1,48
 124 174 124 174 124 122 c 0,49,50
 124 45 124 45 223 45 c 0,51,42
 299 45 299 45 343 89.5 c 128,-1,43
EndSplineSet
Validated: 33
EndChar

StartChar: ae
Encoding: 230 230 260
Width: 512
GlyphClass: 2
Flags: W
LayerCount: 2
Fore
SplineSet
43.5 27 m 128,-1,1
 10 65 10 65 10 126 c 0,2,3
 10 201 10 201 64.5 241.5 c 128,-1,4
 119 282 119 282 226 286 c 1,5,6
 226 355 226 355 206.5 388 c 128,-1,7
 187 421 187 421 145 421 c 0,8,9
 99 421 99 421 68 377 c 1,10,-1
 32 422 l 1,11,12
 76 478 76 478 151 478 c 0,13,14
 188 478 188 478 218 461 c 128,-1,15
 248 444 248 444 264 415 c 1,16,17
 281 445 281 445 310.5 461.5 c 128,-1,18
 340 478 340 478 371 478 c 0,19,20
 502 478 502 478 502 274 c 2,21,-1
 502 236 l 1,22,-1
 289 228 l 1,23,-1
 289 179 l 2,24,25
 289 120 289 120 317.5 84 c 128,-1,26
 346 48 346 48 395 48 c 0,27,28
 442 48 442 48 470 86 c 1,29,-1
 506 43 l 1,30,31
 461 -11 461 -11 389 -11 c 0,32,33
 350 -11 350 -11 316 8 c 128,-1,34
 282 27 282 27 261 59 c 1,35,36
 244 26 244 26 213 7.5 c 128,-1,37
 182 -11 182 -11 145 -11 c 0,38,0
 77 -11 77 -11 43.5 27 c 128,-1,1
442 291 m 1,39,40
 442 357 442 357 425.5 389 c 128,-1,41
 409 421 409 421 371 421 c 0,42,43
 332 421 332 421 310.5 385.5 c 128,-1,44
 289 350 289 350 289 286 c 1,45,-1
 442 291 l 1,39,40
211.5 94.5 m 128,-1,47
 226 138 226 138 226 224 c 1,48,49
 142 220 142 220 109 199 c 128,-1,50
 76 178 76 178 76 125 c 0,51,52
 76 84 76 84 93.5 67.5 c 128,-1,53
 111 51 111 51 147 51 c 0,54,46
 197 51 197 51 211.5 94.5 c 128,-1,47
EndSplineSet
Validated: 1
EndChar

StartChar: b
Encoding: 98 98 262
Width: 512
GlyphClass: 2
Flags: W
AnchorPoint: "Anchor-8" 0 0 basechar 0
AnchorPoint: "Anchor-7" 0 0 basechar 0
AnchorPoint: "Anchor-6" 256 468 basechar 0
AnchorPoint: "Anchor-5" 0 0 basechar 0
AnchorPoint: "Anchor-4" 256 0 basechar 0
LayerCount: 2
Fore
SplineSet
190.444 2.20703 m 0,0,1
 159.275 18.8892 159.275 18.8892 135.915 47.4844 c 1,2,-1
 114.792 -4.05566 l 1,3,-1
 104.944 -5.79199 l 1,4,-1
 56.9443 -5.79297 l 1,5,-1
 55.208 4.05566 l 1,6,-1
 55.208 685.056 l 1,7,-1
 65.0566 686.792 l 1,8,-1
 149.056 686.792 l 1,9,-1
 150.793 676.943 l 1,10,-1
 150.792 669.943 l 1,11,12
 144.792 663.945 144.792 663.945 143.292 656.444 c 128,-1,13
 141.792 648.944 141.792 648.944 141.792 631.944 c 2,14,-1
 141.792 416.956 l 1,15,16
 162.396 443.426 162.396 443.426 191.707 460.556 c 0,17,18
 218.61 476.279 218.61 476.279 245.759 481.015 c 2,19,-1
 255.607 482.751 l 2,20,21
 267.309 484.793 267.309 484.793 279.057 484.792 c 0,22,23
 367.056 484.793 367.056 484.793 419.556 423.293 c 0,24,25
 454.555 382.292 454.555 382.292 466.223 316.626 c 2,26,-1
 467.959 306.777 l 1,27,-1
 468.126 305.823 l 1,28,-1
 468.312 304.751 l 2,29,30
 473.792 272.744 473.792 272.744 473.792 234.944 c 0,31,32
 473.792 154.945 473.792 154.945 446.292 97.9434 c 128,-1,33
 418.792 40.9448 418.792 40.9448 373.792 12.9443 c 0,34,35
 342.772 -6.35645 342.772 -6.35645 308.902 -12.3535 c 2,36,-1
 299.055 -14.0898 l 1,37,-1
 297.623 -14.3379 l 2,38,39
 282.801 -16.792 282.801 -16.792 267.944 -16.792 c 0,40,41
 225.944 -16.792 225.944 -16.792 190.444 2.20703 c 0,0,1
349.207 101.556 m 0,42,43
 386.208 145.057 386.208 145.057 386.208 238.056 c 0,44,45
 386.208 269.093 386.208 269.093 382.128 295.128 c 1,46,47
 373.875 337.241 373.875 337.241 353.943 364.208 c 0,48,49
 319.944 410.207 319.944 410.207 260.944 410.208 c 0,50,51
 253.153 410.208 253.153 410.208 245.851 409.258 c 0,52,53
 205.484 400.059 205.484 400.059 177.792 360.444 c 0,54,55
 141.793 308.943 141.793 308.943 141.793 227.944 c 0,56,57
 141.793 195.849 141.793 195.849 145.952 169.346 c 1,58,59
 167.702 59.792 167.702 59.792 267.057 59.792 c 0,60,61
 275.562 59.792 275.562 59.792 284.155 60.8994 c 0,62,63
 321.625 69.1281 321.625 69.1281 349.207 101.556 c 0,42,43
EndSplineSet
Validated: 33
EndChar

StartChar: uni0298
Encoding: 664 664 263
Width: 512
GlyphClass: 2
Flags: W
AnchorPoint: "Anchor-8" 388 598 basechar 0
AnchorPoint: "Anchor-7" 256 319 basechar 0
AnchorPoint: "Anchor-6" 259 321 basechar 0
AnchorPoint: "Anchor-5" 294 10 basechar 0
AnchorPoint: "Anchor-4" 256 0 basechar 0
LayerCount: 2
Fore
SplineSet
87 74 m 128,-1,1
 28 159 28 159 28 315 c 0,2,3
 28 468 28 468 87.5 555 c 128,-1,4
 147 642 147 642 256 642 c 256,5,6
 365 642 365 642 424.5 555 c 128,-1,7
 484 468 484 468 484 315 c 0,8,9
 484 158 484 158 425 73.5 c 128,-1,10
 366 -11 366 -11 256 -11 c 256,11,0
 146 -11 146 -11 87 74 c 128,-1,1
370.5 119.5 m 128,-1,13
 411 188 411 188 411 315 c 0,14,15
 411 437 411 437 370 508.5 c 128,-1,16
 329 580 329 580 256 580 c 256,17,18
 183 580 183 580 142 508.5 c 128,-1,19
 101 437 101 437 101 315 c 0,20,21
 101 188 101 188 141.5 119.5 c 128,-1,22
 182 51 182 51 256 51 c 256,23,12
 330 51 330 51 370.5 119.5 c 128,-1,13
226.5 287.5 m 128,-1,25
 213 301 213 301 213 319 c 0,26,27
 213 338 213 338 226 352 c 128,-1,28
 239 366 239 366 258 366 c 256,29,30
 277 366 277 366 290.5 352 c 128,-1,31
 304 338 304 338 304 319 c 256,32,33
 304 301 304 301 291 287.5 c 128,-1,34
 278 274 278 274 258 274 c 0,35,24
 240 274 240 274 226.5 287.5 c 128,-1,25
EndSplineSet
Validated: 1
EndChar

StartChar: c
Encoding: 99 99 264
Width: 512
GlyphClass: 2
Flags: W
AnchorPoint: "Anchor-8" 0 0 basechar 0
AnchorPoint: "Anchor-7" 0 0 basechar 0
AnchorPoint: "Anchor-6" 293 468 basechar 0
AnchorPoint: "Anchor-5" 0 0 basechar 0
AnchorPoint: "Anchor-4" 293 0 basechar 0
LayerCount: 2
Fore
SplineSet
422.056 118.792 m 1,0,-1
 465.056 67.792 l 1,1,-1
 466.793 57.9434 l 1,2,3
 413.823 1.13672 413.823 1.13672 342.584 -11.4727 c 2,4,-1
 332.735 -13.209 l 2,5,6
 331.345 -13.4541 331.345 -13.4541 331.326 -13.4541 c 0,7,8
 310.167 -17.0144 310.167 -17.0144 287.943 -16.792 c 0,9,10
 219.944 -16.792 219.944 -16.792 166.944 14.708 c 128,-1,11
 113.945 46.208 113.945 46.208 83.4443 102.208 c 0,12,13
 64.2666 137.42 64.2666 137.42 57.1465 177.771 c 2,14,-1
 55.4102 187.62 l 1,15,-1
 55.1562 189.08 l 2,16,17
 51.207 212.491 51.207 212.491 51.207 237.056 c 0,18,19
 51.207 307.056 51.207 307.056 81.708 362.556 c 128,-1,20
 112.208 418.056 112.208 418.056 165.208 449.556 c 0,21,22
 199.846 470.143 199.846 470.143 240.463 477.274 c 2,23,-1
 250.311 479.012 l 2,24,25
 271.844 482.792 271.844 482.792 295.056 482.791 c 0,26,27
 351.057 482.792 351.057 482.792 397.056 459.793 c 128,-1,28
 443.056 436.792 443.056 436.792 472.057 395.792 c 1,29,-1
 473.793 385.944 l 1,30,-1
 427.792 340.944 l 1,31,-1
 426.792 339.944 l 1,32,-1
 416.944 338.208 l 1,33,34
 386.944 377.208 386.944 377.208 355.944 393.208 c 128,-1,35
 324.944 409.208 324.944 409.208 278.944 409.208 c 0,36,37
 269.443 409.208 269.443 409.208 259.848 407.912 c 0,38,39
 235.854 402.695 235.854 402.695 214.292 388.944 c 0,40,41
 179.793 366.944 179.793 366.944 159.292 326.944 c 128,-1,42
 138.792 286.944 138.792 286.944 138.792 234.943 c 0,43,44
 138.792 216.899 138.792 216.899 141.41 199.403 c 0,45,46
 146.7 173.273 146.7 173.273 158.057 150.292 c 0,47,48
 179.057 107.792 179.057 107.792 216.556 84.292 c 128,-1,49
 254.057 60.7915 254.057 60.7915 300.056 60.792 c 0,50,51
 311.324 60.9518 311.324 60.9518 321.85 62.4854 c 0,52,53
 373.166 73.4207 373.166 73.4207 412.207 117.056 c 1,54,-1
 422.056 118.792 l 1,0,-1
424.793 337.944 m 1,55,-1
 420.793 333.944 l 1,56,-1
 410.944 332.207 l 1,57,-1
 405.943 337.208 l 1,58,-1
 404.207 347.057 l 2,59,60
 404.207 349.68 404.207 349.68 405.93 349.817 c 2,61,-1
 415.778 351.554 l 2,62,63
 417.993 351.729 417.993 351.729 423.056 347.793 c 1,64,-1
 424.793 337.944 l 1,55,-1
419.444 333.207 m 0,65,66
 416.944 335.208 416.944 335.208 414.944 336.208 c 1,67,-1
 413.208 346.056 l 1,68,-1
 415.208 348.056 l 1,69,-1
 425.056 349.792 l 1,70,71
 428.39 345.126 428.39 345.126 428.389 344.459 c 2,72,-1
 430.126 334.61 l 1,73,-1
 430.033 334.5 l 1,74,-1
 420.185 332.764 l 2,75,76
 420.001 332.762 420.001 332.762 419.444 333.207 c 0,65,66
EndSplineSet
Validated: 37
EndChar

StartChar: ccedilla
Encoding: 231 231 267
Width: 512
GlyphClass: 2
Flags: W
AnchorPoint: "Anchor-8" 0 0 basechar 0
AnchorPoint: "Anchor-7" 0 0 basechar 0
AnchorPoint: "Anchor-6" 293 468 basechar 0
AnchorPoint: "Anchor-5" 0 0 basechar 0
AnchorPoint: "Anchor-4" 293 -181 basechar 0
LayerCount: 2
Fore
SplineSet
418 113 m 1,1,-1
 461 62 l 1,2,3
 403 1 403 1 327 -9 c 1,4,-1
 322 -48 l 1,5,6
 365 -52 365 -52 387 -71 c 128,-1,7
 409 -90 409 -90 409 -115 c 0,8,9
 409 -152 409 -152 378 -177 c 128,-1,10
 347 -202 347 -202 290 -202 c 0,11,12
 236 -202 236 -202 188 -170 c 1,13,-1
 214 -127 l 1,14,15
 253 -158 253 -158 303 -158 c 0,16,17
 354 -158 354 -158 354 -121 c 0,18,19
 354 -105 354 -105 340.5 -96 c 128,-1,20
 327 -87 327 -87 302 -87 c 2,21,-1
 271 -87 l 1,22,-1
 282 -11 l 1,23,24
 217 -9 217 -9 166 23.5 c 128,-1,25
 115 56 115 56 86 111 c 128,-1,26
 57 166 57 166 57 233 c 0,27,28
 57 303 57 303 87.5 358.5 c 128,-1,29
 118 414 118 414 171 445.5 c 128,-1,30
 224 477 224 477 291 477 c 0,31,32
 347 477 347 477 393 454 c 128,-1,33
 439 431 439 431 468 390 c 1,34,-1
 422 345 l 1,35,-1
 421 344 l 1,36,37
 391 383 391 383 360 399 c 128,-1,38
 329 415 329 415 283 415 c 0,39,40
 243 415 243 415 208.5 393 c 128,-1,41
 174 371 174 371 153.5 331 c 128,-1,42
 133 291 133 291 133 239 c 256,43,44
 133 187 133 187 154 144.5 c 128,-1,45
 175 102 175 102 212.5 78.5 c 128,-1,46
 250 55 250 55 296 55 c 0,47,0
 367 56 367 56 418 113 c 1,1,-1
419 342 m 1,49,-1
 415 338 l 1,50,-1
 410 343 l 1,51,48
 410 349 410 349 419 342 c 1,49,-1
423.5 339 m 128,-1,53
 421 341 421 341 419 342 c 1,54,-1
 421 344 l 1,55,52
 426 337 426 337 423.5 339 c 128,-1,53
EndSplineSet
Validated: 5
EndChar

StartChar: uni1E09
Encoding: 7689 7689 268
Width: 512
GlyphClass: 2
Flags: W
AnchorPoint: "Anchor-8" 0 0 basechar 0
AnchorPoint: "Anchor-7" 0 0 basechar 0
AnchorPoint: "Anchor-6" 312 624 basechar 0
AnchorPoint: "Anchor-5" 0 0 basechar 0
AnchorPoint: "Anchor-4" 293 -181 basechar 0
LayerCount: 2
Fore
SplineSet
389 657 m 1,0,-1
 286 519 l 1,1,-1
 247 546 l 1,2,-1
 333 698 l 1,3,-1
 389 657 l 1,0,-1
418 113 m 1,5,-1
 461 62 l 1,6,7
 403 1 403 1 327 -9 c 1,8,-1
 322 -48 l 1,9,10
 365 -52 365 -52 387 -71 c 128,-1,11
 409 -90 409 -90 409 -115 c 0,12,13
 409 -152 409 -152 378 -177 c 128,-1,14
 347 -202 347 -202 290 -202 c 0,15,16
 236 -202 236 -202 188 -170 c 1,17,-1
 214 -127 l 1,18,19
 253 -158 253 -158 303 -158 c 0,20,21
 354 -158 354 -158 354 -121 c 0,22,23
 354 -105 354 -105 340.5 -96 c 128,-1,24
 327 -87 327 -87 302 -87 c 2,25,-1
 271 -87 l 1,26,-1
 282 -11 l 1,27,28
 217 -9 217 -9 166 23.5 c 128,-1,29
 115 56 115 56 86 111 c 128,-1,30
 57 166 57 166 57 233 c 0,31,32
 57 303 57 303 87.5 358.5 c 128,-1,33
 118 414 118 414 171 445.5 c 128,-1,34
 224 477 224 477 291 477 c 0,35,36
 347 477 347 477 393 454 c 128,-1,37
 439 431 439 431 468 390 c 1,38,-1
 422 345 l 1,39,-1
 421 344 l 1,40,41
 391 383 391 383 360 399 c 128,-1,42
 329 415 329 415 283 415 c 0,43,44
 243 415 243 415 208.5 393 c 128,-1,45
 174 371 174 371 153.5 331 c 128,-1,46
 133 291 133 291 133 239 c 256,47,48
 133 187 133 187 154 144.5 c 128,-1,49
 175 102 175 102 212.5 78.5 c 128,-1,50
 250 55 250 55 296 55 c 0,51,4
 367 56 367 56 418 113 c 1,5,-1
419 342 m 1,53,-1
 415 338 l 1,54,-1
 410 343 l 1,55,52
 410 349 410 349 419 342 c 1,53,-1
423.5 339 m 128,-1,57
 421 341 421 341 419 342 c 1,58,-1
 421 344 l 1,59,56
 426 337 426 337 423.5 339 c 128,-1,57
EndSplineSet
Validated: 5
EndChar

StartChar: d
Encoding: 100 100 271
Width: 512
GlyphClass: 2
Flags: W
AnchorPoint: "Anchor-8" 481 468 basechar 0
AnchorPoint: "Anchor-7" 369 562 basechar 0
AnchorPoint: "Anchor-6" 256 468 basechar 0
AnchorPoint: "Anchor-5" 0 0 basechar 0
AnchorPoint: "Anchor-4" 256 0 basechar 0
LayerCount: 2
Fore
SplineSet
140.944 12.208 m 128,-1,1
 96.9434 40.207 96.9434 40.207 69.4443 96.708 c 0,2,3
 54.1455 128.141 54.1455 128.141 47.3574 166.848 c 2,4,-1
 45.6211 176.695 l 2,5,6
 40.207 207.562 40.207 207.562 40.207 243.056 c 0,7,8
 40.207 324.054 40.207 324.054 68.708 378.056 c 128,-1,9
 97.208 432.056 97.208 432.056 142.707 458.057 c 0,10,11
 173.344 475.561 173.344 475.561 206.016 481.28 c 2,12,-1
 215.863 483.017 l 2,13,14
 231.719 485.792 231.719 485.792 248.056 485.794 c 0,15,16
 295.057 485.792 295.057 485.792 330.056 464.292 c 0,17,18
 356.62 447.975 356.62 447.975 374.208 421.794 c 1,19,-1
 374.208 685.056 l 1,20,-1
 384.056 686.793 l 1,21,-1
 462.056 686.792 l 1,22,-1
 463.792 676.944 l 1,23,-1
 463.793 669.944 l 1,24,25
 457.792 663.944 457.792 663.944 456.292 656.444 c 128,-1,26
 454.792 648.937 454.792 648.937 454.792 631.943 c 2,27,-1
 455.792 68.9443 l 2,28,29
 455.792 43.9438 455.792 43.9438 457.292 27.9434 c 0,30,31
 457.384 26.96 457.384 26.96 457.585 25.2148 c 0,32,33
 459.813 15.4915 459.813 15.4915 464.056 5.79297 c 1,34,-1
 465.792 -4.05566 l 1,35,-1
 455.944 -5.79199 l 1,36,-1
 382.944 -5.79297 l 1,37,38
 377.642 6.32861 377.642 6.32861 375.495 18.4502 c 2,39,-1
 373.758 28.2979 l 1,40,-1
 373.511 29.752 l 2,41,42
 372.978 33.1622 372.978 33.1622 372.708 36.0557 c 0,43,44
 372.048 43.094 372.048 43.094 371.672 52.0312 c 1,45,46
 351.653 24.8287 351.653 24.8287 324.792 7.94434 c 0,47,48
 301.46 -6.72314 301.46 -6.72314 274.126 -11.6113 c 2,49,-1
 264.277 -13.3477 l 1,50,-1
 262.811 -13.6035 l 2,51,52
 249.563 -15.792 249.563 -15.792 235.944 -15.792 c 0,53,0
 184.944 -15.792 184.944 -15.792 140.944 12.208 c 128,-1,1
338.207 108.556 m 0,54,55
 368.208 159.056 368.208 159.056 368.208 241.056 c 0,56,57
 368.208 269.893 368.208 269.893 364.295 294.681 c 0,58,59
 356.346 335.128 356.346 335.128 337.444 364.208 c 0,60,61
 304.944 414.208 304.944 414.208 240.944 414.207 c 0,62,63
 230.859 414.207 230.859 414.207 221.182 412.916 c 0,64,65
 181.183 404.074 181.183 404.074 156.792 370.444 c 0,66,67
 123.792 324.945 123.792 324.945 123.792 245.944 c 0,68,69
 123.792 213.761 123.792 213.761 128.174 186.096 c 0,70,71
 136.466 143.329 136.466 143.329 156.057 112.792 c 0,72,73
 190.056 59.7925 190.056 59.7925 255.056 59.792 c 0,74,75
 264.589 59.792 264.589 59.792 273.639 60.9844 c 0,76,77
 315.518 70.3627 315.518 70.3627 338.207 108.556 c 0,54,55
EndSplineSet
Validated: 33
EndChar

StartChar: eth
Encoding: 240 240 272
Width: 512
GlyphClass: 2
Flags: W
LayerCount: 2
Fore
SplineSet
152 19 m 128,-1,1
 101 50 101 50 71 105.5 c 128,-1,2
 41 161 41 161 41 228 c 256,3,4
 41 295 41 295 70.5 352.5 c 128,-1,5
 100 410 100 410 148 444 c 128,-1,6
 196 478 196 478 248 478 c 0,7,8
 328 478 328 478 378 425 c 1,9,10
 344 506 344 506 290 565 c 1,11,-1
 159 528 l 1,12,-1
 140 578 l 1,13,-1
 247 606 l 1,14,15
 198 647 198 647 142 672 c 1,16,-1
 225 688 l 1,17,18
 274 660 274 660 314 625 c 1,19,-1
 425 654 l 1,20,-1
 442 609 l 1,21,-1
 355 584 l 1,22,23
 471 453 471 453 471 259 c 0,24,25
 471 134 471 134 416 61 c 128,-1,26
 361 -12 361 -12 262 -12 c 0,27,0
 203 -12 203 -12 152 19 c 128,-1,1
357 98 m 128,-1,29
 396 145 396 145 396 238 c 0,30,31
 396 329 396 329 355 372.5 c 128,-1,32
 314 416 314 416 259 416 c 0,33,34
 224 416 224 416 192.5 395.5 c 128,-1,35
 161 375 161 375 140.5 334.5 c 128,-1,36
 120 294 120 294 120 238 c 0,37,38
 120 184 120 184 139 141 c 128,-1,39
 158 98 158 98 190.5 74.5 c 128,-1,40
 223 51 223 51 262 51 c 0,41,28
 318 51 318 51 357 98 c 128,-1,29
EndSplineSet
Validated: 1
EndChar

StartChar: dcaron
Encoding: 271 271 273
Width: 512
GlyphClass: 2
Flags: W
LayerCount: 2
Fore
SplineSet
105 17.5 m 128,-1,1
 69 45 69 45 47.5 101.5 c 128,-1,2
 26 158 26 158 26 239 c 256,3,4
 26 320 26 320 50 374 c 128,-1,5
 74 428 74 428 112 454 c 128,-1,6
 150 480 150 480 191 480 c 0,7,8
 228 480 228 480 256 458.5 c 128,-1,9
 284 437 284 437 298 399 c 1,10,-1
 298 681 l 1,11,-1
 377 681 l 1,12,13
 377 675 377 675 372 664.5 c 128,-1,14
 367 654 367 654 367 647 c 2,15,-1
 368 44 l 2,16,17
 368 20 368 20 373 0 c 1,18,-1
 299 0 l 1,19,20
 295 11 295 11 295 35 c 2,21,-1
 295 75 l 1,22,23
 278 36 278 36 247 13 c 128,-1,24
 216 -10 216 -10 185 -10 c 0,25,0
 141 -10 141 -10 105 17.5 c 128,-1,1
478.5 670.5 m 128,-1,27
 489 660 489 660 489 644 c 0,28,29
 489 635 489 635 484 622 c 2,30,-1
 432 495 l 1,31,-1
 389 511 l 1,32,-1
 403 556 l 2,33,34
 409 576 409 576 410 607 c 2,35,-1
 410 640 l 2,36,37
 410 659 410 659 421.5 670 c 128,-1,38
 433 681 433 681 452 681 c 0,39,26
 468 681 468 681 478.5 670.5 c 128,-1,27
267 106.5 m 128,-1,41
 292 159 292 159 292 237 c 0,42,43
 292 320 292 320 268.5 370 c 128,-1,44
 245 420 245 420 203 420 c 0,45,46
 151 420 151 420 124 375 c 128,-1,47
 97 330 97 330 97 250 c 0,48,49
 97 160 97 160 124 107 c 128,-1,50
 151 54 151 54 200 54 c 0,51,40
 242 54 242 54 267 106.5 c 128,-1,41
EndSplineSet
Validated: 1
EndChar

StartChar: dcroat
Encoding: 273 273 274
Width: 512
GlyphClass: 2
Flags: W
AnchorPoint: "Anchor-8" 481 468 basechar 0
AnchorPoint: "Anchor-7" 369 562 basechar 0
AnchorPoint: "Anchor-6" 256 468 basechar 0
AnchorPoint: "Anchor-5" 0 0 basechar 0
AnchorPoint: "Anchor-4" 256 0 basechar 0
LayerCount: 2
Fore
SplineSet
512 532 m 1,0,-1
 449 532 l 1,1,-1
 450 73 l 2,2,3
 450 48 450 48 451.5 32 c 128,-1,4
 453 16 453 16 460 0 c 1,5,-1
 387 0 l 1,6,7
 380 16 380 16 378.5 32 c 128,-1,8
 377 48 377 48 377 73 c 1,9,10
 354 34 354 34 319 12 c 128,-1,11
 284 -10 284 -10 240 -10 c 0,12,13
 190 -10 190 -10 145.5 18 c 128,-1,14
 101 46 101 46 73.5 102.5 c 128,-1,15
 46 159 46 159 46 239 c 0,16,17
 46 320 46 320 74.5 374 c 128,-1,18
 103 428 103 428 148.5 454 c 128,-1,19
 194 480 194 480 244 480 c 0,20,21
 291 480 291 480 326 458.5 c 128,-1,22
 361 437 361 437 380 399 c 1,23,-1
 380 532 l 1,24,-1
 236 532 l 1,25,-1
 236 591 l 1,26,-1
 380 591 l 1,27,-1
 380 681 l 1,28,-1
 458 681 l 1,29,-1
 458 674 l 1,30,31
 452 668 452 668 450.5 660.5 c 128,-1,32
 449 653 449 653 449 636 c 2,33,-1
 449 591 l 1,34,-1
 512 591 l 1,35,-1
 512 532 l 1,0,-1
344 104.5 m 128,-1,37
 374 155 374 155 374 237 c 0,38,39
 374 320 374 320 341.5 370 c 128,-1,40
 309 420 309 420 245 420 c 0,41,42
 184 420 184 420 151 374.5 c 128,-1,43
 118 329 118 329 118 250 c 0,44,45
 118 160 118 160 152 107 c 128,-1,46
 186 54 186 54 251 54 c 0,47,36
 314 54 314 54 344 104.5 c 128,-1,37
EndSplineSet
Validated: 1
EndChar

StartChar: e
Encoding: 101 101 277
Width: 512
GlyphClass: 2
Flags: W
AnchorPoint: "Anchor-8" 0 0 basechar 0
AnchorPoint: "Anchor-7" 0 0 basechar 0
AnchorPoint: "Anchor-6" 266 468 basechar 0
AnchorPoint: "Anchor-5" 326 10 basechar 0
AnchorPoint: "Anchor-4" 287 0 basechar 0
LayerCount: 2
Fore
SplineSet
107.944 47.707 m 0,0,1
 63.5273 93.2007 63.5273 93.2007 50.9297 165.125 c 2,2,-1
 49.1934 174.974 l 2,3,4
 44.2085 203.444 44.2085 203.444 44.207 236.056 c 0,5,6
 44.2085 313.055 44.2085 313.055 73.208 369.056 c 128,-1,7
 102.208 425.055 102.208 425.055 150.707 454.056 c 0,8,9
 182.761 473.22 182.761 473.22 219.835 479.721 c 2,10,-1
 229.683 481.457 l 2,11,12
 248.708 484.792 248.708 484.792 269.056 484.792 c 0,13,14
 354.055 484.792 354.055 484.792 407.056 428.793 c 0,15,16
 443.637 390.14 443.637 390.14 454.97 325.763 c 2,17,-1
 456.706 315.914 l 2,18,19
 461.792 287.021 461.792 287.021 461.793 252.944 c 0,20,21
 461.793 241.945 461.793 241.945 459.792 218.943 c 1,22,-1
 449.944 217.207 l 1,23,-1
 126.877 217.208 l 1,24,25
 127.752 200.788 127.752 200.788 130.064 185.756 c 0,26,27
 140.809 131.04 140.809 131.04 173.056 98.792 c 0,28,29
 217.057 54.7925 217.057 54.7925 285.056 54.792 c 0,30,31
 299.233 54.792 299.233 54.792 312.552 56.7256 c 0,32,33
 361.604 67.0692 361.604 67.0692 395.208 105.056 c 1,34,-1
 405.056 106.793 l 1,35,-1
 446.057 66.792 l 1,36,-1
 447.793 56.9434 l 1,37,38
 402.783 2.01758 402.783 2.01758 331.582 -10.4258 c 2,39,-1
 321.733 -12.1621 l 2,40,41
 299.604 -16.0293 299.604 -16.0293 274.943 -15.792 c 0,42,43
 169.945 -15.792 169.945 -15.792 107.944 47.707 c 0,0,1
375.202 286.793 m 1,44,45
 375.056 303.285 375.056 303.285 372.943 317.482 c 0,46,47
 365.292 354.424 365.292 354.424 343.444 379.208 c 0,48,49
 309.943 417.208 309.943 417.208 255.944 417.207 c 0,50,51
 246.944 417.207 246.944 417.207 237.685 416 c 0,52,53
 203.987 408.708 203.987 408.708 176.792 382.944 c 0,54,55
 141.618 349.621 141.618 349.621 131.229 286.792 c 1,56,-1
 375.202 286.793 l 1,44,45
EndSplineSet
Validated: 33
EndChar

StartChar: uni1E1D
Encoding: 7709 7709 281
Width: 512
GlyphClass: 2
Flags: W
AnchorPoint: "Anchor-8" 0 0 basechar 0
AnchorPoint: "Anchor-7" 0 0 basechar 0
AnchorPoint: "Anchor-6" 266 670 basechar 0
AnchorPoint: "Anchor-5" 326 10 basechar 0
AnchorPoint: "Anchor-4" 287 -181 basechar 0
LayerCount: 2
Fore
SplineSet
181.5 575.5 m 128,-1,1
 144 600 144 600 121 645 c 1,2,-1
 174 670 l 1,3,4
 190 634 190 634 213 617 c 128,-1,5
 236 600 236 600 266 600 c 256,6,7
 297 600 297 600 319.5 617 c 128,-1,8
 342 634 342 634 358 670 c 1,9,-1
 412 645 l 1,10,11
 388 600 388 600 350.5 575.5 c 128,-1,12
 313 551 313 551 266 551 c 256,13,0
 219 551 219 551 181.5 575.5 c 128,-1,1
454 223 m 1,15,-1
 121 223 l 1,16,17
 125 137 125 137 169 93 c 128,-1,18
 213 49 213 49 281 49 c 0,19,20
 355 49 355 49 401 101 c 1,21,-1
 442 61 l 1,22,23
 395 5 395 5 321 -7 c 1,24,-1
 315 -48 l 1,25,26
 358 -52 358 -52 380 -71 c 128,-1,27
 402 -90 402 -90 402 -115 c 0,28,29
 402 -152 402 -152 371.5 -177 c 128,-1,30
 341 -202 341 -202 284 -202 c 0,31,32
 230 -202 230 -202 182 -170 c 1,33,-1
 208 -127 l 1,34,35
 247 -158 247 -158 297 -158 c 0,36,37
 348 -158 348 -158 348 -121 c 0,38,39
 348 -105 348 -105 334.5 -96 c 128,-1,40
 321 -87 321 -87 296 -87 c 2,41,-1
 265 -87 l 1,42,-1
 275 -10 l 1,43,44
 172 -9 172 -9 111 54.5 c 128,-1,45
 50 118 50 118 50 232 c 0,46,47
 50 309 50 309 79 365 c 128,-1,48
 108 421 108 421 156.5 450 c 128,-1,49
 205 479 205 479 265 479 c 0,50,51
 350 479 350 479 403 423 c 128,-1,52
 456 367 456 367 456 257 c 0,53,14
 456 246 456 246 454 223 c 1,15,-1
381 281 m 1,54,55
 381 347 381 347 347.5 385 c 128,-1,56
 314 423 314 423 260 423 c 0,57,58
 209 423 209 423 171 387 c 128,-1,59
 133 351 133 351 124 281 c 1,60,-1
 381 281 l 1,54,55
EndSplineSet
Validated: 1
EndChar

StartChar: uni029A
Encoding: 666 666 299
Width: 512
GlyphClass: 2
Flags: W
LayerCount: 2
Fore
SplineSet
151.5 12.5 m 128,-1,1
 106 33 106 33 81 68 c 128,-1,2
 56 103 56 103 56 146 c 256,3,4
 56 189 56 189 80 219 c 128,-1,5
 104 249 104 249 146 258 c 1,6,7
 85 293 85 293 85 352 c 0,8,9
 85 388 85 388 108 416.5 c 128,-1,10
 131 445 131 445 171 461.5 c 128,-1,11
 211 478 211 478 260 478 c 0,12,13
 323 478 323 478 372 447 c 128,-1,14
 421 416 421 416 447.5 360.5 c 128,-1,15
 474 305 474 305 474 234 c 256,16,17
 474 163 474 163 446.5 108.5 c 128,-1,18
 419 54 419 54 369 23 c 128,-1,19
 319 -8 319 -8 254 -8 c 0,20,0
 197 -8 197 -8 151.5 12.5 c 128,-1,1
357 101.5 m 128,-1,22
 396 150 396 150 396 236 c 0,23,24
 396 317 396 317 358.5 367 c 128,-1,25
 321 417 321 417 257 417 c 0,26,27
 211 417 211 417 187.5 398 c 128,-1,28
 164 379 164 379 164 347 c 0,29,30
 164 284 164 284 257 284 c 0,31,32
 273 284 273 284 282 285 c 1,33,-1
 282 216 l 1,34,35
 275 217 275 217 264 218 c 128,-1,36
 253 219 253 219 245 219 c 0,37,38
 196 219 196 219 166 199 c 128,-1,39
 136 179 136 179 136 140 c 256,40,41
 136 101 136 101 169 77 c 128,-1,42
 202 53 202 53 252 53 c 0,43,21
 318 53 318 53 357 101.5 c 128,-1,22
EndSplineSet
Validated: 1
EndChar

StartChar: uni0259
Encoding: 601 601 301
Width: 512
GlyphClass: 2
Flags: W
AnchorPoint: "Anchor-8" 0 0 basechar 0
AnchorPoint: "Anchor-7" 0 0 basechar 0
AnchorPoint: "Anchor-6" 225 468 basechar 0
AnchorPoint: "Anchor-5" 186 458 basechar 0
AnchorPoint: "Anchor-4" 246 0 basechar 0
LayerCount: 2
Fore
SplineSet
400 414.5 m 128,-1,1
 462 351 462 351 462 236 c 0,2,3
 462 159 462 159 433 103 c 128,-1,4
 404 47 404 47 355.5 18 c 128,-1,5
 307 -11 307 -11 247 -11 c 0,6,7
 162 -11 162 -11 109 45 c 128,-1,8
 56 101 56 101 56 211 c 0,9,10
 56 222 56 222 58 245 c 1,11,-1
 391 245 l 1,12,13
 387 331 387 331 343 375 c 128,-1,14
 299 419 299 419 231 419 c 0,15,16
 158 419 158 419 111 367 c 1,17,-1
 70 407 l 1,18,19
 129 479 129 479 233 478 c 256,20,0
 338 478 338 478 400 414.5 c 128,-1,1
131 187 m 1,21,22
 131 121 131 121 164.5 83 c 128,-1,23
 198 45 198 45 252 45 c 0,24,25
 303 45 303 45 341 81 c 128,-1,26
 379 117 379 117 388 187 c 1,27,-1
 131 187 l 1,21,22
EndSplineSet
Validated: 33
EndChar

StartChar: f
Encoding: 102 102 303
Width: 512
GlyphClass: 2
Flags: W
LayerCount: 2
Fore
SplineSet
450.792 563.944 m 1,0,-1
 449.792 562.944 l 1,1,-1
 439.944 561.208 l 1,2,3
 410.945 597.208 410.945 597.208 391.444 609.708 c 128,-1,4
 371.944 622.209 371.944 622.209 335.944 622.208 c 0,5,6
 326.453 622.208 326.453 622.208 317.407 621.027 c 0,7,8
 289.16 614.84 289.16 614.84 270.293 594.944 c 0,9,10
 242.792 565.945 242.792 565.945 242.793 502.944 c 2,11,-1
 242.793 473.792 l 1,12,-1
 394.057 473.792 l 1,13,-1
 395.793 463.944 l 1,14,-1
 395.792 405.944 l 1,15,-1
 385.943 404.208 l 1,16,-1
 242.792 404.207 l 1,17,-1
 242.792 -4.05566 l 1,18,-1
 232.944 -5.79199 l 1,19,-1
 161.944 -5.79199 l 1,20,-1
 160.208 4.05664 l 1,21,-1
 160.208 404.207 l 1,22,-1
 60.9443 404.208 l 1,23,-1
 59.207 414.056 l 1,24,-1
 59.208 472.056 l 1,25,-1
 69.0566 473.792 l 1,26,-1
 160.207 473.792 l 1,27,-1
 160.208 511.056 l 2,28,29
 160.208 601.056 160.208 601.056 206.708 646.057 c 0,30,31
 240.438 678.696 240.438 678.696 291.265 687.661 c 2,32,-1
 301.112 689.398 l 1,33,-1
 302.058 689.562 l 1,34,-1
 302.601 689.647 l 2,35,36
 321.471 692.793 321.471 692.793 342.056 692.793 c 0,37,38
 387.056 692.793 387.056 692.793 425.556 676.292 c 128,-1,39
 464.056 659.793 464.056 659.793 488.056 628.792 c 1,40,-1
 489.793 618.944 l 1,41,-1
 450.792 563.944 l 1,0,-1
427.208 569.056 m 0,42,43
 427.208 570.77 427.208 570.77 428.514 570.852 c 2,44,-1
 438.361 572.588 l 2,45,46
 439.341 572.649 439.341 572.649 441.056 571.792 c 0,47,48
 445.056 569.792 445.056 569.792 446.056 569.792 c 2,49,-1
 447.792 559.943 l 1,50,-1
 444.792 555.944 l 1,51,-1
 434.943 554.208 l 1,52,-1
 428.944 558.208 l 1,53,54
 428.596 561.185 428.596 561.185 427.208 569.056 c 0,42,43
443.6 555.114 m 2,55,56
 443.319 555.082 443.319 555.082 442.443 555.709 c 0,57,58
 438.944 558.208 438.944 558.208 437.944 558.207 c 2,59,-1
 436.208 568.056 l 1,60,-1
 438.207 571.056 l 1,61,-1
 448.056 572.792 l 1,62,63
 451.555 568.126 451.555 568.126 451.822 567.032 c 2,64,-1
 453.56 557.184 l 1,65,-1
 443.6 555.114 l 2,55,56
EndSplineSet
Validated: 37
EndChar

StartChar: g
Encoding: 103 103 304
Width: 512
GlyphClass: 2
Flags: W
AnchorPoint: "Anchor-8" 0 0 basechar 0
AnchorPoint: "Anchor-7" 0 0 basechar 0
AnchorPoint: "Anchor-6" 231 468 basechar 0
AnchorPoint: "Anchor-5" 0 0 basechar 0
AnchorPoint: "Anchor-4" 246 -166 basechar 0
LayerCount: 2
Fore
SplineSet
455.944 415.207 m 0,0,1
 441.462 415.207 441.462 415.207 428.745 413.34 c 0,2,3
 404.741 408.251 404.741 408.251 385.89 396.31 c 1,4,5
 393.042 379.087 393.042 379.087 396.267 361.022 c 2,6,-1
 398.003 351.175 l 1,7,-1
 398.26 349.707 l 2,8,9
 400.793 334.511 400.793 334.511 400.793 318.944 c 0,10,11
 400.793 272.945 400.793 272.945 380.792 235.444 c 128,-1,12
 360.792 197.944 360.792 197.944 323.793 176.444 c 0,13,14
 300.465 162.89 300.465 162.89 271.974 157.881 c 2,15,-1
 262.125 156.145 l 2,16,17
 245.426 153.208 245.426 153.208 226.944 153.208 c 0,18,19
 191.634 153.208 191.634 153.208 161.512 164.582 c 1,20,21
 146.689 143.861 146.689 143.861 145.792 125.943 c 1,22,-1
 145.808 124.805 l 1,23,24
 151.37 108.353 151.37 108.353 175.557 100.292 c 0,25,26
 207.055 89.792 207.055 89.792 288.056 89.793 c 0,27,28
 387.056 89.793 387.056 89.793 423.556 59.792 c 0,29,30
 450.931 37.292 450.931 37.292 457.774 -1.51953 c 2,31,-1
 459.511 -11.3682 l 2,32,33
 461.792 -24.3056 461.792 -24.3056 461.793 -39.0557 c 0,34,35
 461.792 -99.0557 461.792 -99.0557 412.292 -139.556 c 0,36,37
 380.982 -165.173 380.982 -165.173 327.867 -174.587 c 2,38,-1
 318.019 -176.323 l 2,39,40
 316.913 -176.513 316.913 -176.513 315.987 -176.676 c 0,41,42
 285.908 -181.792 285.908 -181.792 248.944 -181.792 c 0,43,44
 148.944 -181.792 148.944 -181.792 91.9443 -151.293 c 0,45,46
 44.7544 -126.042 44.7544 -126.042 36.6328 -80.5742 c 2,47,-1
 34.8965 -70.7256 l 1,48,-1
 34.6621 -69.3711 l 2,49,50
 33.207 -60.288 33.207 -60.288 33.207 -50.9443 c 0,51,52
 33.2085 -13.9438 33.2085 -13.9438 53.708 12.5557 c 0,53,54
 72.0954 36.3257 72.0954 36.3257 99.4326 50.6836 c 1,55,56
 79.5007 67.9624 79.5007 67.9624 75.1699 92.6309 c 2,57,-1
 73.4336 102.479 l 2,58,59
 72.2075 109.46 72.2075 109.46 72.208 117.056 c 0,60,61
 72.208 156.028 72.208 156.028 110.145 198.602 c 1,62,63
 88.4157 219.913 88.4157 219.913 76.9443 247.707 c 0,64,65
 70.1694 264.124 70.1694 264.124 66.9258 282.304 c 2,66,-1
 65.1895 292.152 l 1,67,-1
 65.0266 293.082 l 2,68,69
 64.9399 293.631 64.9399 293.631 64.9388 293.631 c 0,70,71
 62.208 309.926 62.208 309.926 62.208 327.057 c 0,72,73
 62.2065 372.057 62.2065 372.057 82.207 409.056 c 128,-1,74
 102.207 446.056 102.207 446.056 139.208 467.556 c 0,75,76
 162.791 481.259 162.791 481.259 191.247 486.228 c 2,77,-1
 201.096 487.965 l 2,78,79
 217.287 490.792 217.287 490.792 235.056 490.792 c 0,80,81
 306.818 490.792 306.818 490.792 351.408 446.556 c 1,82,83
 373.615 465.431 373.615 465.431 396.207 474.556 c 0,84,85
 409.43 479.895 409.43 479.895 424.199 482.519 c 2,86,-1
 434.048 484.256 l 1,87,-1
 434.985 484.418 l 2,88,89
 435.533 484.501 435.533 484.501 435.532 484.502 c 0,90,91
 449.412 486.792 449.412 486.792 464.056 486.792 c 2,92,-1
 481.056 485.793 l 1,93,-1
 482.792 475.944 l 1,94,-1
 491.792 415.944 l 1,95,-1
 481.944 414.208 l 1,96,97
 472.944 415.207 472.944 415.207 455.944 415.207 c 0,0,1
298.708 254.056 m 0,98,99
 328.207 284.056 328.207 284.056 328.207 327.056 c 0,100,101
 328.207 334.3 328.207 334.3 327.298 341.757 c 0,102,103
 321.059 369.092 321.059 369.092 300.444 389.707 c 0,104,105
 270.944 419.208 270.944 419.208 226.944 419.208 c 0,106,107
 219.094 419.208 219.094 419.208 211.543 418.246 c 0,108,109
 183.816 411.813 183.816 411.813 163.792 391.443 c 0,110,111
 134.792 361.944 134.792 361.944 134.793 318.944 c 0,112,113
 134.793 311.166 134.793 311.166 135.741 303.817 c 0,114,115
 142.141 276.396 142.141 276.396 162.056 255.792 c 0,116,117
 191.055 225.792 191.055 225.792 235.056 225.792 c 0,118,119
 242.813 225.792 242.813 225.792 250.24 226.74 c 0,120,121
 278.231 233.231 278.231 233.231 298.708 254.056 c 0,98,99
375.444 -13.793 m 0,122,123
 366.944 0.208008 366.944 0.208008 340.944 6.70801 c 128,-1,124
 314.945 13.2075 314.945 13.2075 263.944 13.208 c 0,125,126
 194.33 13.208 194.33 13.208 151.87 25.6797 c 1,127,128
 130.774 11.1608 130.774 11.1608 121.792 -4.55566 c 0,129,130
 111.792 -22.0562 111.792 -22.0562 111.793 -51.0557 c 0,131,132
 111.793 -53.3791 111.793 -53.3791 111.996 -56.0479 c 0,133,134
 118.779 -80.5693 118.779 -80.5693 149.056 -95.707 c 0,135,136
 188.056 -115.208 188.056 -115.208 258.056 -115.208 c 0,137,138
 285.901 -115.208 285.901 -115.208 308.013 -111.833 c 1,139,140
 332.864 -106.85 332.864 -106.85 349.208 -96.9434 c 0,141,142
 382.208 -76.9438 382.208 -76.9438 382.207 -41.9443 c 0,143,144
 382.207 -35.346 382.207 -35.346 381.502 -28.9316 c 0,145,146
 379.482 -20.4424 379.482 -20.4424 375.444 -13.793 c 0,122,123
EndSplineSet
Validated: 33
EndChar

StartChar: h
Encoding: 104 104 311
Width: 512
GlyphClass: 2
Flags: W
AnchorPoint: "Anchor-8" 0 0 basechar 0
AnchorPoint: "Anchor-7" 133 562 basechar 0
AnchorPoint: "Anchor-6" 121 681 basechar 0
AnchorPoint: "Anchor-5" 0 0 basechar 0
AnchorPoint: "Anchor-4" 256 0 basechar 0
LayerCount: 2
Fore
SplineSet
79.0557 686.793 m 1,0,-1
 160.057 686.792 l 1,1,-1
 161.793 676.943 l 1,2,-1
 161.792 669.943 l 1,3,4
 155.792 663.945 155.792 663.945 153.792 656.444 c 128,-1,5
 151.792 648.944 151.792 648.944 151.793 631.944 c 2,6,-1
 151.792 405.357 l 1,7,8
 176.591 437.208 176.591 437.208 209.708 457.556 c 0,9,10
 238.895 475.491 238.895 475.491 268.823 480.812 c 2,11,-1
 278.672 482.548 l 1,12,-1
 280.074 482.791 l 2,13,14
 292.244 484.793 292.244 484.793 304.056 484.793 c 0,15,16
 371.056 484.793 371.056 484.793 408.556 437.792 c 0,17,18
 431.905 408.529 431.905 408.529 440.716 358.329 c 2,19,-1
 442.452 348.48 l 2,20,21
 447.793 318.057 447.793 318.057 447.793 279.944 c 2,22,-1
 447.793 -4.05664 l 1,23,-1
 437.944 -5.79297 l 1,24,-1
 366.944 -5.79297 l 1,25,-1
 365.207 4.05566 l 1,26,-1
 365.207 286.056 l 2,27,28
 365.208 311.336 365.208 311.336 362.125 331.71 c 1,29,30
 356.283 360.498 356.283 360.498 343.444 377.708 c 0,31,32
 319.944 409.208 319.944 409.208 280.944 409.207 c 0,33,34
 272.811 409.207 272.811 409.207 264.826 408.126 c 0,35,36
 244.804 403.639 244.804 403.639 225.792 392.943 c 0,37,38
 193.791 374.945 193.791 374.945 172.792 341.444 c 128,-1,39
 151.792 307.945 151.792 307.945 151.792 264.944 c 2,40,-1
 151.793 -4.05566 l 1,41,-1
 141.944 -5.79199 l 1,42,-1
 70.9443 -5.79199 l 1,43,-1
 69.207 4.05566 l 1,44,-1
 69.208 685.057 l 1,45,-1
 79.0557 686.793 l 1,0,-1
EndSplineSet
Validated: 33
EndChar

StartChar: hbar
Encoding: 295 295 312
Width: 512
GlyphClass: 2
Flags: W
AnchorPoint: "Anchor-8" 0 0 basechar 0
AnchorPoint: "Anchor-7" 133 562 basechar 0
AnchorPoint: "Anchor-6" 121 681 basechar 0
AnchorPoint: "Anchor-5" 0 0 basechar 0
AnchorPoint: "Anchor-4" 256 0 basechar 0
LayerCount: 2
Fore
SplineSet
404.5 432 m 128,-1,1
 442 385 442 385 442 284 c 2,2,-1
 442 0 l 1,3,-1
 371 0 l 1,4,-1
 371 282 l 2,5,6
 371 352 371 352 347.5 383.5 c 128,-1,7
 324 415 324 415 285 415 c 0,8,9
 252 415 252 415 220 397 c 128,-1,10
 188 379 188 379 167 345.5 c 128,-1,11
 146 312 146 312 146 269 c 2,12,-1
 146 0 l 1,13,-1
 75 0 l 1,14,-1
 75 532 l 1,15,-1
 0 532 l 1,16,-1
 0 591 l 1,17,-1
 75 591 l 1,18,-1
 75 681 l 1,19,-1
 156 681 l 1,20,-1
 156 674 l 1,21,22
 150 668 150 668 148 660.5 c 128,-1,23
 146 653 146 653 146 636 c 2,24,-1
 146 591 l 1,25,-1
 276 591 l 1,26,-1
 276 532 l 1,27,-1
 146 532 l 1,28,-1
 146 385 l 1,29,30
 174 428 174 428 215.5 453.5 c 128,-1,31
 257 479 257 479 300 479 c 0,32,0
 367 479 367 479 404.5 432 c 128,-1,1
EndSplineSet
Validated: 1
EndChar

StartChar: dotlessi
Encoding: 305 305 317
Width: 512
GlyphClass: 2
Flags: W
AnchorPoint: "Anchor-8" 0 0 basechar 0
AnchorPoint: "Anchor-7" 0 0 basechar 0
AnchorPoint: "Anchor-6" 256 468 basechar 0
AnchorPoint: "Anchor-5" 354 0 basechar 0
AnchorPoint: "Anchor-4" 256 0 basechar 0
LayerCount: 2
Fore
SplineSet
102 0 m 1,0,-1
 102 59 l 1,1,-1
 222 59 l 1,2,-1
 222 409 l 1,3,-1
 109 409 l 1,4,-1
 109 468 l 1,5,-1
 296 468 l 1,6,-1
 296 59 l 1,7,-1
 406 59 l 1,8,-1
 406 0 l 1,9,-1
 102 0 l 1,0,-1
EndSplineSet
Validated: 1
EndChar

StartChar: iogonek
Encoding: 303 303 330
Width: 512
GlyphClass: 2
Flags: W
AnchorPoint: "Anchor-8" 0 0 basechar 0
AnchorPoint: "Anchor-7" 0 0 basechar 0
AnchorPoint: "Anchor-6" 256 620 basechar 0
AnchorPoint: "Anchor-5" 354 0 basechar 0
AnchorPoint: "Anchor-4" 256 0 basechar 0
LayerCount: 2
Fore
SplineSet
218 581.5 m 128,-1,1
 203 597 203 597 203 618 c 0,2,3
 203 641 203 641 217.5 656.5 c 128,-1,4
 232 672 232 672 255 672 c 0,5,6
 277 672 277 672 292.5 656 c 128,-1,7
 308 640 308 640 308 618 c 256,8,9
 308 596 308 596 292 581 c 128,-1,10
 276 566 276 566 255 566 c 256,11,0
 233 566 233 566 218 581.5 c 128,-1,1
344.5 -64.5 m 128,-1,13
 322 -98 322 -98 322 -126 c 0,14,15
 322 -149 322 -149 337.5 -164 c 128,-1,16
 353 -179 353 -179 385 -183 c 1,17,-1
 369 -232 l 1,18,19
 317 -225 317 -225 285.5 -201.5 c 128,-1,20
 254 -178 254 -178 254 -140 c 0,21,22
 254 -104 254 -104 278.5 -68.5 c 128,-1,23
 303 -33 303 -33 350 0 c 1,24,-1
 102 0 l 1,25,-1
 102 59 l 1,26,-1
 222 59 l 1,27,-1
 222 409 l 1,28,-1
 109 409 l 1,29,-1
 109 468 l 1,30,-1
 296 468 l 1,31,-1
 296 59 l 1,32,-1
 406 59 l 1,33,-1
 406 0 l 1,34,12
 367 -31 367 -31 344.5 -64.5 c 128,-1,13
EndSplineSet
Validated: 1
EndChar

StartChar: uni0237
Encoding: 567 567 333
Width: 512
GlyphClass: 2
Flags: W
AnchorPoint: "Anchor-8" 0 0 basechar 0
AnchorPoint: "Anchor-7" 0 0 basechar 0
AnchorPoint: "Anchor-6" 336 468 basechar 0
AnchorPoint: "Anchor-5" 0 0 basechar 0
AnchorPoint: "Anchor-4" 256 -195 basechar 0
LayerCount: 2
Fore
SplineSet
378 468 m 1,0,-1
 378 23 l 2,1,2
 378 -78 378 -78 328 -128 c 128,-1,3
 278 -178 278 -178 199 -178 c 0,4,5
 154 -178 154 -178 115 -161.5 c 128,-1,6
 76 -145 76 -145 49 -113 c 1,7,-1
 90 -57 l 1,8,-1
 91 -56 l 1,9,-1
 92 -57 l 1,10,11
 112 -84 112 -84 137.5 -99.5 c 128,-1,12
 163 -115 163 -115 198 -115 c 0,13,14
 246 -115 246 -115 274.5 -82 c 128,-1,15
 303 -49 303 -49 303 18 c 2,16,-1
 303 408 l 1,17,-1
 129 408 l 1,18,-1
 129 468 l 1,19,-1
 378 468 l 1,0,-1
102 -54 m 2,20,21
 102 -57 102 -57 99 -56 c 128,-1,22
 96 -55 96 -55 93 -53 c 1,23,-1
 96 -49 l 1,24,-1
 102 -53 l 1,25,-1
 102 -54 l 2,20,21
89 -51 m 128,-1,27
 90 -51 90 -51 93 -53 c 1,28,-1
 91 -56 l 1,29,26
 88 -51 88 -51 89 -51 c 128,-1,27
EndSplineSet
Validated: 5
EndChar

StartChar: k
Encoding: 107 107 335
Width: 512
GlyphClass: 2
Flags: W
AnchorPoint: "Anchor-8" 0 0 basechar 0
AnchorPoint: "Anchor-7" 0 0 basechar 0
AnchorPoint: "Anchor-6" 106 681 basechar 0
AnchorPoint: "Anchor-5" 0 0 basechar 0
AnchorPoint: "Anchor-4" 256 0 basechar 0
LayerCount: 2
Fore
SplineSet
203.323 223.997 m 1,0,-1
 147.792 172.944 l 1,1,-1
 147.792 -4.05566 l 1,2,-1
 137.944 -5.79199 l 1,3,-1
 63.9443 -5.79199 l 1,4,-1
 62.207 4.05664 l 1,5,-1
 62.208 685.056 l 1,6,-1
 72.0566 686.792 l 1,7,-1
 156.056 686.793 l 1,8,-1
 157.792 676.944 l 1,9,-1
 157.792 669.944 l 1,10,11
 151.792 663.944 151.792 663.944 149.792 656.444 c 128,-1,12
 147.792 648.944 147.792 648.944 147.793 631.944 c 2,13,-1
 147.792 267.753 l 1,14,-1
 371.207 474.056 l 1,15,-1
 381.056 475.792 l 1,16,17
 407.055 470.792 407.055 470.792 435.056 470.793 c 2,18,-1
 462.056 470.792 l 1,19,-1
 463.792 460.943 l 1,20,-1
 270.365 279.3 l 1,21,-1
 494.056 5.79199 l 1,22,-1
 495.792 -4.05566 l 1,23,-1
 485.944 -5.79297 l 1,24,-1
 390.944 -9.79199 l 1,25,-1
 203.323 223.997 l 1,0,-1
EndSplineSet
Validated: 33
EndChar

StartChar: kgreenlandic
Encoding: 312 312 337
Width: 512
GlyphClass: 2
Flags: W
AnchorPoint: "Anchor-8" 0 0 basechar 0
AnchorPoint: "Anchor-7" 0 0 basechar 0
AnchorPoint: "Anchor-6" 106 468 basechar 0
AnchorPoint: "Anchor-5" 0 0 basechar 0
AnchorPoint: "Anchor-4" 256 0 basechar 0
LayerCount: 2
Fore
SplineSet
204 234 m 1,0,-1
 142 177 l 1,1,-1
 142 0 l 1,2,-1
 68 0 l 1,3,-1
 68 468 l 1,4,-1
 152 468 l 1,5,6
 152 464 152 464 147 454.5 c 128,-1,7
 142 445 142 445 142 441 c 2,8,-1
 142 253 l 1,9,-1
 378 473 l 1,10,11
 404 468 404 468 432 468 c 2,12,-1
 459 468 l 1,13,-1
 261 280 l 1,14,-1
 490 0 l 1,15,-1
 395 -4 l 1,16,-1
 204 234 l 1,0,-1
EndSplineSet
Validated: 1
EndChar

StartChar: l
Encoding: 108 108 338
Width: 512
GlyphClass: 2
Flags: W
AnchorPoint: "Anchor-8" 492 468 basechar 0
AnchorPoint: "Anchor-7" 256 234 basechar 0
AnchorPoint: "Anchor-6" 256 681 basechar 0
AnchorPoint: "Anchor-5" 0 0 basechar 0
AnchorPoint: "Anchor-4" 256 0 basechar 0
LayerCount: 2
Fore
SplineSet
75.208 4.05566 m 1,0,-1
 75.208 63.0557 l 1,1,-1
 85.0557 64.792 l 1,2,-1
 213.208 64.792 l 1,3,-1
 213.207 616.208 l 1,4,-1
 82.9443 616.208 l 1,5,-1
 81.208 626.057 l 1,6,-1
 81.208 685.056 l 1,7,-1
 91.0557 686.792 l 1,8,-1
 298.056 686.792 l 1,9,-1
 299.793 676.944 l 1,10,-1
 299.792 64.792 l 1,11,-1
 435.056 64.793 l 1,12,-1
 436.792 54.9443 l 1,13,-1
 436.792 -4.05664 l 1,14,-1
 426.944 -5.79297 l 1,15,-1
 76.9443 -5.79199 l 1,16,-1
 75.208 4.05566 l 1,0,-1
EndSplineSet
Validated: 1
EndChar

StartChar: ldot
Encoding: 320 320 342
Width: 512
GlyphClass: 2
Flags: W
LayerCount: 2
Fore
SplineSet
71 0 m 1,0,-1
 71 59 l 1,1,-1
 188 59 l 1,2,-1
 188 622 l 1,3,-1
 77 622 l 1,4,-1
 77 681 l 1,5,-1
 263 681 l 1,6,-1
 263 59 l 1,7,-1
 421 59 l 1,8,-1
 421 0 l 1,9,-1
 71 0 l 1,0,-1
354.5 297.5 m 128,-1,11
 337 314 337 314 337 339 c 256,12,13
 337 364 337 364 355 380.5 c 128,-1,14
 373 397 373 397 397 397 c 256,15,16
 421 397 421 397 440 379.5 c 128,-1,17
 459 362 459 362 459 339 c 256,18,19
 459 315 459 315 441 298 c 128,-1,20
 423 281 423 281 397 281 c 256,21,10
 372 281 372 281 354.5 297.5 c 128,-1,11
EndSplineSet
Validated: 1
EndChar

StartChar: uni01C9
Encoding: 457 457 344
Width: 512
GlyphClass: 2
Flags: W
LayerCount: 2
Fore
SplineSet
19 0 m 1,0,-1
 19 59 l 1,1,-1
 86 59 l 1,2,-1
 86 622 l 1,3,-1
 26 622 l 1,4,-1
 26 681 l 1,5,-1
 161 681 l 1,6,-1
 161 59 l 1,7,-1
 288 59 l 1,8,-1
 288 0 l 1,9,-1
 19 0 l 1,0,-1
354.5 581.5 m 128,-1,11
 339 597 339 597 339 618 c 0,12,13
 339 641 339 641 354 656.5 c 128,-1,14
 369 672 369 672 391 672 c 256,15,16
 413 672 413 672 428.5 656 c 128,-1,17
 444 640 444 640 444 618 c 256,18,19
 444 596 444 596 428.5 581 c 128,-1,20
 413 566 413 566 391 566 c 256,21,10
 370 566 370 566 354.5 581.5 c 128,-1,11
111 -113 m 1,23,-1
 159 -49 l 1,24,25
 163 -53 163 -53 167 -64.5 c 128,-1,26
 171 -76 171 -76 179.5 -84.5 c 128,-1,27
 188 -93 188 -93 211 -103 c 0,28,29
 236 -114 236 -114 259 -115 c 0,30,31
 307 -115 307 -115 336 -82 c 128,-1,32
 365 -49 365 -49 365 18 c 2,33,-1
 365 408 l 1,34,-1
 221 408 l 1,35,-1
 221 468 l 1,36,-1
 439 468 l 1,37,-1
 439 23 l 2,38,39
 439 -77 439 -77 388.5 -125.5 c 128,-1,40
 338 -174 338 -174 254 -178 c 1,41,22
 164 -179 164 -179 111 -113 c 1,23,-1
EndSplineSet
Validated: 33
EndChar

StartChar: lslash
Encoding: 322 322 346
Width: 512
GlyphClass: 2
Flags: W
LayerCount: 2
Fore
SplineSet
81 0 m 1,0,-1
 81 59 l 1,1,-1
 219 59 l 1,2,-1
 219 286 l 1,3,-1
 138 258 l 1,4,-1
 138 326 l 1,5,-1
 219 353 l 1,6,-1
 219 622 l 1,7,-1
 87 622 l 1,8,-1
 87 681 l 1,9,-1
 294 681 l 1,10,-1
 294 379 l 1,11,-1
 387 413 l 1,12,-1
 387 342 l 1,13,-1
 294 310 l 1,14,-1
 294 59 l 1,15,-1
 431 59 l 1,16,-1
 431 0 l 1,17,-1
 81 0 l 1,0,-1
EndSplineSet
Validated: 1
EndChar

StartChar: m
Encoding: 109 109 347
Width: 512
GlyphClass: 2
Flags: W
AnchorPoint: "Anchor-8" 0 0 basechar 0
AnchorPoint: "Anchor-7" 0 0 basechar 0
AnchorPoint: "Anchor-6" 256 468 basechar 0
AnchorPoint: "Anchor-5" 0 0 basechar 0
AnchorPoint: "Anchor-4" 256 0 basechar 0
LayerCount: 2
Fore
SplineSet
43.0557 473.793 m 1,0,-1
 110.056 473.792 l 1,1,-1
 111.793 463.944 l 1,2,-1
 111.792 441.998 l 1,3,4
 124.875 457.223 124.875 457.223 142.207 467.556 c 0,5,6
 159.998 478.161 159.998 478.161 178.723 481.51 c 2,7,-1
 188.571 483.246 l 1,8,-1
 190.012 483.494 l 2,9,10
 198.2 484.792 198.2 484.792 206.056 484.792 c 0,11,12
 237.056 484.792 237.056 484.792 260.056 465.293 c 0,13,14
 277.988 450.089 277.988 450.089 285.85 428.385 c 1,15,16
 298.591 450.201 298.591 450.201 320.708 464.556 c 0,17,18
 340.406 477.342 340.406 477.342 363.21 481.291 c 2,19,-1
 373.059 483.028 l 2,20,21
 383.247 484.792 383.247 484.792 394.057 484.792 c 0,22,23
 440.056 484.792 440.056 484.792 463.056 451.792 c 0,24,25
 476.904 431.921 476.904 431.921 481.69 404.437 c 2,26,-1
 483.427 394.588 l 2,27,28
 486.588 376.428 486.588 376.428 485.793 354.944 c 2,29,-1
 485.793 -4.05664 l 1,30,-1
 475.944 -5.79297 l 1,31,-1
 408.944 -5.79199 l 1,32,-1
 407.208 4.05566 l 1,33,-1
 407.208 336.056 l 2,34,35
 407.208 363.567 407.208 363.567 404.562 382.385 c 0,36,37
 401.867 394.977 401.867 394.977 397.444 401.708 c 0,38,39
 385.944 419.207 385.944 419.207 364.944 419.207 c 2,40,-1
 363.324 419.172 l 1,41,42
 350.792 415.111 350.792 415.111 338.792 403.444 c 0,43,44
 320.792 385.944 320.792 385.944 310.292 358.944 c 128,-1,45
 299.792 331.944 299.792 331.944 299.792 304.944 c 2,46,-1
 299.792 -4.05566 l 1,47,-1
 289.944 -5.79297 l 1,48,-1
 220.944 -5.79297 l 1,49,-1
 219.208 4.05566 l 1,50,-1
 219.208 330.056 l 2,51,52
 219.208 359.641 219.208 359.641 216.361 379.384 c 0,53,54
 213.9 390.625 213.9 390.625 210.444 397.208 c 0,55,56
 199.944 417.208 199.944 417.208 169.944 417.208 c 2,57,-1
 169.051 417.195 l 1,58,59
 158.849 413.745 158.849 413.745 148.792 404.944 c 0,60,61
 132.793 390.945 132.793 390.945 122.292 365.943 c 128,-1,62
 111.792 340.944 111.792 340.944 111.792 307.944 c 2,63,-1
 111.792 -4.05566 l 1,64,-1
 101.944 -5.79199 l 1,65,-1
 34.9443 -5.79297 l 1,66,-1
 33.207 4.05566 l 1,67,-1
 33.208 472.057 l 1,68,-1
 43.0557 473.793 l 1,0,-1
EndSplineSet
Validated: 33
EndChar

StartChar: n
Encoding: 110 110 349
Width: 512
GlyphClass: 2
Flags: W
AnchorPoint: "Anchor-8" 0 0 basechar 0
AnchorPoint: "Anchor-7" 0 0 basechar 0
AnchorPoint: "Anchor-6" 271 468 basechar 0
AnchorPoint: "Anchor-5" 0 0 basechar 0
AnchorPoint: "Anchor-4" 266 0 basechar 0
LayerCount: 2
Fore
SplineSet
78.0566 473.792 m 1,0,-1
 149.056 473.792 l 1,1,-1
 150.792 463.944 l 1,2,-1
 150.792 405.331 l 1,3,4
 175.61 437.157 175.61 437.157 209.208 457.557 c 0,5,6
 237.944 475.003 237.944 475.003 269.022 480.513 c 2,7,-1
 278.87 482.249 l 1,8,-1
 280.309 482.499 l 2,9,10
 294.206 484.792 294.206 484.792 308.056 484.792 c 0,11,12
 370.057 484.792 370.057 484.792 407.556 437.293 c 0,13,14
 430.905 407.716 430.905 407.716 439.716 357.788 c 2,15,-1
 441.452 347.939 l 1,16,-1
 441.623 346.961 l 1,17,-1
 441.803 345.914 l 2,18,19
 446.792 316.422 446.792 316.422 446.792 279.944 c 2,20,-1
 446.792 -4.05566 l 1,21,-1
 436.943 -5.79297 l 1,22,-1
 365.944 -5.79199 l 1,23,-1
 364.208 4.05566 l 1,24,-1
 364.208 286.056 l 2,25,26
 364.208 311.329 364.208 311.329 361.125 331.71 c 1,27,28
 355.283 360.498 355.283 360.498 342.444 377.708 c 0,29,30
 318.944 409.207 318.944 409.207 279.943 409.207 c 0,31,32
 272.522 409.207 272.522 409.207 265.191 408.229 c 0,33,34
 245.075 403.705 245.075 403.705 225.292 392.444 c 0,35,36
 192.792 373.943 192.792 373.943 171.792 340.444 c 128,-1,37
 150.792 306.943 150.792 306.943 150.793 264.944 c 2,38,-1
 150.792 -4.05566 l 1,39,-1
 140.944 -5.79199 l 1,40,-1
 69.9443 -5.79199 l 1,41,-1
 68.208 4.05664 l 1,42,-1
 68.208 472.056 l 1,43,-1
 78.0566 473.792 l 1,0,-1
EndSplineSet
Validated: 1
EndChar

StartChar: eng
Encoding: 331 331 355
Width: 512
GlyphClass: 2
Flags: W
LayerCount: 2
Fore
SplineSet
169 -145 m 1,1,-1
 204 -77 l 1,2,3
 206 -78 206 -78 212 -87.5 c 128,-1,4
 218 -97 218 -97 231.5 -104.5 c 128,-1,5
 245 -112 245 -112 270 -112 c 0,6,7
 369 -112 369 -112 370 46 c 2,8,-1
 370 282 l 2,9,10
 370 352 370 352 346.5 383.5 c 128,-1,11
 323 415 323 415 284 415 c 0,12,13
 251 415 251 415 218.5 396.5 c 128,-1,14
 186 378 186 378 165.5 344.5 c 128,-1,15
 145 311 145 311 145 269 c 2,16,-1
 145 0 l 1,17,-1
 70 0 l 1,18,-1
 70 468 l 1,19,-1
 145 468 l 1,20,-1
 145 385 l 1,21,22
 172 428 172 428 213.5 453.5 c 128,-1,23
 255 479 255 479 298 479 c 0,24,25
 365 479 365 479 403.5 432 c 128,-1,26
 442 385 442 385 442 284 c 2,27,-1
 442 57 l 2,28,29
 442 -63 442 -63 394.5 -121.5 c 128,-1,30
 347 -180 347 -180 268 -180 c 0,31,0
 213 -180 213 -180 169 -145 c 1,1,-1
EndSplineSet
Validated: 1
EndChar

StartChar: o
Encoding: 111 111 358
Width: 512
GlyphClass: 2
Flags: W
AnchorPoint: "Anchor-8" 368 446 basechar 0
AnchorPoint: "Anchor-7" 256 234 basechar 0
AnchorPoint: "Anchor-6" 256 468 basechar 0
AnchorPoint: "Anchor-5" 293 10 basechar 0
AnchorPoint: "Anchor-4" 256 0 basechar 0
LayerCount: 2
Fore
SplineSet
140.444 16.708 m 128,-1,1
 90.9443 47.2075 90.9443 47.2075 63.4443 102.708 c 0,2,3
 47.2798 135.33 47.2798 135.33 40.6172 172.962 c 2,4,-1
 38.8809 182.81 l 1,5,-1
 38.624 184.277 l 2,6,7
 34.208 210.272 34.208 210.272 34.208 238.056 c 0,8,9
 34.208 309.057 34.208 309.057 61.707 364.556 c 128,-1,10
 89.2065 420.056 89.2065 420.056 138.708 451.056 c 0,11,12
 171.985 471.897 171.985 471.897 210.911 478.727 c 2,13,-1
 220.76 480.463 l 2,14,15
 239.737 483.792 239.737 483.792 260.056 483.791 c 0,16,17
 322.055 483.792 322.055 483.792 371.556 452.792 c 128,-1,18
 421.056 421.793 421.056 421.793 448.557 366.293 c 0,19,20
 464.598 333.917 464.598 333.917 471.281 296.268 c 2,21,-1
 473.018 286.42 l 1,22,-1
 473.272 284.969 l 2,23,24
 477.792 258.454 477.792 258.454 477.792 229.944 c 0,25,26
 477.792 158.943 477.792 158.943 450.292 103.944 c 128,-1,27
 422.792 48.9438 422.792 48.9438 373.293 18.4443 c 0,28,29
 340.431 -1.80273 340.431 -1.80273 302.061 -8.60938 c 2,30,-1
 292.213 -10.3457 l 2,31,32
 291.801 -10.4189 291.801 -10.4189 291.031 -10.5522 c 0,33,34
 271.739 -13.792 271.739 -13.792 251.944 -13.792 c 0,35,0
 189.943 -13.792 189.943 -13.792 140.444 16.708 c 128,-1,1
321.208 80.5557 m 0,36,37
 352.207 104.055 352.207 104.055 370.208 145.556 c 128,-1,38
 388.208 187.056 388.208 187.056 388.208 240.056 c 0,39,40
 388.208 262.591 388.208 262.591 385.057 283.15 c 0,41,42
 376.212 327.989 376.212 327.989 350.944 360.708 c 0,43,44
 311.944 411.207 311.944 411.207 251.944 411.208 c 0,45,46
 243.096 411.208 243.096 411.208 234.488 410.07 c 0,47,48
 192.521 400.822 192.521 400.822 162.792 361.944 c 0,49,50
 123.792 310.943 123.792 310.943 123.793 231.944 c 0,51,52
 123.791 210.508 123.791 210.508 126.854 190.756 c 0,53,54
 131.519 167.71 131.519 167.71 140.056 147.792 c 0,55,56
 158.056 105.792 158.056 105.792 189.056 82.292 c 128,-1,57
 220.056 58.7915 220.056 58.7915 260.056 58.793 c 0,58,59
 268.27 58.793 268.27 58.793 276.847 59.877 c 0,60,61
 300.94 65.1911 300.94 65.1911 321.208 80.5557 c 0,36,37
EndSplineSet
Validated: 33
Substitution2: "Single Substitution lookup 28 subtable" ordmasculine
Substitution2: "'aalt' +MFkweTBmMG51cE9TW1cweDBuMKIwrzC7MLkA in +MOkwxjDzZYdbVwAA lookup 0 subtable" ordmasculine
EndChar

StartChar: ohorn
Encoding: 417 417 374
Width: 512
GlyphClass: 2
Flags: W
AnchorPoint: "Anchor-8" 368 446 basechar 0
AnchorPoint: "Anchor-7" 256 234 basechar 0
AnchorPoint: "Anchor-6" 256 468 basechar 0
AnchorPoint: "Anchor-5" 293 10 basechar 0
AnchorPoint: "Anchor-4" 256 0 basechar 0
LayerCount: 2
Fore
SplineSet
457.5 328 m 128,-1,1
 472 285 472 285 472 234 c 0,2,3
 472 163 472 163 444.5 108 c 128,-1,4
 417 53 417 53 367.5 22.5 c 128,-1,5
 318 -8 318 -8 256 -8 c 256,6,7
 194 -8 194 -8 144.5 22.5 c 128,-1,8
 95 53 95 53 67.5 108.5 c 128,-1,9
 40 164 40 164 40 234 c 256,10,11
 40 305 40 305 67.5 360.5 c 128,-1,12
 95 416 95 416 144.5 447 c 128,-1,13
 194 478 194 478 256 478 c 0,14,15
 319 478 319 478 369 446 c 1,16,17
 385 447 385 447 391.5 464.5 c 128,-1,18
 398 482 398 482 398 532 c 1,19,-1
 464 532 l 1,20,21
 464 473 464 473 454 444 c 128,-1,22
 444 415 444 415 417 403 c 1,23,0
 443 371 443 371 457.5 328 c 128,-1,1
327 76.5 m 128,-1,25
 358 100 358 100 376 141.5 c 128,-1,26
 394 183 394 183 394 236 c 0,27,28
 394 316 394 316 355 366.5 c 128,-1,29
 316 417 316 417 256 417 c 256,30,31
 196 417 196 417 157 366 c 128,-1,32
 118 315 118 315 118 236 c 0,33,34
 118 184 118 184 136 142 c 128,-1,35
 154 100 154 100 185 76.5 c 128,-1,36
 216 53 216 53 256 53 c 256,37,24
 296 53 296 53 327 76.5 c 128,-1,25
EndSplineSet
Validated: 1
EndChar

StartChar: uni01EB
Encoding: 491 491 385
Width: 512
GlyphClass: 2
Flags: W
AnchorPoint: "Anchor-8" 368 446 basechar 0
AnchorPoint: "Anchor-7" 256 234 basechar 0
AnchorPoint: "Anchor-6" 256 468 basechar 0
AnchorPoint: "Anchor-5" 293 10 basechar 0
AnchorPoint: "Anchor-4" 256 0 basechar 0
LayerCount: 2
Fore
SplineSet
282 -54 m 128,-1,1
 260 -88 260 -88 260 -116 c 0,2,3
 260 -139 260 -139 276 -154 c 128,-1,4
 292 -169 292 -169 324 -173 c 1,5,-1
 307 -222 l 1,6,7
 255 -215 255 -215 224 -191.5 c 128,-1,8
 193 -168 193 -168 193 -130 c 0,9,10
 193 -69 193 -69 265 -8 c 1,11,-1
 256 -8 l 2,12,13
 194 -8 194 -8 144.5 22.5 c 128,-1,14
 95 53 95 53 67.5 108.5 c 128,-1,15
 40 164 40 164 40 234 c 256,16,17
 40 305 40 305 67.5 360.5 c 128,-1,18
 95 416 95 416 144.5 447 c 128,-1,19
 194 478 194 478 256 478 c 256,20,21
 318 478 318 478 367.5 447 c 128,-1,22
 417 416 417 416 444.5 360.5 c 128,-1,23
 472 305 472 305 472 234 c 0,24,25
 472 155 472 155 437 96 c 128,-1,26
 402 37 402 37 343 10 c 1,27,0
 304 -20 304 -20 282 -54 c 128,-1,1
136 141.5 m 128,-1,29
 154 100 154 100 185 76.5 c 128,-1,30
 216 53 216 53 256 53 c 256,31,32
 296 53 296 53 327 76.5 c 128,-1,33
 358 100 358 100 376 141.5 c 128,-1,34
 394 183 394 183 394 236 c 0,35,36
 394 316 394 316 355 366.5 c 128,-1,37
 316 417 316 417 256 417 c 256,38,39
 196 417 196 417 157 366 c 128,-1,40
 118 315 118 315 118 236 c 0,41,28
 118 183 118 183 136 141.5 c 128,-1,29
EndSplineSet
Validated: 1
EndChar

StartChar: oslash
Encoding: 248 248 386
Width: 512
GlyphClass: 2
Flags: W
LayerCount: 2
Fore
SplineSet
72 -38 m 1,0,-1
 117 45 l 1,1,2
 41 118 41 118 41 226 c 0,3,4
 41 298 41 298 71 355.5 c 128,-1,5
 101 413 101 413 152.5 445.5 c 128,-1,6
 204 478 204 478 263 478 c 0,7,8
 302 478 302 478 343 461 c 1,9,-1
 381 531 l 1,10,-1
 435 502 l 1,11,-1
 395 427 l 1,12,13
 471 357 471 357 471 239 c 0,14,15
 471 162 471 162 443 105 c 128,-1,16
 415 48 415 48 367 18 c 128,-1,17
 319 -12 319 -12 261 -12 c 0,18,19
 210 -12 210 -12 166 10 c 1,20,-1
 125 -66 l 1,21,-1
 72 -38 l 1,0,-1
311 402 m 1,22,23
 285 415 285 415 258 416 c 0,24,25
 221 416 221 416 189 393.5 c 128,-1,26
 157 371 157 371 138 331 c 128,-1,27
 119 291 119 291 119 241 c 0,28,29
 119 163 119 163 154 113 c 1,30,-1
 311 402 l 1,22,23
329 72.5 m 128,-1,32
 360 94 360 94 378.5 134.5 c 128,-1,33
 397 175 397 175 397 228 c 0,34,35
 397 312 397 312 359 362 c 1,36,-1
 199 69 l 1,37,38
 229 52 229 52 261 51 c 0,39,31
 298 51 298 51 329 72.5 c 128,-1,32
EndSplineSet
Validated: 1
EndChar

StartChar: oe
Encoding: 339 339 392
Width: 512
GlyphClass: 2
Flags: W
LayerCount: 2
Fore
SplineSet
259 30 m 1,1,2
 215 -11 215 -11 158 -11 c 0,3,4
 96 -11 96 -11 51 44.5 c 128,-1,5
 6 100 6 100 6 233 c 0,6,7
 6 359 6 359 51 418 c 128,-1,8
 96 477 96 477 165 477 c 0,9,10
 226 477 226 477 261 430 c 1,11,12
 301 477 301 477 365 477 c 0,13,14
 431 477 431 477 466.5 429.5 c 128,-1,15
 502 382 502 382 502 290 c 2,16,-1
 502 226 l 1,17,-1
 268 226 l 1,18,19
 269 154 269 154 281 116 c 128,-1,20
 293 78 293 78 315 63 c 128,-1,21
 337 48 337 48 372 48 c 0,22,23
 434 48 434 48 470 87 c 1,24,-1
 506 43 l 1,25,26
 453 -12 453 -12 381 -12 c 0,27,0
 310 -12 310 -12 259 30 c 1,1,2
441 285 m 1,28,29
 441 358 441 358 421.5 389.5 c 128,-1,30
 402 421 402 421 358 421 c 0,31,32
 317 421 317 421 293 385 c 128,-1,33
 269 349 269 349 269 285 c 1,34,-1
 441 285 l 1,28,29
203 62.5 m 128,-1,36
 218 74 218 74 218 91 c 1,37,-1
 215 115 l 1,38,39
 205 175 205 175 205 244 c 0,40,41
 205 302 205 302 209.5 334 c 128,-1,42
 214 366 214 366 214 371 c 0,43,44
 214 390 214 390 199.5 403 c 128,-1,45
 185 416 185 416 165 416 c 0,46,47
 124 416 124 416 96 374 c 128,-1,48
 68 332 68 332 68 245 c 0,49,50
 68 149 68 149 94 100 c 128,-1,51
 120 51 120 51 167 51 c 0,52,35
 188 51 188 51 203 62.5 c 128,-1,36
EndSplineSet
Validated: 1
EndChar

StartChar: p
Encoding: 112 112 393
Width: 512
GlyphClass: 2
Flags: W
AnchorPoint: "Anchor-8" 0 0 basechar 0
AnchorPoint: "Anchor-7" 0 0 basechar 0
AnchorPoint: "Anchor-6" 276 468 basechar 0
AnchorPoint: "Anchor-5" 0 0 basechar 0
AnchorPoint: "Anchor-4" 276 0 basechar 0
LayerCount: 2
Fore
SplineSet
65.0557 473.793 m 1,0,-1
 140.056 473.792 l 1,1,-1
 141.792 463.943 l 1,2,-1
 141.792 409.37 l 1,3,4
 156.959 438.941 156.959 438.941 183.207 456.556 c 0,5,6
 208.672 473.643 208.672 473.643 240.422 479.28 c 2,7,-1
 250.271 481.018 l 1,8,-1
 251.741 481.272 l 2,9,10
 266.974 483.792 266.974 483.792 283.057 483.792 c 0,11,12
 336.055 483.792 336.055 483.792 380.556 456.792 c 128,-1,13
 425.056 429.792 425.056 429.792 451.556 375.292 c 0,14,15
 466.257 345.059 466.257 345.059 472.802 307.901 c 2,16,-1
 474.538 298.053 l 2,17,18
 479.792 268.229 479.792 268.229 479.792 233.944 c 0,19,20
 479.792 154.944 479.792 154.944 452.292 97.9434 c 128,-1,21
 424.792 40.9448 424.792 40.9448 379.292 12.4443 c 0,22,23
 347.659 -7.37061 347.659 -7.37061 312.884 -13.4082 c 2,24,-1
 303.036 -15.1445 l 2,25,26
 287.789 -17.792 287.789 -17.792 271.944 -17.792 c 0,27,28
 229.944 -17.792 229.944 -17.792 193.444 1.70801 c 0,29,30
 164.067 17.4023 164.067 17.4023 142.792 42.4844 c 1,31,-1
 142.792 -175.057 l 1,32,-1
 132.944 -176.793 l 1,33,-1
 56.9443 -176.793 l 1,34,-1
 55.208 -166.944 l 1,35,-1
 55.208 472.057 l 1,36,-1
 65.0557 473.793 l 1,0,-1
353.207 99.5557 m 0,37,38
 391.207 142.055 391.207 142.055 391.208 238.056 c 0,39,40
 391.208 267.875 391.208 267.875 387.243 293.179 c 0,41,42
 379.122 334.601 379.122 334.601 359.444 362.208 c 0,43,44
 325.945 409.208 325.945 409.208 262.944 409.208 c 0,45,46
 254.53 409.208 254.53 409.208 246.253 408.136 c 0,47,48
 206.058 399.216 206.058 399.216 178.292 361.944 c 0,49,50
 141.792 312.945 141.792 312.945 141.792 213.944 c 0,51,52
 142.349 191.406 142.349 191.406 145.423 171.632 c 0,53,54
 154.071 127.951 154.071 127.951 176.056 100.793 c 0,55,56
 210.056 58.7915 210.056 58.7915 268.056 58.792 c 0,57,58
 277.723 58.792 277.723 58.792 287.164 60.0576 c 0,59,60
 325.387 68.4397 325.387 68.4397 353.207 99.5557 c 0,37,38
EndSplineSet
Validated: 33
EndChar

StartChar: thorn
Encoding: 254 254 394
Width: 512
GlyphClass: 2
Flags: W
LayerCount: 2
Fore
SplineSet
61 681 m 1,0,-1
 143 681 l 1,1,2
 143 674 143 674 139.5 661 c 128,-1,3
 136 648 136 648 136 637 c 2,4,-1
 136 396 l 1,5,6
 160 433 160 433 199.5 455.5 c 128,-1,7
 239 478 239 478 279 478 c 0,8,9
 332 478 332 478 376.5 451 c 128,-1,10
 421 424 421 424 447.5 369.5 c 128,-1,11
 474 315 474 315 474 238 c 0,12,13
 474 159 474 159 446.5 102 c 128,-1,14
 419 45 419 45 374 16.5 c 128,-1,15
 329 -12 329 -12 278 -12 c 0,16,17
 235 -12 235 -12 198 7.5 c 128,-1,18
 161 27 161 27 137 61 c 1,19,-1
 137 -171 l 1,20,-1
 61 -171 l 1,21,-1
 61 681 l 1,0,-1
359 93 m 128,-1,23
 397 133 397 133 397 224 c 0,24,25
 397 314 397 314 362.5 365 c 128,-1,26
 328 416 328 416 265 416 c 0,27,28
 207 416 207 416 171.5 366.5 c 128,-1,29
 136 317 136 317 136 225 c 1,30,31
 138 133 138 133 170.5 93 c 128,-1,32
 203 53 203 53 262 53 c 256,33,22
 321 53 321 53 359 93 c 128,-1,23
EndSplineSet
Validated: 1
EndChar

StartChar: q
Encoding: 113 113 395
Width: 512
GlyphClass: 2
Flags: W
LayerCount: 2
Fore
SplineSet
373.208 52.5664 m 1,0,1
 353.417 25.3184 353.417 25.3184 325.292 8.44336 c 0,2,3
 300.432 -6.47168 300.432 -6.47168 271.838 -11.499 c 2,4,-1
 261.989 -13.2354 l 2,5,6
 247.455 -15.792 247.455 -15.792 231.943 -15.792 c 0,7,8
 178.944 -15.7935 178.944 -15.7935 134.444 15.208 c 128,-1,9
 89.9438 46.207 89.9438 46.207 64.4434 102.207 c 0,10,11
 50.4482 132.945 50.4482 132.945 44.1338 168.502 c 2,12,-1
 42.3975 178.35 l 1,13,-1
 42.1406 179.814 l 2,14,15
 37.208 208.654 37.208 208.654 37.208 240.056 c 0,16,17
 37.208 315.056 37.208 315.056 64.708 370.556 c 128,-1,18
 92.2075 426.056 92.2075 426.056 139.707 455.056 c 0,19,20
 171.663 474.564 171.663 474.564 207.464 480.95 c 2,21,-1
 217.312 482.687 l 1,22,-1
 218.765 482.94 l 2,23,24
 235.75 485.793 235.75 485.793 253.056 485.793 c 0,25,26
 301.056 485.792 301.056 485.792 335.056 464.792 c 0,27,28
 360.351 449.168 360.351 449.168 377.208 422.932 c 1,29,-1
 377.208 472.056 l 1,30,-1
 387.057 473.792 l 1,31,-1
 457.056 473.792 l 1,32,-1
 458.792 463.944 l 1,33,-1
 458.792 -175.056 l 1,34,-1
 448.944 -176.792 l 1,35,-1
 374.943 -176.792 l 1,36,-1
 373.207 -166.944 l 1,37,-1
 373.208 52.5664 l 1,0,1
335.708 106.056 m 0,38,39
 371.207 154.056 371.207 154.056 371.208 251.056 c 0,40,41
 371.208 282.952 371.208 282.952 367.104 309.126 c 1,42,43
 346.134 414.207 346.134 414.207 252.943 414.207 c 0,44,45
 242.692 414.207 242.692 414.207 232.632 412.85 c 0,46,47
 191.63 403.96 191.63 403.96 162.793 369.944 c 0,48,49
 123.793 323.944 123.793 323.944 123.792 234.944 c 0,50,51
 123.792 207.204 123.792 207.204 127.601 182.67 c 0,52,53
 135.91 140.001 135.91 140.001 157.057 109.792 c 0,54,55
 192.055 59.7925 192.055 59.7925 253.056 59.792 c 0,56,57
 261.552 59.792 261.552 59.792 269.411 60.8379 c 0,58,59
 308.928 69.8456 308.928 69.8456 335.708 106.056 c 0,38,39
EndSplineSet
Validated: 33
EndChar

StartChar: r
Encoding: 114 114 396
Width: 512
GlyphClass: 2
Flags: W
AnchorPoint: "Anchor-8" 0 0 basechar 0
AnchorPoint: "Anchor-7" 0 0 basechar 0
AnchorPoint: "Anchor-6" 256 468 basechar 0
AnchorPoint: "Anchor-5" 0 0 basechar 0
AnchorPoint: "Anchor-4" 276 0 basechar 0
LayerCount: 2
Fore
SplineSet
441.792 366.944 m 1,0,-1
 441.792 365.944 l 1,1,-1
 431.944 364.207 l 1,2,3
 401.944 392.208 401.944 392.208 382.443 401.208 c 128,-1,4
 362.945 410.208 362.945 410.208 335.944 410.208 c 0,5,6
 326.318 410.208 326.318 410.208 316.396 408.875 c 0,7,8
 295.436 404.341 295.436 404.341 276.293 393.444 c 0,9,10
 243.792 374.945 243.792 374.945 223.292 337.443 c 128,-1,11
 202.792 299.945 202.792 299.945 202.793 243.944 c 2,12,-1
 202.792 -5.05566 l 1,13,-1
 192.943 -6.79199 l 1,14,-1
 117.944 -6.79199 l 1,15,-1
 116.207 3.05566 l 1,16,-1
 116.208 472.056 l 1,17,-1
 126.056 473.792 l 1,18,-1
 203.056 473.792 l 1,19,-1
 204.792 463.944 l 1,20,-1
 203.543 410.224 l 1,21,22
 221.597 439.226 221.597 439.226 250.708 457.556 c 0,23,24
 278.418 475.003 278.418 475.003 309.64 480.513 c 2,25,-1
 319.488 482.249 l 1,26,-1
 320.932 482.498 l 2,27,28
 334.912 484.793 334.912 484.793 349.057 484.793 c 0,29,30
 424.055 484.793 424.055 484.793 473.056 433.792 c 1,31,-1
 474.792 423.944 l 1,32,-1
 441.792 366.944 l 1,0,-1
436.37 359.076 m 2,33,34
 436.082 359.026 436.082 359.026 435.444 359.208 c 0,35,36
 431.938 360.21 431.938 360.21 429.944 361.208 c 1,37,-1
 428.208 371.057 l 1,38,-1
 430.208 374.056 l 1,39,-1
 440.056 375.792 l 1,40,41
 444.51 371.975 444.51 371.975 444.713 370.991 c 2,42,-1
 446.449 361.143 l 1,43,-1
 436.37 359.076 l 2,33,34
419.208 371.056 m 2,44,45
 419.208 373.455 419.208 373.455 421.128 373.616 c 2,46,-1
 430.976 375.353 l 2,47,48
 431.457 375.393 431.457 375.393 432.056 375.293 c 0,49,50
 435.056 374.792 435.056 374.792 438.056 372.793 c 1,51,-1
 439.793 362.944 l 1,52,-1
 437.792 356.944 l 1,53,-1
 427.944 355.208 l 1,54,-1
 420.944 360.207 l 1,55,-1
 419.208 370.056 l 1,56,-1
 419.208 371.056 l 2,44,45
EndSplineSet
Validated: 37
EndChar

StartChar: uni027B
Encoding: 635 635 402
Width: 512
GlyphClass: 2
Flags: W
LayerCount: 2
Fore
SplineSet
500 -142 m 1,0,1
 464 -181 464 -181 406 -181 c 0,2,3
 353 -181 353 -181 313 -148.5 c 128,-1,4
 273 -116 273 -116 274 -42 c 2,5,-1
 275 88 l 1,6,7
 257 41 257 41 219 15 c 128,-1,8
 181 -11 181 -11 136 -11 c 0,9,10
 104 -11 104 -11 78.5 1 c 128,-1,11
 53 13 53 13 26 40 c 1,12,-1
 56 97 l 1,13,-1
 56 98 l 1,14,15
 57 98 57 98 57 97.5 c 0,16,-1
 57 97 l 1,17,18
 79 72 79 72 97.5 62 c 128,-1,19
 116 52 116 52 141 52 c 0,20,21
 175 52 175 52 205.5 70.5 c 128,-1,22
 236 89 236 89 255 127 c 128,-1,23
 274 165 274 165 274 220 c 2,24,-1
 274 469 l 1,25,-1
 349 469 l 1,26,-1
 351 -42 l 2,27,28
 351 -78 351 -78 369.5 -98 c 128,-1,29
 388 -118 388 -118 417 -118 c 0,30,31
 424 -118 424 -118 434 -116.5 c 128,-1,32
 444 -115 444 -115 448 -115.5 c 128,-1,33
 452 -116 452 -116 445 -121 c 1,34,35
 476 -96 476 -96 476 -94 c 1,36,37
 471.5 -94 l 0,38,39
 467 -94 467 -94 468 -90 c 1,40,-1
 474 -85 l 1,41,-1
 480 -93 l 1,42,-1
 500 -142 l 1,0,1
67 101 m 2,43,44
 67 99 67 99 63.5 99.5 c 128,-1,45
 60 100 60 100 58 102 c 1,46,-1
 60 106 l 1,47,-1
 67 103 l 1,48,-1
 67 101 l 2,43,44
54 102.5 m 128,-1,50
 55 103 55 103 58 102 c 1,51,-1
 56 98 l 1,52,49
 53 102 53 102 54 102.5 c 128,-1,50
EndSplineSet
Validated: 37
EndChar

StartChar: uni024D
Encoding: 589 589 405
Width: 512
GlyphClass: 2
Flags: W
AnchorPoint: "Anchor-8" 0 0 basechar 0
AnchorPoint: "Anchor-7" 0 0 basechar 0
AnchorPoint: "Anchor-6" 256 468 basechar 0
AnchorPoint: "Anchor-5" 0 0 basechar 0
AnchorPoint: "Anchor-4" 276 0 basechar 0
LayerCount: 2
Fore
SplineSet
436 371 m 1,0,-1
 436 370 l 1,1,2
 406 398 406 398 386.5 407 c 128,-1,3
 367 416 367 416 340 416 c 0,4,5
 303 416 303 416 270.5 397.5 c 128,-1,6
 238 379 238 379 217.5 341.5 c 128,-1,7
 197 304 197 304 197 248 c 2,8,-1
 197 234 l 1,9,-1
 312 234 l 1,10,-1
 312 176 l 1,11,-1
 197 176 l 1,12,-1
 197 -1 l 1,13,-1
 122 -1 l 1,14,-1
 122 176 l 1,15,-1
 36 176 l 1,16,-1
 36 234 l 1,17,-1
 122 234 l 1,18,-1
 122 468 l 1,19,-1
 199 468 l 1,20,-1
 197 382 l 1,21,22
 216 428 216 428 256.5 453.5 c 128,-1,23
 297 479 297 479 345 479 c 0,24,25
 420 479 420 479 469 428 c 1,26,-1
 436 371 l 1,0,-1
439.5 365 m 128,-1,28
 436 366 436 366 434 367 c 1,29,-1
 436 370 l 1,30,27
 443 364 443 364 439.5 365 c 128,-1,28
425 367 m 2,31,32
 425 370 425 370 428 369.5 c 128,-1,33
 431 369 431 369 434 367 c 1,34,-1
 432 361 l 1,35,-1
 425 366 l 1,36,-1
 425 367 l 2,31,32
EndSplineSet
Validated: 5
EndChar

StartChar: s
Encoding: 115 115 406
Width: 512
GlyphClass: 2
Flags: W
LayerCount: 2
Fore
SplineSet
418.556 223.293 m 0,0,1
 447.072 198.684 447.072 198.684 453.31 162.782 c 2,2,-1
 455.046 152.934 l 2,3,4
 456.793 142.876 456.793 142.876 456.793 131.944 c 0,5,6
 456.793 68.9429 456.793 68.9429 406.792 27.4443 c 0,7,8
 373.672 -0.0463867 373.672 -0.0463867 321.243 -9.32617 c 2,9,-1
 311.395 -11.0635 l 1,10,-1
 310.428 -11.2321 l 2,11,12
 309.863 -11.3228 309.863 -11.3228 309.863 -11.3236 c 128,-1,13
 309.863 -11.3245 309.863 -11.3245 309.371 -11.4131 c 0,14,15
 283.48 -15.793 283.48 -15.793 252.944 -15.792 c 0,16,17
 133.945 -15.792 133.945 -15.792 53.9443 57.208 c 1,18,-1
 52.208 67.0566 l 1,19,-1
 93.207 137.056 l 1,20,-1
 94.208 138.056 l 1,21,-1
 104.056 139.793 l 1,22,-1
 105.056 138.793 l 1,23,24
 137.053 97.7946 137.053 97.7946 171.056 77.292 c 128,-1,25
 205.056 56.793 205.056 56.793 263.056 56.792 c 0,26,27
 282.189 56.792 282.189 56.792 298.673 59.2324 c 0,28,29
 322.816 64.1854 322.816 64.1854 340.207 75.0557 c 0,30,31
 372.208 95.0552 372.208 95.0552 372.207 130.056 c 0,32,33
 372.208 132.991 372.208 132.991 371.926 136.256 c 0,34,35
 366.837 155.643 366.837 155.643 348.444 169.708 c 0,36,37
 322.944 189.208 322.944 189.208 255.943 210.208 c 1,38,39
 95.647 255.746 95.647 255.746 81.3457 338.614 c 2,40,-1
 79.6094 348.462 l 2,41,42
 78.2075 356.58 78.2075 356.58 78.208 365.056 c 0,43,44
 78.208 419.056 78.208 419.056 122.708 451.056 c 0,45,46
 150.521 471.055 150.521 471.055 193.372 478.556 c 2,47,-1
 203.22 480.292 l 2,48,49
 228.931 484.792 228.931 484.792 260.056 484.792 c 0,50,51
 323.056 484.792 323.056 484.792 367.056 466.792 c 128,-1,52
 411.055 448.792 411.055 448.792 446.056 411.792 c 1,53,-1
 447.792 401.943 l 1,54,-1
 405.792 349.944 l 1,55,-1
 404.793 348.944 l 1,56,-1
 394.944 347.208 l 1,57,58
 372.945 380.208 372.945 380.208 333.944 399.208 c 128,-1,59
 294.944 418.208 294.944 418.208 253.944 418.207 c 0,60,61
 238.104 418.207 238.104 418.207 224.54 416.229 c 0,62,63
 205.98 412.297 205.98 412.297 191.792 404.444 c 0,64,65
 163.793 388.943 163.793 388.943 163.793 361.944 c 0,66,67
 163.793 360.65 163.793 360.65 163.89 358.891 c 0,68,69
 169.18 340.417 169.18 340.417 190.556 324.292 c 0,70,71
 219.056 302.792 219.056 302.792 294.056 280.792 c 0,72,73
 382.056 254.791 382.056 254.791 418.556 223.293 c 0,0,1
401.792 345.944 m 1,74,-1
 398.792 341.944 l 1,75,-1
 388.943 340.208 l 1,76,-1
 383.944 345.208 l 1,77,-1
 382.207 355.056 l 2,78,79
 382.207 356.979 382.207 356.979 383.391 357.274 c 2,80,-1
 393.239 359.011 l 1,81,-1
 394.044 359.059 l 2,82,83
 396.364 358.561 396.364 358.561 400.056 355.792 c 1,84,-1
 401.792 345.944 l 1,74,-1
407.293 343.944 m 1,85,-1
 396.944 341.764 l 2,86,87
 396.103 341.484 396.103 341.484 396.068 341.949 c 0,88,89
 395.539 342.313 395.539 342.313 394.944 342.208 c 0,90,91
 392.943 343.21 392.943 343.21 391.944 344.208 c 2,92,-1
 390.208 354.056 l 1,93,-1
 393.208 357.056 l 1,94,-1
 403.056 358.792 l 1,95,96
 405.457 355.593 405.457 355.593 405.616 354.312 c 2,97,-1
 407.293 343.944 l 1,85,-1
117.792 132.943 m 2,98,99
 117.792 131.405 117.792 131.405 116.312 131.051 c 2,100,-1
 106.465 129.314 l 1,101,-1
 105.459 129.196 l 2,102,103
 102.562 129.361 102.562 129.361 97.9443 131.208 c 1,104,-1
 96.208 141.057 l 1,105,-1
 99.207 146.056 l 1,106,-1
 109.056 147.792 l 1,107,-1
 116.056 143.792 l 1,108,-1
 117.792 133.944 l 1,109,-1
 117.792 132.943 l 2,98,99
102.056 144.793 m 2,110,111
 103.056 144.792 103.056 144.792 106.056 142.793 c 1,112,-1
 107.792 132.944 l 1,113,-1
 105.793 129.944 l 1,114,-1
 95.9443 128.208 l 1,115,116
 93.9448 131.541 93.9448 131.541 93.7217 132.652 c 2,117,-1
 91.9854 142.5 l 1,118,-1
 91.9854 142.917 l 1,119,-1
 102.056 144.793 l 2,110,111
EndSplineSet
Validated: 5
EndChar

StartChar: scedilla
Encoding: 351 351 411
Width: 512
GlyphClass: 2
Flags: W
AnchorPoint: "Anchor-8" 0 0 basechar 0
AnchorPoint: "Anchor-7" 0 0 basechar 0
AnchorPoint: "Anchor-6" 0 0 basechar 0
AnchorPoint: "Anchor-5" 0 0 basechar 0
AnchorPoint: "Anchor-4" 278 -181 basechar 0
LayerCount: 2
Fore
SplineSet
415 45 m 128,-1,1
 379 6 379 6 311 -6 c 1,2,-1
 306 -48 l 1,3,4
 349 -52 349 -52 371 -71 c 128,-1,5
 393 -90 393 -90 393 -115 c 0,6,7
 393 -152 393 -152 362.5 -177 c 128,-1,8
 332 -202 332 -202 274 -202 c 0,9,10
 220 -202 220 -202 173 -170 c 1,11,-1
 199 -127 l 1,12,13
 238 -158 238 -158 288 -158 c 0,14,15
 339 -158 339 -158 339 -121 c 0,16,17
 339 -105 339 -105 325 -96 c 128,-1,18
 311 -87 311 -87 287 -87 c 2,19,-1
 256 -87 l 1,20,-1
 266 -10 l 1,21,-1
 257 -10 l 2,22,23
 138 -10 138 -10 58 63 c 1,24,-1
 99 133 l 1,25,-1
 100 134 l 1,26,-1
 101 133 l 1,27,28
 133 92 133 92 167 71.5 c 128,-1,29
 201 51 201 51 259 51 c 0,30,31
 314 51 314 51 346 71 c 128,-1,32
 378 91 378 91 378 126 c 0,33,34
 378 156 378 156 352.5 175.5 c 128,-1,35
 327 195 327 195 260 216 c 1,36,37
 84 266 84 266 84 361 c 0,38,39
 84 415 84 415 128.5 447 c 128,-1,40
 173 479 173 479 256 479 c 0,41,42
 319 479 319 479 363 461 c 128,-1,43
 407 443 407 443 442 406 c 1,44,-1
 400 354 l 1,45,-1
 399 353 l 1,46,47
 377 386 377 386 338 405 c 128,-1,48
 299 424 299 424 258 424 c 0,49,50
 214 424 214 424 186 408.5 c 128,-1,51
 158 393 158 393 158 366 c 0,52,53
 158 340 158 340 186.5 318.5 c 128,-1,54
 215 297 215 297 290 275 c 1,55,56
 378 248 378 248 414.5 217 c 128,-1,57
 451 186 451 186 451 136 c 0,58,0
 451 84 451 84 415 45 c 128,-1,1
396 350 m 1,60,-1
 393 346 l 1,61,-1
 388 351 l 1,62,59
 388 356 388 356 396 350 c 1,60,-1
401.5 348 m 128,-1,64
 401 347 401 347 399 348 c 128,-1,65
 397 349 397 349 396 350 c 1,66,-1
 399 353 l 1,67,63
 402 349 402 349 401.5 348 c 128,-1,64
112 137 m 2,68,69
 112 133 112 133 102 137 c 1,70,-1
 105 142 l 1,71,-1
 112 138 l 1,72,-1
 112 137 l 2,68,69
98 139 m 128,-1,74
 99 139 99 139 102 137 c 1,75,-1
 100 134 l 1,76,73
 97 139 97 139 98 139 c 128,-1,74
EndSplineSet
Validated: 5
Substitution2: "'locl' +Vv0w+1cwV99W+mcJMG5bV19i in +MOkwxjDzZYdbVwAA lookup 7 subtable" scommaaccent
Substitution2: "'locl' +Vv0w+1cwV99W+mcJMG5bV19i in +MOkwxjDzZYdbVwAA lookup 6 subtable" scommaaccent
Substitution2: "'aalt' +MFkweTBmMG51cE9TW1cweDBuMKIwrzC7MLkA in +MOkwxjDzZYdbVwAA lookup 0 subtable" scommaaccent
EndChar

StartChar: germandbls
Encoding: 223 223 417
Width: 512
GlyphClass: 2
Flags: W
LayerCount: 2
Fore
SplineSet
181 22 m 1,1,-1
 217 79 l 1,2,3
 248 54 248 54 292 54 c 0,4,5
 321 54 321 54 348 73 c 128,-1,6
 375 92 375 92 391.5 125 c 128,-1,7
 408 158 408 158 408 198 c 0,8,9
 408 257 408 257 368.5 294 c 128,-1,10
 329 331 329 331 250 331 c 2,11,-1
 219 331 l 1,12,-1
 219 389 l 1,13,-1
 256 389 l 2,14,15
 297 389 297 389 328.5 419.5 c 128,-1,16
 360 450 360 450 360 502 c 256,17,18
 360 554 360 554 327.5 590 c 128,-1,19
 295 626 295 626 247 626 c 0,20,21
 190 626 190 626 158 574 c 128,-1,22
 126 522 126 522 126 435 c 2,23,-1
 126 0 l 1,24,-1
 56 0 l 1,25,-1
 56 433 l 2,26,27
 56 556 56 556 105 620.5 c 128,-1,28
 154 685 154 685 237 685 c 0,29,30
 290 685 290 685 334.5 660 c 128,-1,31
 379 635 379 635 404.5 593.5 c 128,-1,32
 430 552 430 552 430 505 c 0,33,34
 430 461 430 461 408.5 424 c 128,-1,35
 387 387 387 387 349 368 c 1,36,37
 407 350 407 350 441 300 c 128,-1,38
 475 250 475 250 475 185 c 0,39,40
 475 131 475 131 452 86.5 c 128,-1,41
 429 42 429 42 386.5 16 c 128,-1,42
 344 -10 344 -10 288 -10 c 0,43,0
 228 -10 228 -10 181 22 c 1,1,-1
EndSplineSet
Validated: 1
EndChar

StartChar: t
Encoding: 116 116 418
Width: 512
GlyphClass: 2
Flags: W
AnchorPoint: "Anchor-8" 317 468 basechar 0
AnchorPoint: "Anchor-7" 218 319 basechar 0
AnchorPoint: "Anchor-6" 247 601 basechar 0
AnchorPoint: "Anchor-5" 0 0 basechar 0
AnchorPoint: "Anchor-4" 256 0 basechar 0
LayerCount: 2
Fore
SplineSet
460.793 38.9443 m 1,0,1
 411.451 2.66309 411.451 2.66309 355.265 -7.29102 c 2,2,-1
 345.417 -9.02832 l 2,3,4
 344.019 -9.27539 344.019 -9.27539 343.998 -9.27539 c 0,5,6
 323.18 -12.793 323.18 -12.793 301.944 -12.793 c 0,7,8
 223.944 -12.7915 223.944 -12.7915 191.943 34.208 c 0,9,10
 174.166 60.3188 174.166 60.3188 166.266 104.948 c 2,11,-1
 164.528 114.797 l 1,12,-1
 164.363 115.745 l 2,13,14
 164.272 116.297 164.272 116.297 164.272 116.297 c 128,-1,15
 164.271 116.297 164.271 116.297 164.183 116.789 c 0,16,17
 158.208 151.821 158.208 151.821 158.208 198.056 c 0,18,19
 158.208 215.057 158.208 215.057 160.208 258.056 c 2,20,-1
 168.632 402.208 l 1,21,-1
 67.9443 402.208 l 1,22,-1
 66.208 412.056 l 1,23,-1
 66.208 472.057 l 1,24,-1
 76.0557 473.793 l 1,25,-1
 173.305 473.792 l 1,26,-1
 180.208 597.056 l 1,27,-1
 190.056 598.792 l 1,28,-1
 272.056 611.792 l 1,29,-1
 283.056 612.792 l 1,30,-1
 284.793 602.943 l 1,31,-1
 285.792 596.944 l 1,32,33
 278.792 586.944 278.792 586.944 274.793 579.944 c 128,-1,34
 270.792 572.944 270.792 572.944 269.793 556.944 c 2,35,-1
 259.957 473.792 l 1,36,-1
 413.056 473.793 l 1,37,-1
 414.792 463.944 l 1,38,-1
 414.792 403.944 l 1,39,-1
 404.944 402.207 l 1,40,-1
 254.693 402.208 l 1,41,-1
 245.792 244.944 l 2,42,43
 243.792 203.945 243.792 203.945 243.793 190.944 c 0,44,45
 243.793 152.441 243.793 152.441 247.978 124.812 c 1,46,47
 252.513 102.117 252.513 102.117 260.556 89.292 c 0,48,49
 279.057 59.793 279.057 59.793 321.057 59.792 c 0,50,51
 331.744 59.792 331.744 59.792 342.211 61.2178 c 0,52,53
 355.401 64.0051 355.401 64.0051 367.707 69.5557 c 0,54,55
 393.208 81.0562 393.208 81.0562 426.208 105.056 c 1,56,-1
 436.056 106.792 l 1,57,-1
 459.056 48.792 l 1,58,-1
 460.793 38.9443 l 1,0,1
EndSplineSet
Validated: 33
EndChar

StartChar: tbar
Encoding: 359 359 419
Width: 512
GlyphClass: 2
Flags: W
AnchorPoint: "Anchor-8" 317 468 basechar 0
AnchorPoint: "Anchor-7" 218 319 basechar 0
AnchorPoint: "Anchor-6" 247 601 basechar 0
AnchorPoint: "Anchor-5" 0 0 basechar 0
AnchorPoint: "Anchor-4" 256 0 basechar 0
LayerCount: 2
Fore
SplineSet
455 43 m 1,0,1
 387 -7 387 -7 306 -7 c 0,2,3
 228 -7 228 -7 196 40 c 128,-1,4
 164 87 164 87 164 190 c 1,5,-1
 165 225 l 1,6,-1
 62 225 l 1,7,-1
 62 284 l 1,8,-1
 168 284 l 1,9,-1
 175 408 l 1,10,-1
 72 408 l 1,11,-1
 72 468 l 1,12,-1
 179 468 l 1,13,-1
 186 593 l 1,14,-1
 268 606 l 1,15,-1
 279 607 l 1,16,-1
 280 601 l 1,17,18
 273 591 273 591 269 584 c 128,-1,19
 265 577 265 577 264 561 c 2,20,-1
 253 468 l 1,21,-1
 409 468 l 1,22,-1
 409 408 l 1,23,-1
 249 408 l 1,24,-1
 242 284 l 1,25,-1
 399 284 l 1,26,-1
 399 225 l 1,27,-1
 239 225 l 1,28,29
 237 155 237 155 244.5 118.5 c 128,-1,30
 252 82 252 82 270 68 c 128,-1,31
 288 54 288 54 317 54 c 0,32,33
 348 54 348 54 373.5 65.5 c 128,-1,34
 399 77 399 77 432 101 c 1,35,-1
 455 43 l 1,0,1
EndSplineSet
Validated: 33
EndChar

StartChar: uni0163
Encoding: 355 355 421
Width: 512
GlyphClass: 2
Flags: W
AnchorPoint: "Anchor-8" 317 468 basechar 0
AnchorPoint: "Anchor-7" 218 319 basechar 0
AnchorPoint: "Anchor-6" 247 601 basechar 0
AnchorPoint: "Anchor-5" 0 0 basechar 0
AnchorPoint: "Anchor-4" 256 -181 basechar 0
LayerCount: 2
Fore
SplineSet
350 -71 m 128,-1,1
 372 -90 372 -90 372 -115 c 0,2,3
 372 -152 372 -152 341 -177 c 128,-1,4
 310 -202 310 -202 253 -202 c 0,5,6
 199 -202 199 -202 152 -170 c 1,7,-1
 177 -127 l 1,8,9
 216 -158 216 -158 266 -158 c 0,10,11
 317 -158 317 -158 317 -121 c 0,12,13
 317 -105 317 -105 303.5 -96 c 128,-1,14
 290 -87 290 -87 265 -87 c 2,15,-1
 234 -87 l 1,16,-1
 246 0 l 1,17,-1
 252 0 l 1,18,19
 205 15 205 15 184.5 62 c 128,-1,20
 164 109 164 109 164 195 c 0,21,22
 164 211 164 211 166 254 c 2,23,-1
 175 408 l 1,24,-1
 72 408 l 1,25,-1
 72 468 l 1,26,-1
 179 468 l 1,27,-1
 186 593 l 1,28,-1
 268 606 l 1,29,-1
 279 607 l 1,30,-1
 280 601 l 1,31,32
 273 591 273 591 269 584 c 128,-1,33
 265 577 265 577 264 561 c 2,34,-1
 253 468 l 1,35,-1
 409 468 l 1,36,-1
 409 408 l 1,37,-1
 249 408 l 1,38,-1
 240 249 l 2,39,40
 238 208 238 208 238 195 c 0,41,42
 238 113 238 113 256.5 83.5 c 128,-1,43
 275 54 275 54 317 54 c 0,44,45
 348 54 348 54 373.5 65.5 c 128,-1,46
 399 77 399 77 432 101 c 1,47,-1
 455 43 l 1,48,49
 387 -7 387 -7 306 -7 c 0,50,51
 295 -7 295 -7 290 -6 c 1,52,-1
 285 -48 l 1,53,0
 328 -52 328 -52 350 -71 c 128,-1,1
EndSplineSet
Validated: 1
Substitution2: "'locl' +Vv0w+1cwV99W+mcJMG5bV19i in +MOkwxjDzZYdbVwAA lookup 7 subtable" uni021B
Substitution2: "'locl' +Vv0w+1cwV99W+mcJMG5bV19i in +MOkwxjDzZYdbVwAA lookup 6 subtable" uni021B
Substitution2: "'aalt' +MFkweTBmMG51cE9TW1cweDBuMKIwrzC7MLkA in +MOkwxjDzZYdbVwAA lookup 0 subtable" uni021B
EndChar

StartChar: u
Encoding: 117 117 426
Width: 512
GlyphClass: 2
Flags: W
AnchorPoint: "Anchor-8" 442 468 basechar 0
AnchorPoint: "Anchor-7" 0 0 basechar 0
AnchorPoint: "Anchor-6" 256 468 basechar 0
AnchorPoint: "Anchor-5" 401 0 basechar 0
AnchorPoint: "Anchor-4" 237 0 basechar 0
LayerCount: 2
Fore
SplineSet
104.944 37.707 m 0,0,1
 77.3511 71.8848 77.3511 71.8848 67.4551 127.497 c 2,2,-1
 65.7188 137.345 l 1,3,-1
 65.5518 138.296 l 2,4,5
 65.5422 138.371 65.5422 138.371 65.3682 139.356 c 0,6,7
 59.8457 171.643 59.8457 171.643 60.208 211.056 c 2,8,-1
 61.207 472.056 l 1,9,-1
 71.0557 473.792 l 1,10,-1
 142.056 473.792 l 1,11,-1
 143.792 463.944 l 1,12,-1
 143.792 202.944 l 2,13,14
 143.792 173.218 143.792 173.218 147.519 149.107 c 1,15,16
 154.763 112.638 154.763 112.638 171.556 91.292 c 0,17,18
 201.055 53.7935 201.055 53.7935 249.056 53.792 c 0,19,20
 257.565 53.792 257.565 53.792 265.674 54.8652 c 0,21,22
 301.85 63.0178 301.85 63.0178 328.708 93.5557 c 0,23,24
 365.208 135.055 365.208 135.055 365.208 214.056 c 2,25,-1
 365.207 472.056 l 1,26,-1
 375.056 473.793 l 1,27,-1
 446.056 473.793 l 1,28,-1
 447.793 463.944 l 1,29,-1
 447.792 68.9443 l 2,30,31
 447.792 43.9438 447.792 43.9438 449.293 27.9443 c 2,32,-1
 449.453 26.3779 l 1,33,34
 451.964 15.9756 451.964 15.9756 457.056 5.79199 c 1,35,-1
 458.793 -4.05664 l 1,36,-1
 448.944 -5.79297 l 1,37,-1
 377.944 -5.79297 l 1,38,39
 372.64 5.57129 372.64 5.57129 370.495 17.7959 c 2,40,-1
 368.758 27.6445 l 2,41,42
 368.07 31.5661 368.07 31.5661 367.708 35.5557 c 0,43,44
 367.032 42.9965 367.032 42.9965 366.688 51.2939 c 1,45,46
 346.143 24.0025 346.143 24.0025 316.293 6.94434 c 0,47,48
 291.203 -7.39355 291.203 -7.39355 262.928 -12.3867 c 2,49,-1
 253.079 -14.123 l 1,50,-1
 251.615 -14.376 l 2,51,52
 236.934 -16.792 236.934 -16.792 221.944 -16.792 c 0,53,54
 148.944 -16.792 148.944 -16.792 104.944 37.707 c 0,0,1
EndSplineSet
Validated: 33
EndChar

StartChar: uogonek
Encoding: 371 371 445
Width: 512
GlyphClass: 2
Flags: W
AnchorPoint: "Anchor-8" 442 468 basechar 0
AnchorPoint: "Anchor-7" 0 0 basechar 0
AnchorPoint: "Anchor-6" 256 468 basechar 0
AnchorPoint: "Anchor-5" 401 0 basechar 0
AnchorPoint: "Anchor-4" 237 0 basechar 0
LayerCount: 2
Fore
SplineSet
384.5 -163.5 m 128,-1,1
 400 -179 400 -179 432 -183 c 1,2,-1
 416 -232 l 1,3,4
 364 -225 364 -225 332.5 -201.5 c 128,-1,5
 301 -178 301 -178 301 -140 c 0,6,7
 301 -104 301 -104 325.5 -68.5 c 128,-1,8
 350 -33 350 -33 397 0 c 1,9,-1
 382 0 l 1,10,11
 375 15 375 15 373.5 31.5 c 128,-1,12
 372 48 372 48 372 72 c 1,13,14
 349 33 349 33 310.5 11 c 128,-1,15
 272 -11 272 -11 226 -11 c 0,16,17
 152 -11 152 -11 108.5 43.5 c 128,-1,18
 65 98 65 98 66 207 c 2,19,-1
 67 468 l 1,20,-1
 138 468 l 1,21,-1
 138 207 l 2,22,23
 138 123 138 123 167.5 85.5 c 128,-1,24
 197 48 197 48 245 48 c 0,25,26
 298 48 298 48 334.5 89.5 c 128,-1,27
 371 131 371 131 371 210 c 2,28,-1
 371 468 l 1,29,-1
 442 468 l 1,30,-1
 442 73 l 2,31,32
 442 48 442 48 443.5 32 c 128,-1,33
 445 16 445 16 453 0 c 1,34,35
 414 -31 414 -31 391.5 -64.5 c 128,-1,36
 369 -98 369 -98 369 -126 c 0,37,0
 369 -148 369 -148 384.5 -163.5 c 128,-1,1
EndSplineSet
Validated: 33
EndChar

StartChar: v
Encoding: 118 118 449
Width: 512
GlyphClass: 2
Flags: W
AnchorPoint: "Anchor-8" 0 0 basechar 0
AnchorPoint: "Anchor-7" 0 0 basechar 0
AnchorPoint: "Anchor-6" 256 468 basechar 0
AnchorPoint: "Anchor-5" 0 0 basechar 0
AnchorPoint: "Anchor-4" 256 0 basechar 0
LayerCount: 2
Fore
SplineSet
471.792 463.944 m 1,0,1
 455.792 380.945 455.792 380.945 402.792 258.944 c 2,2,-1
 289.793 -4.05566 l 1,3,-1
 279.944 -5.79297 l 1,4,-1
 221.944 -5.79199 l 1,5,-1
 36.9443 462.208 l 1,6,-1
 35.208 472.056 l 1,7,-1
 45.0557 473.792 l 1,8,-1
 119.056 473.793 l 1,9,-1
 258.77 117.716 l 1,10,-1
 329.208 278.056 l 2,11,12
 376.208 384.056 376.208 384.056 390.208 472.056 c 1,13,-1
 400.056 473.792 l 1,14,-1
 470.056 473.792 l 1,15,-1
 471.792 463.944 l 1,0,1
EndSplineSet
Validated: 1
EndChar

StartChar: w
Encoding: 119 119 450
Width: 512
GlyphClass: 2
Flags: W
AnchorPoint: "Anchor-8" 0 0 basechar 0
AnchorPoint: "Anchor-7" 0 0 basechar 0
AnchorPoint: "Anchor-6" 256 468 basechar 0
AnchorPoint: "Anchor-5" 0 0 basechar 0
AnchorPoint: "Anchor-4" 256 0 basechar 0
LayerCount: 2
Fore
SplineSet
20.0557 473.792 m 1,0,-1
 85.0566 473.792 l 1,1,-1
 156.755 119.074 l 1,2,-1
 231.208 428.057 l 1,3,-1
 241.056 429.793 l 1,4,-1
 286.056 429.792 l 1,5,-1
 378.693 120.064 l 1,6,7
 404.643 291.786 404.643 291.786 411.207 348.056 c 0,8,9
 418.208 408.056 418.208 408.056 418.207 457.056 c 2,10,-1
 418.208 472.057 l 1,11,-1
 428.056 473.793 l 1,12,-1
 497.056 473.792 l 1,13,-1
 498.792 463.944 l 1,14,15
 467.796 225.944 467.796 225.944 420.792 -5.05566 c 1,16,-1
 410.944 -6.79199 l 1,17,-1
 340.944 -6.79199 l 1,18,-1
 259.745 279.294 l 1,19,-1
 182.793 -5.05566 l 1,20,-1
 172.944 -6.79199 l 1,21,-1
 106.943 -6.79199 l 1,22,-1
 11.9443 462.207 l 1,23,-1
 10.208 472.056 l 1,24,-1
 20.0557 473.792 l 1,0,-1
EndSplineSet
Validated: 33
EndChar

StartChar: x
Encoding: 120 120 455
Width: 512
GlyphClass: 2
Flags: W
AnchorPoint: "Anchor-8" 0 0 basechar 0
AnchorPoint: "Anchor-7" 0 0 basechar 0
AnchorPoint: "Anchor-6" 256 468 basechar 0
AnchorPoint: "Anchor-5" 0 0 basechar 0
AnchorPoint: "Anchor-4" 256 0 basechar 0
LayerCount: 2
Fore
SplineSet
42.207 4.05566 m 1,0,-1
 204.629 238.336 l 1,1,-1
 46.9434 462.208 l 1,2,-1
 45.207 472.056 l 1,3,-1
 55.0557 473.792 l 1,4,-1
 136.056 473.793 l 1,5,-1
 253.628 307.071 l 1,6,-1
 365.207 472.056 l 1,7,-1
 375.056 473.793 l 1,8,-1
 450.056 473.793 l 1,9,-1
 451.792 463.944 l 1,10,-1
 303.345 240.782 l 1,11,-1
 471.056 5.79199 l 1,12,-1
 472.792 -4.05566 l 1,13,-1
 462.944 -5.79199 l 1,14,-1
 378.944 -5.79199 l 1,15,-1
 254.407 169.91 l 1,16,-1
 137.792 -4.05664 l 1,17,-1
 127.943 -5.79297 l 1,18,-1
 43.9443 -5.79199 l 1,19,-1
 42.207 4.05566 l 1,0,-1
EndSplineSet
Validated: 1
EndChar

StartChar: y
Encoding: 121 121 456
Width: 512
GlyphClass: 2
Flags: W
AnchorPoint: "Anchor-8" 0 0 basechar 0
AnchorPoint: "Anchor-7" 0 0 basechar 0
AnchorPoint: "Anchor-6" 259 468 basechar 0
AnchorPoint: "Anchor-5" 0 0 basechar 0
AnchorPoint: "Anchor-4" 379 0 basechar 0
LayerCount: 2
Fore
SplineSet
459.792 463.944 m 1,0,1
 453.793 421.944 453.793 421.944 440.792 380.944 c 128,-1,2
 427.793 339.945 427.793 339.945 403.793 271.944 c 2,3,-1
 287.793 -57.0566 l 2,4,5
 263.792 -123.055 263.792 -123.055 225.792 -152.556 c 0,6,7
 198.54 -173.712 198.54 -173.712 164.086 -179.696 c 2,8,-1
 154.238 -181.433 l 2,9,10
 140.65 -183.792 140.65 -183.792 125.943 -183.792 c 0,11,12
 59.9448 -183.793 59.9448 -183.793 18.9443 -143.792 c 1,13,-1
 17.208 -133.944 l 1,14,-1
 48.208 -83.9443 l 1,15,-1
 49.207 -82.9443 l 1,16,-1
 59.0557 -81.207 l 1,17,-1
 60.0557 -82.208 l 2,18,19
 76.0562 -97.208 76.0562 -97.208 95.0557 -104.707 c 128,-1,20
 114.056 -112.208 114.056 -112.208 138.056 -112.208 c 0,21,22
 143.95 -112.208 143.95 -112.208 149.676 -111.547 c 0,23,24
 173.181 -105.733 173.181 -105.733 188.708 -87.4443 c 0,25,26
 210.534 -61.7374 210.534 -61.7374 232.144 -1.92188 c 1,27,-1
 42.9443 462.208 l 1,28,-1
 41.208 472.056 l 1,29,-1
 51.0566 473.792 l 1,30,-1
 128.056 473.792 l 1,31,-1
 268.036 111.774 l 1,32,-1
 325.208 286.056 l 2,33,34
 348.208 357.057 348.208 357.057 358.708 394.056 c 128,-1,35
 369.207 431.056 369.207 431.056 374.208 472.056 c 1,36,-1
 384.056 473.792 l 1,37,-1
 458.056 473.792 l 1,38,-1
 459.792 463.944 l 1,0,1
72.792 -88.0557 m 2,39,40
 72.7935 -90.0566 72.7935 -90.0566 70.793 -90.0557 c 2,41,-1
 60.9443 -91.792 l 1,42,-1
 51.9443 -89.792 l 1,43,-1
 50.207 -79.9443 l 1,44,-1
 54.208 -74.9443 l 1,45,-1
 64.0557 -73.208 l 1,46,-1
 71.0557 -77.207 l 1,47,-1
 72.792 -87.0557 l 1,48,-1
 72.792 -88.0557 l 2,39,40
56.5566 -77.208 m 0,49,50
 59.0581 -78.208 59.0581 -78.208 60.0557 -78.208 c 2,51,-1
 61.792 -88.0557 l 1,52,-1
 60.792 -91.0557 l 1,53,-1
 50.9434 -92.792 l 1,54,55
 47.8188 -89.6675 47.8188 -89.6675 47.624 -88.8857 c 2,56,-1
 45.8877 -79.0381 l 1,57,-1
 55.7744 -77.083 l 2,58,59
 55.7754 -77.0822 55.7754 -77.0822 56.5566 -77.208 c 0,49,50
EndSplineSet
Validated: 37
EndChar

StartChar: z
Encoding: 122 122 466
Width: 512
GlyphClass: 2
Flags: W
AnchorPoint: "Anchor-8" 0 0 basechar 0
AnchorPoint: "Anchor-7" 0 0 basechar 0
AnchorPoint: "Anchor-6" 256 468 basechar 0
AnchorPoint: "Anchor-5" 0 0 basechar 0
AnchorPoint: "Anchor-4" 256 0 basechar 0
LayerCount: 2
Fore
SplineSet
45.207 54.0566 m 1,0,-1
 327.117 397.207 l 1,1,-1
 68.9443 397.208 l 1,2,-1
 67.208 407.056 l 1,3,-1
 67.208 472.056 l 1,4,-1
 77.0557 473.792 l 1,5,-1
 440.056 473.793 l 1,6,-1
 441.792 463.944 l 1,7,-1
 441.792 413.944 l 1,8,-1
 165.671 68.792 l 1,9,-1
 420.056 68.793 l 2,10,11
 427.013 68.793 427.013 68.793 432.956 69.3174 c 0,12,13
 433.387 69.4487 433.387 69.4487 433.708 69.5557 c 0,14,15
 441.21 72.057 441.21 72.057 448.208 78.0557 c 1,16,-1
 458.057 79.792 l 1,17,-1
 465.056 79.793 l 1,18,-1
 466.793 69.9443 l 1,19,-1
 466.792 -4.05566 l 1,20,-1
 456.944 -5.79199 l 1,21,-1
 46.9443 -5.79297 l 1,22,-1
 45.208 4.05566 l 1,23,-1
 45.207 54.0566 l 1,0,-1
EndSplineSet
Validated: 1
EndChar

StartChar: u.i
Encoding: 65539 -1 471
Width: 512
GlyphClass: 2
Flags: W
AnchorPoint: "Anchor-8" 401 468 basechar 0
AnchorPoint: "Anchor-7" 0 0 basechar 0
AnchorPoint: "Anchor-6" 217 468 basechar 0
AnchorPoint: "Anchor-5" 355 0 basechar 0
AnchorPoint: "Anchor-4" 211 0 basechar 0
LayerCount: 2
Fore
SplineSet
81.5 43 m 128,-1,1
 40 97 40 97 41 207 c 2,2,-1
 42 468 l 1,3,-1
 110 468 l 1,4,-1
 110 207 l 2,5,6
 110 123 110 123 137.5 85.5 c 128,-1,7
 165 48 165 48 211 48 c 0,8,9
 262 48 262 48 296.5 89.5 c 128,-1,10
 331 131 331 131 331 210 c 2,11,-1
 331 468 l 1,12,-1
 398 468 l 1,13,-1
 398 73 l 2,14,15
 398 48 398 48 399.5 32 c 128,-1,16
 401 16 401 16 409 0 c 1,17,-1
 341 0 l 1,18,19
 335 15 335 15 333.5 31.5 c 128,-1,20
 332 48 332 48 332 72 c 1,21,22
 310 33 310 33 274 11 c 128,-1,23
 238 -11 238 -11 194 -11 c 0,24,0
 123 -11 123 -11 81.5 43 c 128,-1,1
EndSplineSet
Validated: 33
EndChar

StartChar: r.serif
Encoding: 65540 -1 472
Width: 512
GlyphClass: 2
Flags: W
LayerCount: 2
Fore
SplineSet
65 55 m 1,0,-1
 131 55 l 1,1,-1
 131 409 l 1,2,-1
 67 409 l 1,3,-1
 67 468 l 1,4,-1
 207 468 l 1,5,-1
 204 378 l 1,6,7
 227 424 227 424 268 451 c 128,-1,8
 309 478 309 478 359 478 c 0,9,10
 430 478 430 478 480 428 c 1,11,-1
 445 357 l 1,12,13
 433 366 433 366 421 380 c 0,14,15
 405 397 405 397 389.5 406 c 128,-1,16
 374 415 374 415 344 415 c 0,17,18
 310 415 310 415 277.5 390 c 128,-1,19
 245 365 245 365 224.5 323.5 c 128,-1,20
 204 282 204 282 204 236 c 2,21,-1
 204 55 l 1,22,-1
 302 55 l 1,23,-1
 302 -1 l 1,24,-1
 65 -1 l 1,25,-1
 65 55 l 1,0,-1
EndSplineSet
Validated: 1
EndChar

StartChar: fi
Encoding: 64257 64257 473
Width: 512
GlyphClass: 3
Flags: W
LayerCount: 2
Fore
SplineSet
291 593 m 1,0,-1
 290 592 l 1,1,2
 270 612 270 612 255 620.5 c 128,-1,3
 240 629 240 629 218 629 c 0,4,5
 185 629 185 629 164.5 596 c 128,-1,6
 144 563 144 563 144 507 c 2,7,-1
 144 468 l 1,8,-1
 267 468 l 1,9,-1
 267 409 l 1,10,-1
 144 409 l 1,11,-1
 144 0 l 1,12,-1
 74 0 l 1,13,-1
 74 409 l 1,14,-1
 34 409 l 1,15,-1
 34 468 l 1,16,-1
 74 468 l 1,17,-1
 74 507 l 2,18,19
 74 597 74 597 112 642 c 128,-1,20
 150 687 150 687 212 687 c 0,21,22
 283 687 283 687 324 643 c 1,23,-1
 291 593 l 1,0,-1
358.5 581.5 m 128,-1,25
 343 597 343 597 343 618 c 0,26,27
 343 641 343 641 358 656.5 c 128,-1,28
 373 672 373 672 395 672 c 256,29,30
 417 672 417 672 433 656 c 128,-1,31
 449 640 449 640 449 618 c 256,32,33
 449 596 449 596 433 581 c 128,-1,34
 417 566 417 566 395 566 c 256,35,24
 374 566 374 566 358.5 581.5 c 128,-1,25
290 592 m 1,36,37
 296 586 296 586 293 587 c 128,-1,38
 290 588 290 588 288 589 c 1,39,-1
 290 592 l 1,36,37
279 589 m 2,40,41
 279 594 279 594 288 589 c 1,42,-1
 285 584 l 1,43,-1
 279 588 l 1,44,-1
 279 589 l 2,40,41
321 409 m 1,45,-1
 321 468 l 1,46,-1
 436 468 l 1,47,-1
 436 0 l 1,48,-1
 362 0 l 1,49,-1
 362 409 l 1,50,-1
 321 409 l 1,45,-1
EndSplineSet
Validated: 5
EndChar

StartChar: fl
Encoding: 64258 64258 474
Width: 512
GlyphClass: 3
Flags: W
LayerCount: 2
Fore
SplineSet
74 410 m 1,0,-1
 34 410 l 1,1,-1
 34 468 l 1,2,-1
 74 468 l 1,3,-1
 74 507 l 2,4,5
 74 597 74 597 114.5 642 c 128,-1,6
 155 687 155 687 222 687 c 0,7,8
 257 687 257 687 285.5 675 c 128,-1,9
 314 663 314 663 333 639 c 1,10,-1
 293 584 l 1,11,12
 274 611 274 611 262 619.5 c 128,-1,13
 250 628 250 628 227 628 c 0,14,15
 189 628 189 628 166.5 599 c 128,-1,16
 144 570 144 570 144 507 c 2,17,-1
 144 468 l 1,18,-1
 267 468 l 1,19,-1
 267 410 l 1,20,-1
 144 410 l 1,21,-1
 144 0 l 1,22,-1
 74 0 l 1,23,-1
 74 410 l 1,0,-1
362 0 m 1,24,-1
 362 681 l 1,25,-1
 437 681 l 1,26,-1
 437 0 l 1,27,-1
 362 0 l 1,24,-1
EndSplineSet
Validated: 1
EndChar

StartChar: ordfeminine
Encoding: 170 170 475
Width: 512
GlyphClass: 2
Flags: W
LayerCount: 2
Fore
SplineSet
139 294.5 m 128,-1,1
 104 326 104 326 104 371 c 0,2,3
 104 490 104 490 283 489 c 0,4,5
 298 489 298 489 333 487 c 1,6,7
 333 537 333 537 315.5 560 c 128,-1,8
 298 583 298 583 257 583 c 0,9,10
 194 583 194 583 161 538 c 1,11,-1
 126 580 l 1,12,13
 177 637 177 637 263 637 c 1,14,15
 335 635 335 635 366.5 600 c 128,-1,16
 398 565 398 565 398 497 c 2,17,-1
 398 273 l 1,18,-1
 334 273 l 1,19,-1
 334 307 l 1,20,21
 287 263 287 263 229 263 c 0,22,0
 174 263 174 263 139 294.5 c 128,-1,1
310 348 m 128,-1,24
 336 378 336 378 336 434 c 1,25,26
 318 436 318 436 285 436 c 0,27,28
 227 436 227 436 198.5 420 c 128,-1,29
 170 404 170 404 170 372 c 0,30,31
 170 350 170 350 188 334 c 128,-1,32
 206 318 206 318 237 318 c 0,33,23
 284 318 284 318 310 348 c 128,-1,24
78 156 m 1,34,-1
 78 211 l 1,35,-1
 435 211 l 1,36,-1
 435 156 l 1,37,-1
 78 156 l 1,34,-1
EndSplineSet
Validated: 33
EndChar

StartChar: ordmasculine
Encoding: 186 186 476
Width: 512
GlyphClass: 2
Flags: W
LayerCount: 2
Fore
SplineSet
174 285 m 128,-1,1
 139 308 139 308 118.5 349.5 c 128,-1,2
 98 391 98 391 98 444 c 0,3,4
 98 499 98 499 119.5 543.5 c 128,-1,5
 141 588 141 588 177 612.5 c 128,-1,6
 213 637 213 637 255 637 c 0,7,8
 321 637 321 637 364 587.5 c 128,-1,9
 407 538 407 538 407 452 c 0,10,11
 407 395 407 395 385.5 351.5 c 128,-1,12
 364 308 364 308 328.5 285 c 128,-1,13
 293 262 293 262 251 262 c 256,14,0
 209 262 209 262 174 285 c 128,-1,1
318.5 355 m 128,-1,16
 345 388 345 388 345 447 c 0,17,18
 345 507 345 507 318.5 543.5 c 128,-1,19
 292 580 292 580 253 580 c 256,20,21
 214 580 214 580 187 544 c 128,-1,22
 160 508 160 508 160 449 c 256,23,24
 160 390 160 390 186.5 356 c 128,-1,25
 213 322 213 322 252 322 c 0,26,15
 292 322 292 322 318.5 355 c 128,-1,16
78 156 m 1,27,-1
 78 211 l 1,28,-1
 435 211 l 1,29,-1
 435 156 l 1,30,-1
 78 156 l 1,27,-1
EndSplineSet
Validated: 1
EndChar

StartChar: uni2124
Encoding: 8484 8484 478
Width: 512
GlyphClass: 2
Flags: W
LayerCount: 2
Fore
SplineSet
475 588 m 1,0,-1
 214 43 l 1,1,-1
 429 43 l 2,2,3
 445 43 445 43 453 45 c 128,-1,4
 461 47 461 47 467 53 c 1,5,-1
 474 53 l 1,6,-1
 474 0 l 1,7,-1
 51 0 l 1,8,-1
 51 50 l 1,9,-1
 316 594 l 1,10,-1
 53 594 l 1,11,-1
 53 638 l 1,12,-1
 475 638 l 1,13,-1
 475 588 l 1,0,-1
100 43 m 1,14,-1
 163 43 l 1,15,-1
 427 594 l 1,16,-1
 367 594 l 1,17,-1
 100 43 l 1,14,-1
EndSplineSet
Validated: 1
EndChar

StartChar: zero
Encoding: 48 48 479
Width: 512
Flags: W
LayerCount: 2
Fore
SplineSet
406.056 560.792 m 0,0,1
 435.977 510.734 435.977 510.734 448.681 438.822 c 2,2,-1
 450.417 428.974 l 1,3,-1
 450.587 428.007 l 1,4,-1
 450.765 426.985 l 2,5,6
 459.791 374.693 459.791 374.693 459.792 310.944 c 0,7,8
 459.792 153.944 459.792 153.944 408.292 69.4443 c 0,9,10
 366.28 0.510254 366.28 0.510254 295.316 -12.1885 c 2,11,-1
 285.468 -13.9248 l 1,12,-1
 284.092 -14.166 l 2,13,14
 268.442 -16.793 268.442 -16.793 251.943 -16.793 c 0,15,16
 156.944 -16.7915 156.944 -16.7915 105.444 68.208 c 0,17,18
 76.1313 116.587 76.1313 116.587 63.5029 187.967 c 2,19,-1
 61.7666 197.815 l 1,20,-1
 61.6006 198.761 l 2,21,22
 61.5928 198.818 61.5928 198.818 61.4189 199.803 c 0,23,24
 52.208 253.079 52.208 253.079 52.208 319.056 c 0,25,26
 52.208 472.056 52.208 472.056 104.207 559.056 c 0,27,28
 146.951 630.568 146.951 630.568 218.072 643.299 c 2,29,-1
 227.921 645.035 l 1,30,-1
 229.284 645.274 l 2,31,32
 244.316 647.793 244.316 647.793 260.056 647.793 c 0,33,34
 354.056 647.793 354.056 647.793 406.056 560.792 c 0,0,1
170.792 504.444 m 0,35,36
 137.792 432.944 137.792 432.944 137.792 310.944 c 0,37,38
 137.792 256.547 137.792 256.547 143.761 213.093 c 1,39,-1
 351.19 480.743 l 1,40,41
 336.554 523.643 336.554 523.643 312.943 547.708 c 0,42,43
 286.944 574.208 286.944 574.208 251.944 574.208 c 0,44,45
 246.715 574.208 246.715 574.208 241.744 573.633 c 0,46,47
 197.838 563.042 197.838 563.042 170.792 504.444 c 0,35,36
341.208 123.556 m 0,48,49
 374.208 192.056 374.208 192.056 374.207 319.056 c 0,50,51
 374.207 365.453 374.207 365.453 369.879 402.567 c 1,52,-1
 163.166 138.697 l 1,53,54
 196.023 56.7915 196.023 56.7915 260.056 56.793 c 0,55,56
 265.357 56.7915 265.357 56.7915 270.857 57.4102 c 0,57,58
 314.254 67.6053 314.254 67.6053 341.208 123.556 c 0,48,49
EndSplineSet
Validated: 33
Substitution2: "'ss02' +MLkwvzCkMOswuzDDMMgA-2 in +MOkwxjDzZYdbVwAA lookup 26 subtable" zero.ss02
Substitution2: "'zero' +MLkw6TDDMLcw5TBkME0wvDDt in +MOkwxjDzZYdbVwAA lookup 23 subtable" zero.zero
Substitution2: "'frac' +ZZwwgTBuUgZlcAAA in +MOkwxjDzZYdbVwAA lookup 18 subtable" zero.numr
Substitution2: "'dnom' +UgZrzQAA in +MOkwxjDzZYdbVwAA lookup 16 subtable" zero.dnom
Substitution2: "'numr' +UgZbUAAA in +MOkwxjDzZYdbVwAA lookup 15 subtable" zero.numr
Substitution2: "'sups' +TgowZDBNZYdbVwAA in +MOkwxjDzZYdbVwAA lookup 14 subtable" uni2070
Substitution2: "'subs' +TgswZDBNZYdbVwAA in +MOkwxjDzZYdbVwAA lookup 13 subtable" uni2080
AlternateSubs2: "'aalt' +MFkweTBmMG51cE9TW1cweDBuMKIwrzC7MLkA in +MOkwxjDzZYdbVwAA lookup 1 subtable" uni2080 uni2070 zero.numr zero.dnom zero.zero zero.ss02
EndChar

StartChar: one
Encoding: 49 49 480
Width: 512
Flags: W
LayerCount: 2
Fore
SplineSet
230.208 4.05566 m 1,0,-1
 230.207 542.558 l 1,1,-1
 111.793 507.943 l 1,2,-1
 101.944 506.207 l 1,3,-1
 85.9443 546.207 l 1,4,-1
 84.208 556.056 l 1,5,-1
 251.208 643.056 l 1,6,-1
 261.056 644.792 l 1,7,-1
 311.056 644.793 l 1,8,-1
 312.792 634.944 l 1,9,-1
 312.792 -4.05566 l 1,10,-1
 302.944 -5.79199 l 1,11,-1
 231.944 -5.79297 l 1,12,-1
 230.208 4.05566 l 1,0,-1
EndSplineSet
Validated: 1
Substitution2: "'frac' +ZZwwgTBuUgZlcAAA in +MOkwxjDzZYdbVwAA lookup 18 subtable" one.numr
Substitution2: "'dnom' +UgZrzQAA in +MOkwxjDzZYdbVwAA lookup 16 subtable" one.dnom
Substitution2: "'numr' +UgZbUAAA in +MOkwxjDzZYdbVwAA lookup 15 subtable" one.numr
Substitution2: "'sups' +TgowZDBNZYdbVwAA in +MOkwxjDzZYdbVwAA lookup 14 subtable" uni00B9
Substitution2: "'subs' +TgswZDBNZYdbVwAA in +MOkwxjDzZYdbVwAA lookup 13 subtable" uni2081
AlternateSubs2: "'aalt' +MFkweTBmMG51cE9TW1cweDBuMKIwrzC7MLkA in +MOkwxjDzZYdbVwAA lookup 1 subtable" uni2081 uni00B9 one.numr one.dnom
EndChar

StartChar: two
Encoding: 50 50 481
Width: 512
Flags: W
LayerCount: 2
Fore
SplineSet
69.208 61.0557 m 1,0,-1
 152.208 145.057 l 2,1,2
 235.208 228.056 235.208 228.056 276.707 275.056 c 128,-1,3
 318.208 322.057 318.208 322.057 342.708 369.056 c 128,-1,4
 367.208 416.055 367.208 416.055 367.208 466.056 c 0,5,6
 367.208 482.013 367.208 482.013 365.238 495.592 c 0,7,8
 358.253 528.186 358.253 528.186 338.944 546.208 c 0,9,10
 308.944 574.208 308.944 574.208 259.944 574.208 c 0,11,12
 246.482 574.208 246.482 574.208 232.777 572.262 c 0,13,14
 209.465 567.455 209.465 567.455 188.293 556.444 c 0,15,16
 150.793 536.944 150.793 536.944 138.793 512.944 c 0,17,18
 132.792 501.945 132.792 501.945 126.793 489.944 c 2,19,-1
 125.187 486.691 l 1,20,-1
 125.954 486.69 l 2,21,22
 127.484 486.077 127.484 486.077 128.056 483.793 c 2,23,-1
 129.792 473.944 l 1,24,-1
 126.793 467.943 l 1,25,-1
 116.944 466.207 l 1,26,-1
 107.944 471.208 l 1,27,-1
 54.9443 512.207 l 1,28,-1
 53.208 522.056 l 1,29,30
 84.2085 581.057 84.2085 581.057 137.707 613.557 c 0,31,32
 173.095 635.052 173.095 635.052 213.947 642.33 c 2,33,-1
 223.796 644.066 l 1,34,-1
 225.265 644.324 l 2,35,36
 245.74 647.792 245.74 647.792 267.056 647.792 c 0,37,38
 349.055 647.792 349.055 647.792 399.556 598.793 c 0,39,40
 436.767 562.686 436.767 562.686 446.559 507.579 c 2,41,-1
 448.295 497.73 l 1,42,-1
 448.459 496.791 l 1,43,-1
 448.546 496.248 l 2,44,45
 451.792 476.944 451.792 476.944 451.792 455.944 c 0,46,47
 451.793 400.945 451.793 400.945 425.292 348.443 c 128,-1,48
 398.793 295.945 398.793 295.945 357.292 248.944 c 128,-1,49
 315.793 201.943 315.793 201.943 242.792 128.944 c 2,50,-1
 182.502 67.792 l 1,51,-1
 408.057 67.792 l 2,52,53
 415.383 67.792 415.383 67.792 421.585 68.3682 c 0,54,55
 421.883 68.454 421.883 68.454 422.208 68.5557 c 0,56,57
 430.208 71.0562 430.208 71.0562 436.207 77.0557 c 1,58,-1
 446.056 78.792 l 1,59,-1
 454.056 78.792 l 1,60,-1
 455.792 68.9443 l 1,61,-1
 455.792 -4.05566 l 1,62,-1
 445.943 -5.79199 l 1,63,-1
 70.9443 -5.79199 l 1,64,-1
 69.207 4.05566 l 1,65,-1
 69.208 61.0557 l 1,0,-1
EndSplineSet
Validated: 33
Substitution2: "'frac' +ZZwwgTBuUgZlcAAA in +MOkwxjDzZYdbVwAA lookup 18 subtable" two.numr
Substitution2: "'dnom' +UgZrzQAA in +MOkwxjDzZYdbVwAA lookup 16 subtable" two.dnom
Substitution2: "'numr' +UgZbUAAA in +MOkwxjDzZYdbVwAA lookup 15 subtable" two.numr
Substitution2: "'sups' +TgowZDBNZYdbVwAA in +MOkwxjDzZYdbVwAA lookup 14 subtable" uni00B2
Substitution2: "'subs' +TgswZDBNZYdbVwAA in +MOkwxjDzZYdbVwAA lookup 13 subtable" uni2082
AlternateSubs2: "'aalt' +MFkweTBmMG51cE9TW1cweDBuMKIwrzC7MLkA in +MOkwxjDzZYdbVwAA lookup 1 subtable" uni2082 uni00B2 two.numr two.dnom
EndChar

StartChar: three
Encoding: 51 51 482
Width: 512
Flags: W
LayerCount: 2
Fore
SplineSet
408.556 284.292 m 0,0,1
 431.277 255.978 431.277 255.978 438.113 216.667 c 2,2,-1
 439.85 206.818 l 2,3,4
 442.792 189.899 442.792 189.899 442.792 170.944 c 0,5,6
 442.792 119.944 442.792 119.944 420.293 77.4434 c 128,-1,7
 397.792 34.9453 397.792 34.9453 354.792 9.94434 c 0,8,9
 327.966 -5.65186 327.966 -5.65186 294.524 -11.5186 c 2,10,-1
 284.677 -13.2549 l 2,11,12
 264.513 -16.7925 264.513 -16.7925 241.944 -16.793 c 0,13,14
 190.944 -16.793 190.944 -16.793 144.944 1.70801 c 128,-1,15
 98.9438 20.2075 98.9438 20.2075 66.9443 55.208 c 1,16,-1
 65.207 65.0557 l 1,17,-1
 112.208 122.056 l 1,18,-1
 113.208 123.057 l 1,19,-1
 123.056 124.793 l 1,20,-1
 124.056 123.792 l 1,21,22
 150.055 90.792 150.055 90.792 177.056 73.292 c 128,-1,23
 204.056 55.793 204.056 55.793 247.056 55.792 c 0,24,25
 259.535 55.792 259.535 55.792 270.905 57.3779 c 0,26,27
 305.744 64.8242 305.744 64.8242 327.208 89.0557 c 0,28,29
 358.207 124.055 358.207 124.055 358.207 182.056 c 0,30,31
 358.207 195.118 358.207 195.118 356.541 206.928 c 0,32,33
 348.499 244.721 348.499 244.721 321.444 267.208 c 0,34,35
 282.944 299.208 282.944 299.208 212.944 299.208 c 0,36,37
 202.945 299.208 202.945 299.208 179.944 297.208 c 1,38,-1
 178.208 307.056 l 1,39,-1
 178.208 364.056 l 1,40,-1
 188.056 365.792 l 1,41,42
 217.501 365.792 217.501 365.792 241.605 369.455 c 1,43,44
 282.51 377.556 282.51 377.556 302.708 398.056 c 0,45,46
 336.208 432.055 336.208 432.055 336.208 490.056 c 0,47,48
 336.208 498.872 336.208 498.872 335.14 507.104 c 0,49,50
 329.611 531.873 329.611 531.873 312.944 549.207 c 0,51,52
 287.944 575.207 287.944 575.207 246.944 575.208 c 0,53,54
 233.952 575.208 233.952 575.208 221.189 573.382 c 0,55,56
 175.988 563.966 175.988 563.966 139.792 529.944 c 1,57,-1
 129.944 528.207 l 1,58,-1
 86.9443 571.207 l 1,59,-1
 85.208 581.056 l 1,60,61
 131.792 630.644 131.792 630.644 198.134 642.411 c 2,62,-1
 207.981 644.147 l 1,63,-1
 209.425 644.398 l 2,64,65
 230.985 648.03 230.985 648.03 254.056 647.793 c 0,66,67
 331.057 647.793 331.057 647.793 375.556 604.293 c 0,68,69
 408.594 571.998 408.594 571.998 417.104 523.992 c 2,70,-1
 418.84 514.145 l 1,71,-1
 419.096 512.67 l 2,72,73
 421.792 496.395 421.792 496.395 421.792 478.944 c 0,74,75
 421.792 426.944 421.792 426.944 396.292 387.944 c 0,76,77
 374.21 354.171 374.21 354.171 333.722 338.384 c 1,78,79
 380.447 319.32 380.447 319.32 408.556 284.292 c 0,0,1
122.943 112.708 m 0,80,81
 119.946 113.207 119.946 113.207 116.944 115.208 c 1,82,-1
 115.207 125.056 l 1,83,-1
 119.208 130.056 l 1,84,-1
 129.056 131.792 l 1,85,-1
 134.056 126.793 l 1,86,-1
 135.792 116.944 l 2,87,88
 135.792 114.545 135.792 114.545 133.872 114.384 c 2,89,-1
 124.024 112.647 l 2,90,91
 123.544 112.607 123.544 112.607 122.943 112.708 c 0,80,81
120.766 130.237 m 2,92,93
 121 130.237 121 130.237 121.556 129.793 c 0,94,95
 124.056 127.792 124.056 127.792 125.056 126.792 c 2,96,-1
 126.792 116.944 l 1,97,-1
 124.792 114.944 l 1,98,-1
 114.944 113.208 l 1,99,100
 112.722 117.097 112.722 117.097 112.506 118.208 c 2,101,-1
 110.77 128.056 l 1,102,-1
 120.766 130.237 l 2,92,93
EndSplineSet
Validated: 37
Substitution2: "'frac' +ZZwwgTBuUgZlcAAA in +MOkwxjDzZYdbVwAA lookup 18 subtable" three.numr
Substitution2: "'dnom' +UgZrzQAA in +MOkwxjDzZYdbVwAA lookup 16 subtable" three.dnom
Substitution2: "'numr' +UgZbUAAA in +MOkwxjDzZYdbVwAA lookup 15 subtable" three.numr
Substitution2: "'sups' +TgowZDBNZYdbVwAA in +MOkwxjDzZYdbVwAA lookup 14 subtable" uni00B3
Substitution2: "'subs' +TgswZDBNZYdbVwAA in +MOkwxjDzZYdbVwAA lookup 13 subtable" uni2083
AlternateSubs2: "'aalt' +MFkweTBmMG51cE9TW1cweDBuMKIwrzC7MLkA in +MOkwxjDzZYdbVwAA lookup 1 subtable" uni2083 uni00B3 three.numr three.dnom
EndChar

StartChar: four
Encoding: 52 52 483
Width: 512
Flags: W
LayerCount: 2
Fore
SplineSet
320.207 4.05566 m 1,0,-1
 320.208 151.208 l 1,1,-1
 44.9443 151.208 l 1,2,-1
 43.208 161.057 l 1,3,-1
 43.207 213.056 l 1,4,-1
 335.207 643.056 l 1,5,-1
 345.056 644.792 l 1,6,-1
 405.056 644.792 l 1,7,-1
 406.792 634.944 l 1,8,-1
 406.792 221.793 l 1,9,-1
 487.056 221.793 l 1,10,-1
 488.792 211.944 l 1,11,-1
 488.792 151.944 l 1,12,-1
 478.944 150.208 l 1,13,-1
 406.792 150.208 l 1,14,-1
 406.793 -4.05566 l 1,15,-1
 396.944 -5.79199 l 1,16,-1
 321.943 -5.79199 l 1,17,-1
 320.207 4.05566 l 1,0,-1
144.312 222.792 m 1,18,-1
 320.207 222.792 l 1,19,-1
 320.207 488.447 l 1,20,-1
 144.312 222.792 l 1,18,-1
EndSplineSet
Validated: 1
Substitution2: "'frac' +ZZwwgTBuUgZlcAAA in +MOkwxjDzZYdbVwAA lookup 18 subtable" four.numr
Substitution2: "'dnom' +UgZrzQAA in +MOkwxjDzZYdbVwAA lookup 16 subtable" four.dnom
Substitution2: "'numr' +UgZbUAAA in +MOkwxjDzZYdbVwAA lookup 15 subtable" four.numr
Substitution2: "'sups' +TgowZDBNZYdbVwAA in +MOkwxjDzZYdbVwAA lookup 14 subtable" uni2074
Substitution2: "'subs' +TgswZDBNZYdbVwAA in +MOkwxjDzZYdbVwAA lookup 13 subtable" uni2084
AlternateSubs2: "'aalt' +MFkweTBmMG51cE9TW1cweDBuMKIwrzC7MLkA in +MOkwxjDzZYdbVwAA lookup 1 subtable" uni2084 uni2074 four.numr four.dnom
EndChar

StartChar: five
Encoding: 53 53 484
Width: 512
Flags: W
LayerCount: 2
Fore
SplineSet
366.056 394.292 m 128,-1,1
 410.055 367.792 410.055 367.792 435.056 319.292 c 0,2,3
 449.886 290.521 449.886 290.521 455.919 256.295 c 2,4,-1
 457.655 246.447 l 2,5,6
 461.792 222.978 461.792 222.978 461.792 196.944 c 0,7,8
 461.792 131.943 461.792 131.943 435.292 83.9443 c 128,-1,9
 408.793 35.9443 408.793 35.9443 363.293 10.4443 c 0,10,11
 334.222 -5.84766 334.222 -5.84766 300.459 -11.7305 c 2,12,-1
 290.611 -13.4668 l 2,13,14
 271.527 -16.792 271.527 -16.792 250.944 -16.792 c 0,15,16
 192.944 -16.7935 192.944 -16.7935 142.943 8.70801 c 128,-1,17
 92.9438 34.208 92.9438 34.208 61.9443 81.208 c 1,18,-1
 60.207 91.0557 l 1,19,-1
 117.208 134.056 l 1,20,-1
 118.208 135.056 l 1,21,-1
 128.056 136.792 l 2,22,23
 129.056 136.792 129.056 136.792 129.056 136.292 c 128,-1,24
 129.229 135.6 129.229 135.6 129.229 135.527 c 0,25,26
 156.411 94.5634 156.411 94.5634 185.557 75.792 c 0,27,28
 215.056 56.7915 215.056 56.7915 263.056 56.792 c 0,29,30
 270.053 56.792 270.053 56.792 277.124 57.6807 c 0,31,32
 297.004 62.253 297.004 62.253 314.708 74.0557 c 0,33,34
 343.208 93.0562 343.208 93.0562 360.207 127.556 c 128,-1,35
 377.208 162.056 377.208 162.056 377.208 208.056 c 0,36,37
 377.208 225.701 377.208 225.701 374.882 241.094 c 0,38,39
 366.444 281.707 366.444 281.707 341.444 308.708 c 0,40,41
 303.944 349.208 303.944 349.208 247.944 349.208 c 0,42,43
 238.59 349.208 238.59 349.208 228.737 347.879 c 0,44,45
 210.687 344.004 210.687 344.004 193.293 335.444 c 0,46,47
 161.792 319.943 161.792 319.943 137.792 290.944 c 1,48,-1
 127.944 289.208 l 1,49,-1
 82.9443 307.208 l 1,50,-1
 81.208 317.056 l 1,51,-1
 103.208 642.056 l 1,52,-1
 113.056 643.793 l 1,53,-1
 436.056 643.792 l 1,54,-1
 437.792 633.944 l 1,55,-1
 437.793 568.943 l 1,56,-1
 427.944 567.207 l 1,57,-1
 174.697 567.208 l 1,58,-1
 165.551 399.82 l 1,59,60
 191.605 411.059 191.605 411.059 218.113 415.688 c 2,61,-1
 227.962 417.425 l 2,62,63
 247.239 420.792 247.239 420.792 267.056 420.792 c 0,64,0
 322.055 420.792 322.055 420.792 366.056 394.292 c 128,-1,1
131.793 127.944 m 1,65,-1
 129.792 126.944 l 1,66,-1
 119.944 125.208 l 1,67,68
 118.04 128.255 118.04 128.255 117.876 129.126 c 2,69,-1
 116.14 138.975 l 1,70,-1
 116.262 139.321 l 1,71,-1
 126.11 141.058 l 2,72,73
 126.723 141.126 126.723 141.126 130.057 137.793 c 1,74,-1
 131.793 127.944 l 1,65,-1
120.208 136.057 m 1,75,-1
 125.208 140.056 l 1,76,-1
 135.056 141.792 l 1,77,-1
 139.056 136.792 l 1,78,-1
 140.793 126.944 l 2,79,80
 140.793 124.319 140.793 124.319 139.07 124.183 c 2,81,-1
 129.222 122.446 l 2,82,83
 127.007 122.271 127.007 122.271 121.944 126.208 c 1,84,-1
 120.208 136.057 l 1,75,-1
EndSplineSet
Validated: 37
Substitution2: "'frac' +ZZwwgTBuUgZlcAAA in +MOkwxjDzZYdbVwAA lookup 18 subtable" five.numr
Substitution2: "'dnom' +UgZrzQAA in +MOkwxjDzZYdbVwAA lookup 16 subtable" five.dnom
Substitution2: "'numr' +UgZbUAAA in +MOkwxjDzZYdbVwAA lookup 15 subtable" five.numr
Substitution2: "'sups' +TgowZDBNZYdbVwAA in +MOkwxjDzZYdbVwAA lookup 14 subtable" uni2075
Substitution2: "'subs' +TgswZDBNZYdbVwAA in +MOkwxjDzZYdbVwAA lookup 13 subtable" uni2085
AlternateSubs2: "'aalt' +MFkweTBmMG51cE9TW1cweDBuMKIwrzC7MLkA in +MOkwxjDzZYdbVwAA lookup 1 subtable" uni2085 uni2075 five.numr five.dnom
EndChar

StartChar: six
Encoding: 54 54 485
Width: 512
Flags: W
LayerCount: 2
Fore
SplineSet
366.556 391.293 m 128,-1,1
 406.057 364.792 406.057 364.792 430.056 317.293 c 0,2,3
 444.285 289.128 444.285 289.128 450.079 256.219 c 2,4,-1
 451.815 246.371 l 2,5,6
 455.792 223.776 455.792 223.776 455.792 198.944 c 0,7,8
 455.792 136.943 455.792 136.943 431.292 88.4434 c 128,-1,9
 406.792 39.9438 406.792 39.9438 364.792 12.9443 c 0,10,11
 335.943 -5.60059 335.943 -5.60059 303.32 -11.4082 c 2,12,-1
 293.473 -13.1445 l 1,13,-1
 292.032 -13.3955 l 2,14,15
 277.587 -15.792 277.587 -15.792 262.944 -15.792 c 0,16,17
 168.944 -15.792 168.944 -15.792 116.944 64.708 c 0,18,19
 85.3887 113.559 85.3887 113.559 72.9824 184.32 c 2,20,-1
 71.2461 194.168 l 2,21,22
 63.207 240.013 63.207 240.013 63.208 295.056 c 0,23,24
 63.208 408.057 63.208 408.057 90.708 487.556 c 128,-1,25
 118.208 567.054 118.208 567.054 168.708 608.056 c 0,26,27
 205.435 637.873 205.435 637.873 251.947 646.006 c 2,28,-1
 261.795 647.742 l 2,29,30
 279.238 650.792 279.238 650.792 298.056 650.792 c 0,31,32
 378.057 650.792 378.057 650.792 438.056 592.792 c 1,33,-1
 439.792 582.944 l 1,34,-1
 394.793 531.944 l 1,35,-1
 393.792 530.944 l 1,36,-1
 383.943 529.208 l 1,37,38
 361.944 556.207 361.944 556.207 342.444 566.207 c 128,-1,39
 322.944 576.208 322.944 576.208 291.944 576.207 c 0,40,41
 284.958 576.207 284.958 576.207 277.346 575.244 c 0,42,43
 255.504 570.465 255.504 570.465 233.292 556.944 c 0,44,45
 198.792 535.944 198.792 535.944 172.292 480.944 c 0,46,47
 149.553 433.748 149.553 433.748 145.569 356.697 c 1,48,49
 164.751 380.49 164.751 380.49 191.207 395.556 c 0,50,51
 215.207 409.223 215.207 409.223 241.43 413.778 c 2,52,-1
 251.278 415.515 l 2,53,54
 264.389 417.792 264.389 417.792 278.057 417.791 c 0,55,0
 327.056 417.792 327.056 417.792 366.556 391.293 c 128,-1,1
391.792 526.943 m 1,56,-1
 387.792 522.944 l 1,57,-1
 377.944 521.208 l 1,58,-1
 372.944 526.207 l 1,59,-1
 371.208 536.056 l 2,60,61
 371.208 538.681 371.208 538.681 372.931 538.817 c 2,62,-1
 382.778 540.554 l 2,63,64
 384.993 540.729 384.993 540.729 390.056 536.792 c 1,65,-1
 391.792 526.943 l 1,56,-1
386.444 522.708 m 0,66,67
 382.945 525.208 382.945 525.208 381.944 525.207 c 2,68,-1
 380.208 535.056 l 1,69,-1
 382.207 539.057 l 1,70,-1
 392.056 540.793 l 1,71,72
 395.749 535.254 395.749 535.254 395.843 534.07 c 2,73,-1
 397.579 524.223 l 1,74,-1
 397.402 523.903 l 1,75,-1
 387.554 522.166 l 2,76,77
 387.253 522.131 387.253 522.131 386.444 522.708 c 0,66,67
342.208 96.5557 m 0,78,79
 374.208 136.055 374.208 136.055 374.207 206.057 c 0,80,81
 374.207 224.335 374.207 224.335 371.793 240.588 c 0,82,83
 367.694 260.706 367.694 260.706 359.444 277.207 c 0,84,85
 342.944 310.208 342.944 310.208 317.444 326.708 c 128,-1,86
 291.944 343.208 291.944 343.208 263.943 343.208 c 0,87,88
 257.318 343.208 257.318 343.208 250.357 342.342 c 0,89,90
 226.773 337.05 226.773 337.05 204.292 320.944 c 0,91,92
 170.792 296.946 170.792 296.946 148.792 258.944 c 1,93,94
 146.792 242.944 146.792 242.944 146.792 232.944 c 0,95,96
 146.792 214.24 146.792 214.24 149.658 195.383 c 0,97,98
 153.686 175.139 153.686 175.139 161.056 155.792 c 0,99,100
 177.056 113.792 177.056 113.792 206.556 86.292 c 128,-1,101
 236.056 58.7925 236.056 58.7925 274.056 58.792 c 0,102,103
 280.355 58.792 280.355 58.792 286.346 59.5273 c 0,104,105
 318.29 67.0346 318.29 67.0346 342.208 96.5557 c 0,78,79
EndSplineSet
Validated: 37
Substitution2: "'frac' +ZZwwgTBuUgZlcAAA in +MOkwxjDzZYdbVwAA lookup 18 subtable" six.numr
Substitution2: "'dnom' +UgZrzQAA in +MOkwxjDzZYdbVwAA lookup 16 subtable" six.dnom
Substitution2: "'numr' +UgZbUAAA in +MOkwxjDzZYdbVwAA lookup 15 subtable" six.numr
Substitution2: "'sups' +TgowZDBNZYdbVwAA in +MOkwxjDzZYdbVwAA lookup 14 subtable" uni2076
Substitution2: "'subs' +TgswZDBNZYdbVwAA in +MOkwxjDzZYdbVwAA lookup 13 subtable" uni2086
AlternateSubs2: "'aalt' +MFkweTBmMG51cE9TW1cweDBuMKIwrzC7MLkA in +MOkwxjDzZYdbVwAA lookup 1 subtable" uni2086 uni2076 six.numr six.dnom
EndChar

StartChar: seven
Encoding: 55 55 486
Width: 512
Flags: W
LayerCount: 2
Fore
SplineSet
343.508 564.208 m 1,0,-1
 76.9443 564.208 l 1,1,-1
 75.208 574.057 l 1,2,-1
 75.207 642.056 l 1,3,-1
 85.0557 643.793 l 1,4,-1
 446.056 643.792 l 1,5,-1
 447.792 633.944 l 1,6,-1
 447.793 593.943 l 1,7,8
 321.786 276.948 321.786 276.948 245.792 -4.05566 c 1,9,-1
 235.944 -5.79297 l 1,10,-1
 154.943 -5.79297 l 1,11,-1
 153.207 4.05566 l 1,12,13
 240.592 289.769 240.592 289.769 343.508 564.208 c 1,0,-1
EndSplineSet
Validated: 1
Substitution2: "'frac' +ZZwwgTBuUgZlcAAA in +MOkwxjDzZYdbVwAA lookup 18 subtable" seven.numr
Substitution2: "'dnom' +UgZrzQAA in +MOkwxjDzZYdbVwAA lookup 16 subtable" seven.dnom
Substitution2: "'numr' +UgZbUAAA in +MOkwxjDzZYdbVwAA lookup 15 subtable" seven.numr
Substitution2: "'sups' +TgowZDBNZYdbVwAA in +MOkwxjDzZYdbVwAA lookup 14 subtable" uni2077
Substitution2: "'subs' +TgswZDBNZYdbVwAA in +MOkwxjDzZYdbVwAA lookup 13 subtable" uni2087
AlternateSubs2: "'aalt' +MFkweTBmMG51cE9TW1cweDBuMKIwrzC7MLkA in +MOkwxjDzZYdbVwAA lookup 1 subtable" uni2087 uni2077 seven.numr seven.dnom
EndChar

StartChar: eight
Encoding: 56 56 487
Width: 512
Flags: W
LayerCount: 2
Fore
SplineSet
149.444 6.70801 m 128,-1,1
 104.944 29.208 104.944 29.208 80.9443 68.207 c 0,2,3
 64.9438 94.208 64.9438 94.208 59.6104 124.208 c 2,4,-1
 57.874 134.056 l 2,5,6
 57.6221 135.479 57.6221 135.479 57.6221 135.51 c 0,7,8
 55.207 150.088 55.207 150.088 55.207 165.056 c 0,9,10
 55.207 220.056 55.207 220.056 90.208 268.056 c 0,11,12
 122.626 312.515 122.626 312.515 174.713 338.926 c 1,13,14
 137.667 361.155 137.667 361.155 114.443 396.208 c 0,15,16
 95.6377 424.595 95.6377 424.595 90.1777 456.004 c 2,17,-1
 88.4414 465.852 l 2,18,19
 86.2075 478.701 86.2075 478.701 86.208 492.056 c 0,20,21
 86.208 561.056 86.208 561.056 130.207 605.556 c 0,22,23
 162.038 637.747 162.038 637.747 213.23 646.651 c 2,24,-1
 223.078 648.388 l 2,25,26
 242.651 651.792 242.651 651.792 265.057 651.792 c 0,27,28
 349.055 651.792 349.055 651.792 391.557 609.293 c 0,29,30
 423.43 577.418 423.43 577.418 431.399 532.324 c 2,31,-1
 433.136 522.476 l 1,32,-1
 433.387 521.02 l 2,33,34
 435.792 506.378 435.792 506.378 435.792 490.944 c 0,35,36
 435.792 444.944 435.792 444.944 408.292 403.444 c 0,37,38
 383.515 366.053 383.515 366.053 343.18 341.73 c 1,39,40
 391.228 316.361 391.228 316.361 422.056 273.293 c 0,41,42
 446.645 238.939 446.645 238.939 453.451 200.664 c 2,43,-1
 455.188 190.816 l 1,44,-1
 455.435 189.396 l 2,45,46
 457.792 175.193 457.792 175.193 457.792 160.943 c 0,47,48
 457.793 111.944 457.793 111.944 433.292 71.9434 c 128,-1,49
 408.792 31.9443 408.792 31.9443 364.292 8.94434 c 0,50,51
 337.676 -4.81348 337.676 -4.81348 306.229 -10.3418 c 2,52,-1
 296.381 -12.0781 l 2,53,54
 275.252 -15.7915 275.252 -15.7915 251.944 -15.792 c 0,55,0
 193.944 -15.792 193.944 -15.792 149.444 6.70801 c 128,-1,1
329.708 426.556 m 0,56,57
 354.208 461.056 354.208 461.056 354.208 497.056 c 0,58,59
 354.208 503.811 354.208 503.811 353.419 510.16 c 0,60,61
 347.464 534.848 347.464 534.848 329.444 553.208 c 0,62,63
 302.944 580.208 302.944 580.208 254.944 580.207 c 0,64,65
 244.524 580.207 244.524 580.207 234.744 578.924 c 0,66,67
 208.359 573.175 208.359 573.175 191.792 555.943 c 0,68,69
 166.793 529.944 166.793 529.944 166.792 491.943 c 0,70,71
 166.792 483.987 166.792 483.987 167.773 476.235 c 0,72,73
 173.882 449.806 173.882 449.806 192.556 430.792 c 0,74,75
 218.986 403.883 218.986 403.883 273.495 374.679 c 1,76,77
 307.226 394.898 307.226 394.898 329.708 426.556 c 0,56,57
341.208 89.5557 m 0,78,79
 373.208 121.057 373.208 121.057 373.208 169.056 c 0,80,81
 373.208 176.584 373.208 176.584 372.237 184.085 c 0,82,83
 364.954 216.873 364.954 216.873 337.944 245.707 c 0,84,85
 302.199 283.869 302.199 283.869 242.262 303.172 c 1,86,87
 199.636 284.187 199.636 284.187 171.292 247.944 c 0,88,89
 140.792 208.944 140.792 208.944 140.792 163.944 c 0,90,91
 140.793 155.678 140.793 155.678 141.86 147.274 c 0,92,93
 148.782 116.211 148.782 116.211 172.556 92.793 c 0,94,95
 206.057 59.7915 206.057 59.7915 262.056 59.792 c 0,96,97
 275.162 59.792 275.162 59.792 287.021 61.4678 c 0,98,99
 319.767 68.4508 319.767 68.4508 341.208 89.5557 c 0,78,79
EndSplineSet
Validated: 33
Substitution2: "'frac' +ZZwwgTBuUgZlcAAA in +MOkwxjDzZYdbVwAA lookup 18 subtable" eight.numr
Substitution2: "'dnom' +UgZrzQAA in +MOkwxjDzZYdbVwAA lookup 16 subtable" eight.dnom
Substitution2: "'numr' +UgZbUAAA in +MOkwxjDzZYdbVwAA lookup 15 subtable" eight.numr
Substitution2: "'sups' +TgowZDBNZYdbVwAA in +MOkwxjDzZYdbVwAA lookup 14 subtable" uni2078
Substitution2: "'subs' +TgswZDBNZYdbVwAA in +MOkwxjDzZYdbVwAA lookup 13 subtable" uni2088
AlternateSubs2: "'aalt' +MFkweTBmMG51cE9TW1cweDBuMKIwrzC7MLkA in +MOkwxjDzZYdbVwAA lookup 1 subtable" uni2088 uni2078 eight.numr eight.dnom
EndChar

StartChar: nine
Encoding: 57 57 488
Width: 512
Flags: W
LayerCount: 2
Fore
SplineSet
360.556 613.292 m 128,-1,1
 405.055 578.792 405.055 578.792 429.556 517.792 c 0,2,3
 441.806 487.292 441.806 487.292 447.931 452.292 c 2,4,-1
 449.667 442.444 l 2,5,6
 455.793 407.445 455.793 407.445 455.792 367.944 c 0,7,8
 455.793 179.943 455.793 179.943 399.292 83.9434 c 0,9,10
 351.897 3.41357 351.897 3.41357 271.075 -10.9707 c 2,11,-1
 261.228 -12.707 l 1,12,-1
 259.855 -12.9473 l 2,13,14
 244.712 -15.4896 244.712 -15.4896 228.944 -15.793 c 0,15,16
 136.943 -15.7915 136.943 -15.7915 76.9443 42.208 c 1,17,-1
 75.208 52.0557 l 1,18,-1
 119.207 102.056 l 1,19,-1
 120.208 103.056 l 1,20,-1
 130.057 104.792 l 1,21,-1
 131.056 103.792 l 1,22,23
 153.056 77.7925 153.056 77.7925 175.556 67.292 c 128,-1,24
 198.057 56.792 198.057 56.792 231.056 56.792 c 0,25,26
 240.292 56.792 240.292 56.792 248.8 57.9434 c 0,27,28
 299.126 69.1188 299.126 69.1188 329.208 122.556 c 0,29,30
 363.58 183.613 363.58 183.613 372.621 273.221 c 1,31,32
 352.066 257.983 352.066 257.983 329.792 249.444 c 0,33,34
 315.65 244.023 315.65 244.023 299.507 241.157 c 2,35,-1
 289.658 239.421 l 2,36,37
 288.22 239.165 288.22 239.165 288.188 239.165 c 0,38,39
 270.439 236.207 270.439 236.207 250.943 236.207 c 0,40,41
 198.944 236.208 198.944 236.208 156.444 260.708 c 128,-1,42
 113.945 285.208 113.945 285.208 89.9443 328.708 c 0,43,44
 75.0864 355.636 75.0864 355.636 69.4268 387.354 c 2,45,-1
 67.6904 397.203 l 1,46,-1
 67.4336 398.67 l 2,47,48
 64.208 417.788 64.208 417.788 64.208 438.056 c 0,49,50
 64.208 496.056 64.208 496.056 88.707 544.056 c 128,-1,51
 113.207 592.056 113.207 592.056 155.208 619.056 c 0,52,53
 184.057 637.602 184.057 637.602 216.68 643.408 c 2,54,-1
 226.527 645.145 l 1,55,-1
 227.961 645.395 l 2,56,57
 242.409 647.792 242.409 647.792 257.056 647.792 c 0,58,0
 316.055 647.792 316.055 647.792 360.556 613.292 c 128,-1,1
322.208 320.556 m 0,59,60
 351.208 333.057 351.208 333.057 375.208 361.056 c 1,61,62
 373.585 406.899 373.585 406.899 367.604 443.178 c 0,63,64
 358.827 489.666 358.827 489.666 342.444 519.207 c 0,65,66
 311.945 574.208 311.945 574.208 251.944 574.208 c 0,67,68
 243.024 574.208 243.024 574.208 234.706 573.104 c 0,69,70
 199.921 565.132 199.921 565.132 176.792 536.944 c 0,71,72
 144.792 497.943 144.792 497.943 144.792 430.943 c 0,73,74
 144.792 417.71 144.792 417.71 146.538 405.38 c 0,75,76
 153.86 370.354 153.86 370.354 177.056 345.793 c 0,77,78
 211.056 309.793 211.056 309.793 260.056 309.792 c 0,79,80
 278.645 309.792 278.645 309.792 295.037 312.189 c 0,81,82
 310.056 315.318 310.056 315.318 322.208 320.556 c 0,59,60
122.208 105.056 m 1,83,-1
 126.208 110.056 l 1,84,-1
 136.056 111.792 l 1,85,-1
 141.056 106.792 l 1,86,-1
 142.792 96.9443 l 2,87,88
 142.792 93.6499 142.792 93.6499 140.799 93.4561 c 2,89,-1
 130.951 91.7197 l 2,90,91
 128.708 91.5015 128.708 91.5015 123.944 95.207 c 1,92,-1
 122.208 105.056 l 1,83,-1
133.792 96.9434 m 1,93,-1
 131.793 94.9443 l 1,94,-1
 121.944 93.208 l 1,95,96
 119.545 96.0073 119.545 96.0073 119.385 96.8877 c 2,97,-1
 117.648 106.735 l 1,98,-1
 117.843 107.126 l 1,99,-1
 127.691 108.862 l 2,100,101
 129.257 108.541 129.257 108.541 132.056 106.792 c 1,102,-1
 133.792 96.9434 l 1,93,-1
EndSplineSet
Validated: 37
Substitution2: "'frac' +ZZwwgTBuUgZlcAAA in +MOkwxjDzZYdbVwAA lookup 18 subtable" nine.numr
Substitution2: "'dnom' +UgZrzQAA in +MOkwxjDzZYdbVwAA lookup 16 subtable" nine.dnom
Substitution2: "'numr' +UgZbUAAA in +MOkwxjDzZYdbVwAA lookup 15 subtable" nine.numr
Substitution2: "'sups' +TgowZDBNZYdbVwAA in +MOkwxjDzZYdbVwAA lookup 14 subtable" uni2079
Substitution2: "'subs' +TgswZDBNZYdbVwAA in +MOkwxjDzZYdbVwAA lookup 13 subtable" uni2089
AlternateSubs2: "'aalt' +MFkweTBmMG51cE9TW1cweDBuMKIwrzC7MLkA in +MOkwxjDzZYdbVwAA lookup 1 subtable" uni2089 uni2079 nine.numr nine.dnom
EndChar

StartChar: zero.ss02
Encoding: 65541 -1 489
Width: 512
Flags: W
LayerCount: 2
Fore
SplineSet
109.5 74 m 128,-1,1
 58 159 58 159 58 315 c 0,2,3
 58 468 58 468 110 555 c 128,-1,4
 162 642 162 642 256 642 c 256,5,6
 350 642 350 642 402 555 c 128,-1,7
 454 468 454 468 454 315 c 0,8,9
 454 158 454 158 402.5 73.5 c 128,-1,10
 351 -11 351 -11 256 -11 c 256,11,0
 161 -11 161 -11 109.5 74 c 128,-1,1
347 119.5 m 128,-1,13
 380 188 380 188 380 315 c 0,14,15
 380 437 380 437 347 508.5 c 128,-1,16
 314 580 314 580 256 580 c 256,17,18
 198 580 198 580 165 508.5 c 128,-1,19
 132 437 132 437 132 315 c 0,20,21
 132 188 132 188 165 119.5 c 128,-1,22
 198 51 198 51 256 51 c 256,23,12
 314 51 314 51 347 119.5 c 128,-1,13
EndSplineSet
Validated: 1
EndChar

StartChar: uni2080
Encoding: 8320 8320 491
Width: 512
Flags: W
LayerCount: 2
Fore
SplineSet
368.5 343.5 m 128,-1,1
 406 290 406 290 406 197 c 0,2,3
 406 100 406 100 369.5 47.5 c 128,-1,4
 333 -5 333 -5 264 -5 c 256,5,6
 195 -5 195 -5 159 47 c 128,-1,7
 123 99 123 99 123 197 c 0,8,9
 123 291 123 291 160 344 c 128,-1,10
 197 397 197 397 264 397 c 256,11,0
 331 397 331 397 368.5 343.5 c 128,-1,1
205.5 302 m 128,-1,13
 184 263 184 263 184 197 c 0,14,15
 184 154 184 154 191 126 c 1,16,-1
 325 299 l 1,17,18
 305 341 305 341 264 341 c 0,19,12
 227 341 227 341 205.5 302 c 128,-1,13
323 89 m 128,-1,21
 344 127 344 127 344 197 c 0,22,23
 344 230 344 230 340 250 c 1,24,-1
 209 83 l 1,25,26
 229 51 229 51 264 51 c 0,27,20
 302 51 302 51 323 89 c 128,-1,21
EndSplineSet
Validated: 1
Substitution2: "'ss02' +MLkwvzCkMOswuzDDMMgA-2 in +MOkwxjDzZYdbVwAA lookup 26 subtable" uni2080.ss02
Substitution2: "'zero' +MLkw6TDDMLcw5TBkME0wvDDt in +MOkwxjDzZYdbVwAA lookup 23 subtable" uni2080.zero
AlternateSubs2: "'aalt' +MFkweTBmMG51cE9TW1cweDBuMKIwrzC7MLkA in +MOkwxjDzZYdbVwAA lookup 1 subtable" uni2080.zero uni2080.ss02
EndChar

StartChar: uni2081
Encoding: 8321 8321 492
Width: 512
Flags: W
LayerCount: 2
Fore
SplineSet
241 -10 m 1,0,-1
 241 307 l 1,1,-1
 141 271 l 1,2,-1
 125 303 l 1,3,-1
 261 379 l 1,4,-1
 306 379 l 1,5,-1
 306 -10 l 1,6,-1
 241 -10 l 1,0,-1
EndSplineSet
Validated: 1
EndChar

StartChar: uni2085
Encoding: 8325 8325 496
Width: 512
Flags: W
LayerCount: 2
Fore
SplineSet
361.5 228 m 128,-1,1
 395 193 395 193 395 135 c 0,2,3
 395 73 395 73 356 34 c 128,-1,4
 317 -5 317 -5 257 -5 c 0,5,6
 215 -5 215 -5 180.5 14 c 128,-1,7
 146 33 146 33 126 66 c 1,8,-1
 173 100 l 1,9,-1
 174 101 l 2,10,11
 175 101 175 101 175 100.5 c 0,12,-1
 175 100 l 1,13,14
 193 73 193 73 210.5 62 c 128,-1,15
 228 51 228 51 252 51 c 0,16,17
 287 51 287 51 308 74.5 c 128,-1,18
 329 98 329 98 329 135 c 0,19,20
 329 169 329 169 311 188 c 128,-1,21
 293 207 293 207 262 207 c 0,22,23
 212 207 212 207 183 178 c 1,24,-1
 143 194 l 1,25,-1
 159 390 l 1,26,-1
 375 390 l 1,27,-1
 375 335 l 1,28,-1
 212 335 l 1,29,-1
 206 246 l 1,30,31
 235 263 235 263 273 263 c 0,32,0
 328 263 328 263 361.5 228 c 128,-1,1
172 104.5 m 128,-1,34
 174 103 174 103 176 102 c 1,35,-1
 174 101 l 1,36,33
 170 106 170 106 172 104.5 c 128,-1,34
176 102 m 1,38,-1
 181 106 l 1,39,-1
 185 101 l 1,40,37
 185 95 185 95 176 102 c 1,38,-1
EndSplineSet
Validated: 5
EndChar

StartChar: uni2086
Encoding: 8326 8326 497
Width: 512
Flags: W
LayerCount: 2
Fore
SplineSet
354.5 224.5 m 128,-1,1
 390 189 390 189 390 129 c 0,2,3
 390 70 390 70 352 32.5 c 128,-1,4
 314 -5 314 -5 258 -5 c 0,5,6
 198 -5 198 -5 161 45 c 128,-1,7
 124 95 124 95 124 181 c 0,8,9
 124 282 124 282 165 339.5 c 128,-1,10
 206 397 206 397 273 397 c 0,11,12
 307 397 307 397 331.5 387.5 c 128,-1,13
 356 378 356 378 380 355 c 1,14,-1
 347 310 l 1,15,-1
 346 309 l 1,16,17
 316 342 316 342 280 342 c 0,18,19
 245 342 245 342 219 313 c 128,-1,20
 193 284 193 284 187 234 c 1,21,22
 225 260 225 260 262 260 c 0,23,0
 319 260 319 260 354.5 224.5 c 128,-1,1
335 307 m 2,24,25
 335 311 335 311 344 306 c 1,26,-1
 341 302 l 1,27,-1
 335 306 l 1,28,-1
 335 307 l 2,24,25
344 306 m 1,30,-1
 346 309 l 1,31,29
 354 300 354 300 344 306 c 1,30,-1
313 72 m 128,-1,33
 330 91 330 91 330 128 c 0,34,35
 330 166 330 166 310 187.5 c 128,-1,36
 290 209 290 209 258 209 c 0,37,38
 224 209 224 209 188 185 c 1,39,40
 187 178 187 178 187 165 c 0,41,42
 187 116 187 116 209 84.5 c 128,-1,43
 231 53 231 53 266 53 c 0,44,32
 296 53 296 53 313 72 c 128,-1,33
EndSplineSet
Validated: 5
EndChar

StartChar: uni2087
Encoding: 8327 8327 498
Width: 512
Flags: W
LayerCount: 2
Fore
SplineSet
304 335 m 1,1,-1
 150 335 l 1,2,-1
 150 390 l 1,3,-1
 379 390 l 1,4,-1
 379 358 l 1,5,6
 290 152 290 152 244 1 c 1,7,-1
 176 1 l 1,8,0
 220 133 220 133 304 335 c 1,1,-1
EndSplineSet
Validated: 1
EndChar

StartChar: uni2088
Encoding: 8328 8328 499
Width: 512
Flags: W
LayerCount: 2
Fore
SplineSet
164 26 m 128,-1,1
 130 56 130 56 130 102 c 0,2,3
 130 169 130 169 204 209 c 1,4,5
 179 224 179 224 163 247.5 c 128,-1,6
 147 271 147 271 147 297 c 0,7,8
 147 339 147 339 179 368 c 128,-1,9
 211 397 211 397 257 397 c 0,10,11
 302 397 302 397 335.5 369 c 128,-1,12
 369 341 369 341 369 301 c 0,13,14
 369 275 369 275 352.5 250.5 c 128,-1,15
 336 226 336 226 309 210 c 1,16,17
 344 191 344 191 363 166 c 128,-1,18
 382 141 382 141 382 102 c 0,19,20
 382 56 382 56 347 26 c 128,-1,21
 312 -4 312 -4 255 -4 c 256,22,0
 198 -4 198 -4 164 26 c 128,-1,1
299.5 258.5 m 128,-1,24
 310 272 310 272 310 296 c 0,25,26
 310 315 310 315 296 328.5 c 128,-1,27
 282 342 282 342 258 342 c 0,28,29
 233 342 233 342 219.5 328 c 128,-1,30
 206 314 206 314 206 293 c 0,31,32
 206 273 206 273 220 260 c 128,-1,33
 234 247 234 247 265 231 c 1,34,23
 289 245 289 245 299.5 258.5 c 128,-1,24
307.5 66.5 m 128,-1,36
 324 82 324 82 324 109 c 0,37,38
 324 139 324 139 304.5 156.5 c 128,-1,39
 285 174 285 174 247 185 c 1,40,41
 218 173 218 173 202.5 155.5 c 128,-1,42
 187 138 187 138 187 111 c 0,43,44
 187 86 187 86 204.5 68.5 c 128,-1,45
 222 51 222 51 256 51 c 0,46,35
 291 51 291 51 307.5 66.5 c 128,-1,36
EndSplineSet
Validated: 1
EndChar

StartChar: uni2089
Encoding: 8329 8329 500
Width: 512
Flags: W
LayerCount: 2
Fore
SplineSet
358 351.5 m 128,-1,1
 391 306 391 306 391 217 c 0,2,3
 391 111 391 111 354 53 c 128,-1,4
 317 -5 317 -5 254 -5 c 0,5,6
 196 -5 196 -5 153 35 c 1,7,-1
 182 87 l 1,8,-1
 182 88 l 1,9,-1
 183 87 l 2,10,11
 201 69 201 69 217 60.5 c 128,-1,12
 233 52 233 52 256 52 c 0,13,14
 292 52 292 52 311.5 82 c 128,-1,15
 331 112 331 112 335 174 c 1,16,17
 304 140 304 140 259 140 c 0,18,19
 212 140 212 140 181 176 c 128,-1,20
 150 212 150 212 150 266 c 0,21,22
 150 321 150 321 183 359 c 128,-1,23
 216 397 216 397 264 397 c 0,24,0
 325 397 325 397 358 351.5 c 128,-1,1
333 258 m 0,26,27
 333 297 333 297 315.5 319 c 128,-1,28
 298 341 298 341 266 341 c 0,29,30
 236 341 236 341 219 321 c 128,-1,31
 202 301 202 301 202 267 c 0,32,33
 202 232 202 232 218 215 c 128,-1,34
 234 198 234 198 260 198 c 0,35,36
 282 198 282 198 300 209 c 128,-1,37
 318 220 318 220 332 241 c 1,38,25
 333 247 333 247 333 258 c 0,26,27
193 90 m 2,39,40
 193 87 193 87 184 91 c 1,41,-1
 186 96 l 1,42,-1
 193 92 l 1,43,-1
 193 90 l 2,39,40
179 93 m 128,-1,45
 181 93 181 93 184 91 c 1,46,-1
 182 88 l 1,47,44
 177 93 177 93 179 93 c 128,-1,45
EndSplineSet
Validated: 5
EndChar

StartChar: uni2070
Encoding: 8304 8304 521
Width: 512
Flags: W
LayerCount: 2
Fore
SplineSet
368.5 601.5 m 128,-1,1
 406 548 406 548 406 455 c 0,2,3
 406 358 406 358 369.5 305.5 c 128,-1,4
 333 253 333 253 264 253 c 256,5,6
 195 253 195 253 159 305 c 128,-1,7
 123 357 123 357 123 455 c 0,8,9
 123 549 123 549 160 602 c 128,-1,10
 197 655 197 655 264 655 c 256,11,0
 331 655 331 655 368.5 601.5 c 128,-1,1
205.5 560 m 128,-1,13
 184 521 184 521 184 455 c 0,14,15
 184 412 184 412 191 384 c 1,16,-1
 325 557 l 1,17,18
 305 599 305 599 264 599 c 0,19,12
 227 599 227 599 205.5 560 c 128,-1,13
323 347 m 128,-1,21
 344 385 344 385 344 455 c 0,22,23
 344 488 344 488 340 508 c 1,24,-1
 209 341 l 1,25,26
 229 309 229 309 264 309 c 0,27,20
 302 309 302 309 323 347 c 128,-1,21
EndSplineSet
Validated: 1
Substitution2: "'ss02' +MLkwvzCkMOswuzDDMMgA-2 in +MOkwxjDzZYdbVwAA lookup 26 subtable" uni2070.ss02
Substitution2: "'zero' +MLkw6TDDMLcw5TBkME0wvDDt in +MOkwxjDzZYdbVwAA lookup 23 subtable" uni2070.zero
AlternateSubs2: "'aalt' +MFkweTBmMG51cE9TW1cweDBuMKIwrzC7MLkA in +MOkwxjDzZYdbVwAA lookup 1 subtable" uni2070.zero uni2070.ss02
EndChar

